<svg viewBox="0 0 100 100" xmlns="http://www.w3.org/2000/svg"><symbol viewBox="0 0 32 32" id="shape-arrow-down"><title>arrow-down</title><path d="M24.773 13.7c-.65.67-7.512 7.206-7.512 7.206-.348.357-.804.534-1.26.534-.458 0-.914-.178-1.26-.534 0 0-6.862-6.536-7.515-7.205-.65-.668-.696-1.87 0-2.585.698-.714 1.67-.77 2.522 0L16 17.112l6.25-5.995c.855-.77 1.828-.714 2.523 0 .698.714.654 1.917 0 2.584z"/></symbol><symbol viewBox="0 0 32 32" id="shape-arrow-left"><title>arrow-left</title><path d="M18.3 7.226c-.67.653-7.204 7.514-7.204 7.514-.357.35-.534.805-.534 1.26s.178.913.534 1.262c0 0 6.534 6.86 7.203 7.512.668.653 1.87.698 2.585 0 .712-.696.768-1.667-.002-2.52L14.888 16l5.995-6.252c.77-.854.714-1.826.002-2.522-.715-.696-1.918-.653-2.586 0z"/></symbol><symbol viewBox="0 0 32 32" id="shape-arrow-right"><title>arrow-right</title><path d="M13.7 7.226c.67.653 7.204 7.514 7.204 7.514.358.35.536.805.536 1.26s-.178.913-.536 1.262c0 0-6.534 6.86-7.203 7.512-.668.653-1.87.698-2.585 0-.714-.696-.77-1.667 0-2.52L17.112 16 11.117 9.75c-.77-.854-.714-1.826 0-2.522.714-.696 1.917-.653 2.584 0z"/></symbol><symbol viewBox="0 0 32 32" id="shape-arrow-up"><title>arrow-up</title><path d="M29.2 19.4c-1-1-11.3-10.8-11.3-10.8-.5-.5-1.2-.8-1.9-.8s-1.4.3-1.9.8c0 0-10.3 9.8-11.3 10.8s-1 2.8 0 3.9 2.5 1.2 3.8 0l9.4-9 9.4 9c1.3 1.2 2.7 1.1 3.8 0 1-1 .9-2.8 0-3.9z"/></symbol><symbol viewBox="0 0 57.3 65.3" id="shape-calendar"><title>calendar</title><path d="M45.4 2.4C45.4 1.1 44.3 0 43 0c-1.3 0-2.4 1.1-2.4 2.4v9.5c0 1.3 1.1 2.4 2.4 2.4 1.3 0 2.4-1.1 2.4-2.4V2.4z"/><path d="M51.8 58.6c0 .6-.5 1.2-1.2 1.2H6.7c-.6 0-1.2-.5-1.2-1.2V23.4h46.2l.1 35.2zM50.6 7.8h-3.3v4c0 2.4-2 4.4-4.4 4.4-2.4 0-4.4-2-4.4-4.4v-4H18.7v4c0 2.4-2 4.4-4.4 4.4-2.4 0-4.4-2-4.4-4.4v-4H6.7C3 7.8 0 10.8 0 14.6v44.1c0 3.7 3 6.7 6.7 6.7h43.9c3.7 0 6.7-3 6.7-6.7V14.6c0-3.8-3-6.8-6.7-6.8z"/><path d="M16.8 2.4c0-1.3-1.1-2.4-2.4-2.4C13.1 0 12 1.1 12 2.4v9.5c0 1.3 1.1 2.4 2.4 2.4 1.3 0 2.4-1.1 2.4-2.4V2.4zM41 27.5h5.1v5.3H41zM33.5 27.5h5.1v5.3h-5.1zM26.1 27.5h5.1v5.3h-5.1zM41 34.9h5.1v5.3H41zM33.5 34.9h5.1v5.3h-5.1zM26.1 34.9h5.1v5.3h-5.1zM18.7 34.9h5.1v5.3h-5.1zM11.3 34.9h5.1v5.3h-5.1zM41 42.2h5.1v5.3H41zM33.5 42.2h5.1v5.3h-5.1zM26.1 42.2h5.1v5.3h-5.1zM18.7 42.2h5.1v5.3h-5.1zM11.3 42.2h5.1v5.3h-5.1zM33.5 49.5h5.1v5.3h-5.1zM26.1 49.5h5.1v5.3h-5.1zM18.7 49.5h5.1v5.3h-5.1zM11.3 49.5h5.1v5.3h-5.1z"/></symbol><symbol viewBox="0 0 56.2 75" id="shape-code"><title>code</title><path fill-rule="evenodd" clip-rule="evenodd" d="M27.9 32.6l4.6.8-4.1 23.1-4.6-.8 4.1-23.1zm9.6 2l-3.3 3.3 6.6 6.6-6.6 6.6 3.3 3.3 9.9-9.9-9.9-9.9zm-18.7 0l3.3 3.3-6.6 6.6 6.6 6.6-3.3 3.3-9.9-9.9 9.9-9.9zM4.7 70.3h46.9V18.8H39.8c-2.3 0-2.3-2.3-2.3-2.3V4.7H4.7v65.6zM0 2.3C0 0 2.3 0 2.3 0h37.5l16.4 16.4v56.2c0 2.3-2.4 2.3-2.4 2.3H2.4C0 75 0 72.7 0 72.7V2.3z"/></symbol><symbol viewBox="-101.4 0 1061.7 518.4" id="shape-deliver-fish"><title>deliver-fish</title><g fill="#2580AA"><path d="M521.8 233.2c-5.2.4-10.6-4.2-9.5-3.8 9.4 3.8 15.9-6.3 13.5-10.8-2.5-4.4-13.8-.8-15.8-2.6-6.9-6.2-14.7-18.7-23.5-10.3-3 2.9-6.2 5.2-7.6 8.8-2.4-3.4-7.5-7.1-10.7-5.6-9.4 4.2.5 17 2.5 20.1 2.7 4.3.9 6.5-2.5 8.1-4.5 2.1 3.7 3.9 8.3 3.1-1.7 3.3-5.5 5.6-7.6 6.8-1 .6-1.8 1.3-2.4 2.2-1.6-2.9-11.2-3.2-14.1-1.6-2.9 1.6-.8 6 3.6 7.5 2.3.8 3.8-.4 5.8 3-.6 1.2.5 5.8 1.2 7.1 1.2 2.1 3.3 1.2 5.4 0 1.5-.8 3.2-7.7 3.2-9.2 2.3-.4 2.7-1.1 4.5-2.1.5-.3-2.4 3.5-1.6 5 1.5 2.6 7.7 12.2 9.1 9.5 1.4-2.5 4.8-7.6 3.8-10.1 1.2.2 3.5 3.2 4 4.1 1.2 2.2 3.2 3.6 5.4 2.4 2.2-1.2 1.8-11.8 3.1-11.2 6.1-3 12-6.3 12.2-11.2 2.3 1.4 7.3 2.7 9.7 1.1 7.2-4.2 5.2-10.7 0-10.3zm-19.9-14.8c-1.1.6-3-.4-4.1-2.4-1.1-2-1.1-4.1.1-4.7s3 .4 4.1 2.4c1 1.9 1 4.1-.1 4.7zM841.5 298.6c1.4-1.4 2.2-3.6 2.2-7 0-9.7-4.3-6.4-14-6.4 0 0-13.6-7.1-15.7-14.6 2.9-6.4-.6-15.9-7.6-18.6-8.7-3.5-14.3-2.2-19.8 7-20.5 7.7-47 16.7-51.9 14.6 2.5-6.3 30.3-21.6 30.3-50.9 0-26-49.4-64.9-53-68-10.9-9.2-32.8-24.9-32.7-32.5.2-12.3 5.3-21.6.3-40.7-10.4-39.4-51.7-60.3-77.2-48.6-28.1 12.9-29.8 20.3-33.1 48.2-.7 6.2 11.9 9.8 13.1 16.1.6 3.1-3 19.4-2 22.5 2.1 6.5 13.2 1.3 16.6 6.8.9 1.5-4.5 11.3 4.7 10 3.3-.5 14.5-14.3 17.7-12.9 6.2 13.2-16.6 17-12.7 20.9 5 5 3.2 11.7 7.9 14.3 4.7 2.6 21.5-6.3 24.4-6.4-4.1 9.3-7 51.1-13.2 58.8 0 0-20.1 21.1-30.1 20.9-3.3-.1-3.6-11.1-5.6-11.8-7.7-2.8-5.7 12.8-9.9 15.7-4.9 3.4-32.9 7-33.2 12-.3 5 25.5 5.4 31.4 4.3 16.4-3.1 45.4-2.6 61.4-9.5 8.9-3.8 16.7-30.4 16.7-30.4-.6 3.3 18.8 29.5 20.6 35-9.6 8.1-31.5 22-31.5 35.5 0 6.1 1 11.3 3 15.7h-35.5v63.7l35 31.9v115.1c5.7 1.4 11.6 2.2 17.7 2.2 21.5 0 40.8-9.1 54.4-23.7 13.5 14.6 32.9 23.7 54.4 23.7 20.9 0 39.8-8.7 53.3-22.6 13.5 13.9 32.4 22.6 53.3 22.6 13.5 0 26.2-3.6 37.1-10 10.9 6.3 23.6 10 37.1 10 20.2 0 38.5-8.1 51.8-21.1 13.4 13.1 31.7 21.1 51.8 21.1 24.6 0 46.4-12 59.9-30.5 13.5 18.5 35.3 30.5 59.9 30.5V393.1l9.3-30.8v-63.7H841.5zm-46.2-17.5c3.1 1.8 9.2 12.9 23.5 17.4h-34.6c5.2-6 9.3-12.2 11.1-17.4z"/><path d="M465.9 276.3c0-8.9-6.1-9.2-14.9-8.5-10.3.8-10.5 8.3-15.3 13.3s-17.4 16.2-24 18.4c-1.1-.2-39.2-20.3-47.8-21.4-8.6-1.1-9-3.6-14.3-10.2.1-.9 1-2 3.1-3.7 2-.6 3.6-1 4.4-1 6.8-.1 9.9 2.1 16 0 8-2.8 10.2-15.6 9.4-20.6-.3-1.7-14.7-9.6-10.2-7.6 2.2 1 11.1 1 12.5-1.7 1.9-3.7-1.3-7.8-1-12.3.3-4 9.9-2.3 9.9-7.4 0-8.2-9.9-13.7-11.1-21.1-.8-5 6.3-11.2 4.8-15.6-7.3-22.2-26.5-37.1-53.8-37.1-40.8 0-55.3 33.5-55.3 74.8 0 3.6-.2 6.7-.4 9.5-1.2 15.9 4.6 28.4 10.8 31.4 1.5.7 9.1 2 15.4 5.3-8.4 19.2-7.1 33.9-6.3 47.6 0 0-8.5 65.5-.6 86.7-19.2 1.5-38.5 2.7-58 3.4-47.5-24.7-95.3-44-142.1-58-.9 1.5-12.3 19-23.9 53.7-4.9-.4-9.7-.9-14.6-1.4-.9-.1-1.7-.2-2.6-.3-4.6-.5-9.3-1-13.9-1.5l-3-.3c-4.6-.5-9.2-1.1-13.8-1.7l-2.7-.3c-4.8-.6-9.5-1.2-14.2-1.9-.5-.1-1-.1-1.5-.2-4.7-.7-9.3-1.3-14-2-.5-.1-1.1-.2-1.6-.2-4.7-.7-9.5-1.5-14.2-2.3-.8-.1-1.7-.3-2.5-.4l-13.8-2.4c-.9-.2-1.7-.3-2.6-.5-4.6-.8-9.3-1.7-13.9-2.6-.6-.1-1.3-.2-1.9-.4-4.9-.9-9.7-1.9-14.6-2.9 2.9 20.7 8.9 40.5 17.6 59.2 1.2 2.7 2.6 5.3 3.9 7.9 4.1 7.9 8.6 15.5 13.7 22.9.8 1.2 1.7 2.5 2.5 3.7 7.8 10.9 16.5 21.3 26.2 31 3.1-2.2 6.1-4.7 8.8-7.4.8.8 1.7 1.6 2.5 2.3.3.3.7.6 1 .8.5.5 1.1.9 1.6 1.4.4.4.9.7 1.3 1 .5.4.9.7 1.4 1.1.5.4 1 .7 1.5 1.1l1.2.9c.6.4 1.2.7 1.7 1.1.4.2.7.5 1.1.7.6.4 1.3.8 1.9 1.1.3.2.7.4 1 .6.7.4 1.4.7 2.1 1.1.3.2.6.3.9.5.8.4 1.5.7 2.3 1.1.3.1.5.2.8.4.8.4 1.6.7 2.5 1 .2.1.5.2.7.3.9.3 1.7.6 2.6.9.2.1.4.1.6.2.9.3 1.9.6 2.8.8.2 0 .3.1.5.1 1 .3 2 .5 2.9.7.1 0 .3.1.4.1 1 .2 2.1.4 3.1.6h.3c1.1.2 2.2.4 3.2.5h.2c1.1.1 2.2.3 3.4.4h.1c1.2.1 2.3.2 3.5.2.8 0 1.7.1 2.5.1 2 0 3.9-.1 5.8-.2.7-.1 1.5-.1 2.2-.2.7-.1 1.5-.2 2.2-.3l2.1-.3c.7-.1 1.4-.2 2.1-.4h.1c.7-.1 1.4-.3 2.1-.4h.1c.7-.2 1.3-.3 2-.5h.1c.7-.2 1.3-.4 2-.5h.1c.6-.2 1.3-.4 1.9-.6.1 0 .1 0 .2-.1.6-.2 1.2-.4 1.9-.6.1 0 .1 0 .2-.1.6-.2 1.2-.4 1.8-.7.1 0 .1-.1.2-.1.6-.2 1.2-.5 1.7-.7.1 0 .2-.1.3-.1.6-.2 1.1-.5 1.7-.7.1 0 .2-.1.3-.1.5-.3 1.1-.5 1.6-.8.1-.1.2-.1.3-.2.5-.3 1-.5 1.6-.8.1-.1.2-.1.3-.2.5-.3 1-.5 1.5-.8.1-.1.3-.1.4-.2.5-.3 1-.6 1.4-.8.1-.1.3-.2.4-.3.5-.3.9-.6 1.4-.9.1-.1.3-.2.4-.3.4-.3.9-.6 1.3-.9.2-.1.3-.2.5-.3l1.2-.9c.2-.1.3-.3.5-.4l1.2-.9c.2-.1.4-.3.5-.4.4-.3.7-.6 1.1-.9.2-.2.4-.3.6-.5.4-.3.7-.6 1-.9.2-.2.4-.3.6-.5.3-.3.7-.6 1-.9l.6-.6.9-.9.6-.6.8-.8c.2-.2.4-.5.7-.7l.8-.8c.2-.3.5-.5.7-.8.2-.3.5-.5.7-.8.3-.3.5-.6.7-.9.2-.2.4-.5.6-.7.3-.3.5-.7.8-1 .2-.2.3-.4.5-.6l1.2-1.5c0-.1.1-.1.1-.2 4.6 6.3 10.3 11.9 16.6 16.5 2.3 1.7 4.7 3.2 7.3 4.6 1.9 1 3.8 2 5.8 2.9.7.3 1.3.6 2 .9 2 .8 4.1 1.6 6.2 2.2l4.2 1.2c1.4.4 2.9.7 4.3.9.7.1 1.5.3 2.2.4 3.7.6 7.5.9 11.3.9 2.1 0 4.2-.1 6.2-.3 4.1-.3 8.1-1 12-2 1.9-.5 3.9-1.1 5.7-1.7.9-.3 1.9-.7 2.8-1 1.8-.7 3.7-1.5 5.4-2.4 4.4-2.1 8.6-4.7 12.5-7.6 12.4 9.4 27.9 15 44.7 15 21.5 0 40.8-9.1 54.4-23.7 13.5 14.6 32.9 23.7 54.4 23.7 18 0 34.4-6.4 47.3-17 34-35.3 56.1-79.1 61.5-127.1-3.9.9-7.7 1.7-11.6 2.6-.9.2-1.9.4-2.8.6-3.9.8-7.8 1.7-11.7 2.5h-.1c-3.9.8-7.8 1.6-11.7 2.3-.9.2-1.8.3-2.6.5-4 .8-8 1.5-12 2.3l-12 2.1c-.8.1-1.6.3-2.4.4-8.1 1.4-16.3 2.7-24.5 3.9-.7.1-1.4.2-2.2.3-4.2.6-8.3 1.2-12.5 1.8 1.8-13.8 1.4-34.1-6.6-62.5-.1-.2 4.2.2 4.1 0 13-.3 43.5 4.9 46.2 3.5 11.4-2.5 34.1-35.8 41-35.8 5.6 0 38.9 1.6 39.5-10.5.9-6.5-30.7-1.8-30.7-5.1zM174.5 399.2c-1.6 0-3.2-.1-4.8-.1-3.8-.1-7.6-.1-11.4-.2-1.5 0-3-.1-4.5-.1-4.3-.1-8.5-.2-12.7-.4-.8 0-1.5-.1-2.3-.1-21.8-.8-43.4-2.2-64.9-4.1C84 364 96 342.1 96.9 340.4c42.2 15.2 84.9 34.8 127.1 58.5-8.4.2-16.7.4-25.2.4h-8.5c-5.2 0-10.5 0-15.8-.1z"/></g></symbol><symbol viewBox="0 0 32 32" id="shape-design"><title>design</title><path d="M8 6L4 2H2v2l4 4 2-2zm2-6h2v4h-2V0zm8 10h4v2h-4v-2zm2-6V2h-2l-4 4 2 2 4-4zM0 10h4v2H0v-2zm10 8h2v4h-2v-4zm-8 0v2h2l4-4-2-2-4 4zm29.6 9.6L11.7 7.7c-.6-.6-1.5-.6-2.1 0L7.7 9.6c-.6.6-.6 1.5 0 2.1l19.9 19.9c.6.6 1.5.6 2.1 0l1.9-1.9c.5-.6.5-1.6 0-2.1zM15 17l-6-6 2-2 6 6-2 2z"/></symbol><symbol viewBox="0 0 32 32" id="shape-facebook"><title>facebook</title><path d="M17.996 32H12V16H8v-5.514l4-.002-.007-3.248c0-4.498 1.22-7.236 6.52-7.236h4.41v5.515h-2.756c-2.064 0-2.163.77-2.163 2.21l-.008 2.76h4.96l-.585 5.513L18 16l-.003 16z"/></symbol><symbol viewBox="0 0 32 32" id="shape-feed"><title>feed</title><path d="M4.26 23.467C1.91 23.467 0 25.384 0 27.72c0 2.348 1.91 4.243 4.26 4.243 2.357 0 4.264-1.895 4.264-4.244 0-2.337-1.907-4.253-4.265-4.253zM.004 10.873v6.133c3.993 0 7.75 1.562 10.577 4.39 2.825 2.823 4.384 6.596 4.384 10.604h6.16c0-11.65-9.478-21.127-21.12-21.127zM.012 0v6.136C14.255 6.136 25.848 17.74 25.848 32H32C32 14.36 17.648 0 .012 0z"/></symbol><symbol viewBox="0 0 24 24" id="shape-group"><title>group</title><path d="M15 14.363s-6.182 0-8.5 5.41c0 0 3.87 1.545 8.5 1.545s8.5-1.545 8.5-1.545c-2.318-5.41-8.5-5.41-8.5-5.41zm0-.77c2.318 0 3.863-2.32 3.863-6.184S15 3.544 15 3.544s-3.863 0-3.863 3.864S12.682 13.59 15 13.59zm-7.5-2.638c.762 0 1.416-.316 1.935-.885-.192-.777-.298-1.665-.298-2.66 0-1.486.57-2.397 1.274-2.96C9.646 2.687 7.5 2.683 7.5 2.683s-3.182 0-3.182 3.182 1.273 5.09 3.182 5.09zm3 2.494l-.108-1.26c-1.558-.595-2.892-.6-2.892-.6s-5.09 0-7 4.456c0 0 2.46.98 5.645 1.22C8.918 14.363 10.5 13.45 10.5 13.45z"/></symbol><symbol viewBox="0 0 17.2 20" id="shape-hangouts"><title>hangouts</title><path d="M8.6 0C3.9 0 0 3.8 0 8.5S3.8 17 8.6 17v3c3.4-1.7 8.6-5.3 8.6-11.5 0-4.7-3.8-8.5-8.6-8.5zm-1 9.7c0 1.3-1 2.4-2.3 2.5-.1 0-.2-.1-.2-.2v-.9c0-.1.1-.2.2-.2.5-.1.9-.5 1-1h-2c-.4 0-.7-.3-.7-.7V6.7c0-.4.3-.7.7-.7h2.5c.4 0 .7.3.7.7.1 0 .1 3 .1 3zm6 0c0 1.3-1 2.4-2.3 2.5-.1 0-.2-.1-.2-.2v-.9c0-.1.1-.2.2-.2.5-.1.9-.5 1-1h-2c-.4 0-.7-.3-.7-.7V6.7c0-.4.3-.7.7-.7h2.5c.4 0 .7.3.7.7.1 0 .1 3 .1 3z"/></symbol><symbol viewBox="0 0 306.5 279" id="shape-hook"><title>hook</title><path fill="#2580AA" d="M306.5 0H300L172.6 124.7c-.3-.2-.6-.5-.9-.7-6.5-4.2-15.2-2.3-19.3 4.1-3.3 5.1-2.2 11.9.6 16l-60.3 95.4-.1.4c-.1.2-12.8 23.5-33.1 28.7-9.7 2.5-19.7.5-29.8-6.1-11.6-7.5-18.4-16.8-20-27.6-1.3-8.4.6-16.7 3.4-23.9.6 6.3 2.8 12.7 7.8 18l6.8-6.4c-10.9-11.6-2.4-32.8-2.3-33L36.8 162l-19.3 23c-.9 1-21 25.2-17 51.3 2 13.6 10.2 25.1 24.2 34.1 12.4 8 24.9 10.4 37.1 7.2 23.4-6.1 37.2-30.8 38.7-33.2l60.2-95.3c4.9.9 11.7-.9 15-5.9 3-4.7 2.9-10.4.2-14.8L306.5 0zM168.1 138.3c-1.4 2.2-4.3 2.8-6.4 1.4-2.2-1.4-2.8-4.3-1.4-6.4 1.4-2.2 4.3-2.8 6.4-1.4 2.1 1.4 2.8 4.2 1.4 6.4z"/></symbol><symbol viewBox="0 0 30 28" id="shape-html-and-css"><title>html-and-css</title><path d="M9.64 21.86l-.78.78q-.156.156-.36.156t-.358-.156l-7.28-7.28Q.704 15.202.704 15t.156-.36l7.282-7.28q.156-.156.36-.156t.358.156l.78.78q.157.157.157.36t-.156.36L3.5 15l6.14 6.14q.157.157.157.36t-.156.36zm9.235-16.673L13.047 25.36q-.063.202-.242.304t-.367.04l-.97-.267q-.202-.063-.304-.242t-.04-.383l5.83-20.172q.062-.203.24-.305t.368-.04l.97.267q.202.063.304.242t.04.383zM29.14 15.36l-7.28 7.28q-.156.156-.36.156t-.358-.156l-.78-.78q-.157-.157-.157-.36t.156-.36L26.503 15l-6.14-6.14q-.157-.157-.157-.36t.156-.36l.782-.78q.156-.156.36-.156t.358.156l7.28 7.28q.157.157.157.36t-.156.36z"/></symbol><symbol viewBox="0 0 1052 1052" id="shape-javascript"><title>javascript</title><path d="M0 0v1052h1052V0H0zm554.5 901c-15.5 31.5-45.1 52.2-79.4 62.2-52.7 12.1-103.1 5.2-140.6-17.3-25.1-15.4-44.7-39.1-58-66.4 26.7-16.3 53.3-32.7 80-49 .7.3 2.8 4.1 5.6 9 10.2 17.1 19 29.2 36.3 37.7 17 5.8 54.3 9.5 68.7-20.4 8.8-15.2 6-64.8 6-118.9 0-85 .4-169.4.4-254.4h98.4c0 90.5.5 180.7 0 270.9.2 55.3 5 105.3-17.4 146.6zm408.2-27.8c-34.2 117-224.9 120.8-301.1 43.5-16.1-18.2-26.2-27.7-35.8-48.7 40.5-23.3 40.5-23.3 79.9-46.1 21.4 32.9 41.2 51 76.8 58.4 48.3 5.9 96.9-10.7 86-62-11.2-41.9-98.9-52.1-158.6-96.9-60.6-40.7-74.8-139.6-25-196.1 16.6-20.9 44.9-36.5 74.6-44 10.3-1.3 20.7-2.7 31-4 59.5-1.2 96.7 14.5 124 45 7.6 7.7 13.8 16 25.4 34-31.7 20.2-31.6 20-77 49.4-9.7-20.9-25.8-34-42.8-39.7-26.4-8-59.7.7-66.6 28.6-2.4 8.6-1.9 16.6 1.9 30.8 10.7 24.4 46.6 35 78.8 49.8 92.7 37.6 124 77.9 131.7 125.9 7.4 41.3-1.8 68.1-3.2 72.1z"/></symbol><symbol viewBox="0 0 16 16" id="shape-link"><title>link</title><path d="M5.9 12.7l-.9.8c-.7.7-1.8.7-2.5 0-.3-.3-.5-.8-.5-1.3s.2-.9.5-1.3l3-3c.6-.6 1.8-1.5 2.6-.7.4.4 1 .4 1.4 0s.4-1 0-1.4c-1.4-1.3-3.6-1-5.4.8l-3 3c-.7.7-1.1 1.6-1.1 2.6s.4 1.9 1.1 2.7c.7.7 1.7 1.1 2.7 1.1s1.9-.4 2.7-1.1l.8-.8c.4-.4.4-1 0-1.4-.4-.4-1.1-.4-1.4 0zm9-11.5C13.3-.3 11.2-.4 9.8 1l-1 1c-.4.4-.4 1 0 1.4s1 .4 1.4 0l1-1c.7-.7 1.7-.4 2.3.2.3.3.5.8.5 1.3s-.2.9-.5 1.3l-3.2 3.2c-1.4 1.3-2.1.6-2.4.3-.4-.4-1-.4-1.4 0s-.4 1 0 1.4c.7.7 1.4 1 2.2 1 1 0 2-.5 3-1.5l3.2-3.2c.7-.6 1.1-1.5 1.1-2.5s-.4-2-1.1-2.7z"/></symbol><symbol viewBox="0 0 75 58.5" id="shape-news"><title>news</title><path d="M70.9 54.4H4.1V12.3h4.1v37.9h4.1V4.1h58.5l.1 50.3zM8.2 0v8.2H0v50.3h75V0H8.2z"/><path d="M16.4 8.2h23.9v19H16.4zM44.5 8.2h22.3v3.6H44.5zM44.5 15.9h22.3v3.6H44.5zM44.5 23.6h22.3v3.6H44.5zM16.4 31.3h50.3v3.6H16.4zM16.4 39h50.3v3.6H16.4zM16.4 46.7h50.3v3.6H16.4z"/></symbol><symbol viewBox="0 0 32 32" id="shape-office"><title>office</title><path d="M0 32h16V0H0v32zM10 4h4v4h-4V4zm0 8h4v4h-4v-4zm0 8h4v4h-4v-4zM2 4h4v4H2V4zm0 8h4v4H2v-4zm0 8h4v4H2v-4zm16-10h14v2H18v-2zm0 22h4v-8h6v8h4V14H18v18z"/></symbol><symbol viewBox="0 0 15.6 15.6" id="shape-pencil"><title>pencil</title><path d="M14.4 1.2C12.9-.2 11.8 0 11.8 0L1 10.8l-1 4.8 4.8-1L15.6 3.8s.2-1.1-1.2-2.6zM4.5 14l-1.6.4c-.2-.3-.3-.6-.7-.9s-.6-.5-.9-.7l.4-1.6.5-.5s.9 0 1.9 1c1 1 1 1.9 1 1.9l-.6.4z"/></symbol><symbol viewBox="0 0 32 30" id="shape-performance"><title>performance</title><path d="M16 0c8.8 0 16 7.2 16 16 0 6-3.3 11.3-8.2 14H8.2C3.3 27.3 0 22 0 16 0 7.2 7.2 0 16 0zm9.1 25.1c2.4-2.4 3.8-5.6 3.8-9.1H26v-2h2.7c-.2-1.4-.7-2.8-1.3-4H24V8h2c-.3-.4-.6-.7-.9-1.1-1.4-1.4-3.2-2.5-5.1-3.1V6h-2V3.3c-.7-.1-1.3-.2-2-.2s-1.3.1-2 .2V6h-2V3.8c-1.9.6-3.6 1.7-5.1 3.1-.3.4-.6.7-.9 1.1h2v2H4.7c-.7 1.2-1.1 2.6-1.3 4H6v2H3.2c0 3.4 1.3 6.6 3.8 9.1.3.3.7.6 1 .9h6l1.1-16h1.7L18 26h6c.4-.3.7-.6 1.1-.9z"/></symbol><symbol viewBox="0 0 32 32" id="shape-person"><title>person</title><path d="M32 6.076c-1.177.522-2.443.875-3.77 1.034 1.354-.813 2.395-2.1 2.886-3.632-1.27.752-2.674 1.3-4.17 1.593C25.75 3.796 24.044 3 22.157 3c-3.627 0-6.566 2.94-6.566 6.565 0 .515.058 1.016.17 1.496-5.456-.275-10.294-2.89-13.532-6.86-.565.97-.89 2.096-.89 3.3 0 2.278 1.16 4.287 2.922 5.465-1.076-.034-2.088-.33-2.974-.82v.082c0 3.18 2.262 5.834 5.265 6.437-.55.15-1.13.23-1.73.23-.422 0-.833-.04-1.234-.118.835 2.608 3.26 4.506 6.133 4.56-2.248 1.76-5.08 2.81-8.155 2.81-.53 0-1.052-.032-1.566-.093 2.904 1.863 6.355 2.95 10.063 2.95 12.076 0 18.68-10.004 18.68-18.68 0-.285-.007-.568-.02-.85C30.006 8.55 31.12 7.394 32 6.077z"/></symbol><symbol viewBox="0 0 32 32" id="shape-quotes-left"><title>quotes-left</title><path d="M7.03 14c3.867 0 7 3.134 7 7s-3.133 7-7 7c-3.865 0-7-3.134-7-7L0 20C0 12.268 6.268 6 14 6v4c-2.67 0-5.182 1.04-7.07 2.93-.365.363-.696.75-.996 1.156C6.29 14.03 6.658 14 7.03 14zm18 0c3.867 0 7 3.134 7 7s-3.133 7-7 7c-3.865 0-7-3.134-7-7L18 20c0-7.732 6.268-14 14-14v4c-2.67 0-5.182 1.04-7.07 2.93-.365.363-.696.75-.996 1.156.358-.056.724-.086 1.097-.086z"/></symbol><symbol viewBox="0 0 412 247.7" id="shape-responsive-design"><title>responsive-design</title><path d="M215.2 232.2c-5.2-3.8-5.8-9.6-5.8-9.6l-2-12.5h-62.2l-2 12.5s-.5 5.7-5.7 9.6c-5.2 3.8-9.3 7.1-5.2 7.7 4 .5 41.3 0 44 0 2.8 0 40.1.5 44 0 4.2-.5.1-3.8-5.1-7.7zM70.5 127.6c0-5.8-4.7-10.5-10.5-10.5H10.5c-5.8 0-10.5 4.7-10.5 10.5v109.7c0 5.8 4.7 10.5 10.5 10.5h49.6c5.8 0 10.5-4.7 10.5-10.5l-.1-109.7zm-40.4 1.3h10.5c.7 0 1.3.6 1.3 1.3 0 .7-.6 1.3-1.3 1.3H30.1c-.7 0-1.3-.6-1.3-1.3 0-.8.6-1.3 1.3-1.3zm4.8 112.6c-2.9 0-5.2-2.3-5.2-5.2 0-2.9 2.3-5.2 5.2-5.2 2.9 0 5.2 2.3 5.2 5.2 0 2.9-2.3 5.2-5.2 5.2zM64 226.8H6.5v-87.5H64v87.5zM397.3 57H289.8c-8.1 0-14.7 6.6-14.7 14.7v153.9c0 8.1 6.6 14.7 14.7 14.7h107.5c8.1 0 14.7-6.6 14.7-14.7V71.7c0-8.1-6.6-14.7-14.7-14.7zm-74.8 175c-4 0-7.3-3.3-7.3-7.3s3.3-7.3 7.3-7.3 7.3 3.3 7.3 7.3c.1 4-3.2 7.3-7.3 7.3zm21.1 0c-4 0-7.3-3.3-7.3-7.3s3.3-7.3 7.3-7.3c4.1 0 7.3 3.3 7.3 7.3s-3.3 7.3-7.3 7.3zm21.1 0c-4.1 0-7.3-3.3-7.3-7.3s3.3-7.3 7.3-7.3 7.3 3.3 7.3 7.3-3.3 7.3-7.3 7.3zm38.1-21.1H284.4v-141h118.5v141h-.1zM308.5 44.6h18V12c0-6.6-5.4-12-12-12H38.3c-6.6 0-12 5.4-12 12v92.7h18V18h264.3v26.6h-.1zM82.9 162.2v36h179.9v-36H82.9zm93.5 26.2c-4.5 0-8.2-3.7-8.2-8.2 0-4.5 3.7-8.2 8.2-8.2 4.5 0 8.2 3.7 8.2 8.2.1 4.5-3.6 8.2-8.2 8.2z"/></symbol><symbol viewBox="0 0 69.8 52" id="shape-salmon"><title>salmon</title><path fill-rule="evenodd" clip-rule="evenodd" d="M35.4 46.8c-.4 0-.4-.6 0-.6s.5.6 0 .6zm25.9-2.1c0-.1-.1-.3-.1-.4-.1-.2-.1-.5-.2-.7v-.1-.1s0-.1-.1-.1c-.1-.1-.2-.1-.4-.2-.3-.1-.6 0-.9.1-.4.1-.8.2-1.2.4 0 0-.1 0-.1.1-.1 0-.2.1-.3.1-.3.2-.6.2-.9.4-.2.1-.4.1-.6.2h-.1c-.2.1-.3.1-.5.1h-.2-.1c-.7.1-1.3.1-2 .1-.3 0-.6-.1-1-.1.4-.1.7-.2 1.1-.2.3-.1.6-.2.7-.5.1-.1.1-.2 0-.3-.1-.2-.2-.5-.4-.7-.2-.3-.5-.6-.8-.8-.3-.3-.7-.6-1.1-.8-.6-.2-1.2-.1-1.6.3-.7.5-1.5.8-2.1 1.3-.1.1-.2.1-.3 0-.1-.4-.3-.2-.5-.2-.2.1-.3.1-.4-.1 0 0 0-.1-.1-.1 0 0 0-.1-.1-.1v-.1-.1-.1c-.2 0-.2-.1-.3-.2 0-.2-.1-.3 0-.5 0-.1 0-.2-.1-.1h-.1c-.2.1-.4.1-.7 0-.1 0-.1-.1 0-.2 0-.2.1-.3.2-.5-.2 0-.2.1-.3.2-.3.2-.7.1-.7-.3 0-.1 0-.2-.1-.2s-.2.1-.2.1c-.5.5-.9 1.1-1.2 1.7 0 .1-.1.2-.2.2-.1-.1-.1-.2-.2-.3 0 .1-.1.1-.2.2l-.3.3-.2.2c0 .1-.2.1-.3.1l-1.5.3c-1.3.3-2.5.8-3.6 1.6-.8.6-1.8 1.1-2.8 1.3-.3.1-.6.2-.8.3l-.2.2c-.3.3.2.8.4 1.1l.1.1.6.3c.3.1.5.3.8.4h.1s.1 0 .1.1h.1c.1 0 .1 0 .2.1.6.1 1.1.3 1.7.5h.2c.8.3 1.7.5 2.5.6.3 0 .5.1.7.3l.4.4c.5.5 1.1.8 1.6 1.1.2.2.5.3.7.3.5 0 .7-.1.6-.5v-1.1c0-.3-.1-.4-.4-.5-.1 0-.2 0-.3-.1.3-.1.6 0 .9 0 1.1 0 2.2-.1 3.3-.1 1.2 0 2.4-.2 3.5.3 0-.3 0-.3.3-.3.7.1 1.4.2 2 .3h.7c.5-.1.8-.3.8-.8 0-.3-.1-.6-.2-.8 0-.1-.1-.1-.2-.2-.3-.1-.6-.3-1-.3.8-.3 1.6-.5 2.5-.3.8.3 1.6.5 2.4.8.6.2 1.3.4 1.9.4.3 0 .5-.1.7-.3v-.1c0-.1.1-.2.1-.3v-.2c0-.1 0-.2.1-.3v-.2c.5-.7.4-1.5.2-2.4zM2.2 16.5c-.4 0-.4-.6 0-.6s.4.6 0 .6zm25.8-2c0-.1-.1-.3-.1-.4-.1-.2-.1-.5-.2-.7v-.1-.1s0-.1-.1-.1c-.1-.1-.2-.1-.4-.1-.3-.1-.6 0-.9.1-.4.1-.8.2-1.2.4 0 0-.1 0-.1.1-.1 0-.2.1-.3.1-.3.2-.6.2-.9.4-.2.1-.4.1-.6.2h-.1c-.2.1-.3.1-.5.1h-.2-.1c-.7.1-1.3.1-2 .1-.3 0-.6-.1-1-.1.4-.1.7-.2 1.1-.2.3-.1.6-.2.7-.5.1-.1.1-.2 0-.3-.1-.2-.2-.5-.4-.7-.2-.3-.5-.6-.8-.8-.3-.3-.7-.6-1.1-.8-.6-.2-1.2-.1-1.6.3-.7.5-1.5.8-2.1 1.3-.1.1-.2.1-.3 0-.1-.4-.3-.2-.5-.2-.2.1-.3.1-.4-.1 0 0 0-.1-.1-.1 0 0 0-.1-.1-.1v-.1-.1-.1c-.2 0-.2-.1-.3-.2 0-.2-.1-.3 0-.5 0-.1 0-.2-.1-.1h-.1c-.2.1-.4.1-.7 0-.1 0-.1-.1 0-.2 0-.2.1-.3.2-.5-.2 0-.2.1-.3.2-.3.2-.7.1-.7-.3 0-.1 0-.2-.1-.2s-.2.1-.2.1c-.5.5-.9 1.1-1.2 1.7 0 .1-.1.2-.2.2 0 0 0-.1-.1-.2 0 .1-.1.1-.2.2l-.3.3-.2.2c0 .1-.2.1-.3.1l-1.5.3c-1.3.3-2.5.8-3.6 1.6-.8.6-1.8 1.1-2.8 1.3-.3.1-.6.2-.8.3l-.2.2c-.3.3.2.8.4 1.1l.1.1.6.3c.3.1.5.3.8.4H2s.1 0 .1.1h.1c.1 0 .1 0 .2.1.6.1 1.1.3 1.7.5h.2c.8.3 1.7.5 2.5.6.3 0 .5.1.7.3l.4.4c.5.5 1.1.8 1.6 1.1.2.2.5.3.7.3.5 0 .7-.1.6-.5-.1-.4 0-.8 0-1.1 0-.3-.1-.4-.4-.5-.1 0-.2 0-.3-.1.3-.1.6 0 .9 0 1.1 0 2.2-.1 3.3-.1 1.2 0 2.4-.2 3.5.3 0-.3 0-.3.3-.3.7.1 1.4.2 2 .3h.7c.5-.1.8-.3.8-.8 0-.3-.1-.6-.2-.8 0-.1-.1-.1-.2-.2-.3-.1-.6-.3-1-.3.8-.3 1.6-.5 2.5-.3.8.3 1.6.5 2.4.8.6.2 1.3.4 1.9.4.3 0 .5-.1.7-.3v-.1c0-.1.1-.2.1-.3v-.2c0-.1 0-.2.1-.3v-.2c.5-.9.3-1.8.1-2.6zM26.5 24.9c-.6 0-.6-1 0-1s.6 1 0 1zm39.6-3.1c-.1-.2-.1-.4-.2-.6-.1-.4-.2-.7-.3-1.1 0 0 0-.1-.1-.1 0 0 0-.1-.1-.1 0-.1-.1-.1-.1-.2-.2-.1-.4-.2-.7-.2-.5-.1-.9 0-1.3.1-.6.1-1.2.4-1.9.6h-.1c-.1 0-.1.1-.2.1-.1.1-.3.1-.4.2-.4.2-.9.4-1.4.6-.3.1-.6.2-1 .3h-.1c-.2.1-.5.2-.7.2-.1 0-.2.1-.3.1h-.1c-1 .2-2 .2-3.1.1-.5-.1-1-.1-1.5-.2.6-.2 1.1-.3 1.7-.4.5-.1.9-.3 1.1-.7.1-.1.1-.3.1-.4-.2-.4-.4-.7-.6-1.1-.3-.5-.8-.9-1.2-1.3-.5-.5-1-.9-1.6-1.2-.9-.3-1.8-.2-2.5.4-1 .8-2.3 1.2-3.3 2-.1.1-.3.2-.4 0-.2-.6-.5-.4-.8-.2-.2.1-.4.1-.6-.1 0-.1-.1-.1-.1-.2 0 0-.1-.1-.1-.2v-.1-.1-.1c-.3 0-.4-.1-.4-.3-.1-.2-.1-.5-.1-.7 0-.1 0-.3-.2-.2-.1 0-.1 0-.2.1-.3.1-.7.1-1-.1-.2-.1-.1-.2-.1-.3.1-.3.2-.5.3-.7-.2 0-.4.1-.5.2-.5.4-1 .2-1.1-.5 0-.1 0-.3-.1-.3-.2 0-.3.1-.4.2-.7.8-1.4 1.7-1.8 2.7-.1.1-.1.3-.2.3-.1-.1-.2-.3-.3-.5-.1.1-.1.2-.2.3-.1.1-.3.3-.5.4-.1.1-.2.2-.2.3-.1.2-.3.2-.4.2-.8.1-1.6.2-2.4.4-2 .4-3.8 1.2-5.5 2.4-1.3.9-2.7 1.6-4.2 2-.5.1-.9.2-1.3.5l-.3.3c-.5.5.3 1.3.6 1.7l.1.1c.3.2.6.4.9.5l1.2.6c.1 0 .1 0 .1.1.1 0 .1.1.2.1s.1 0 .2.1c.1 0 .2.1.3.1.9.2 1.7.5 2.6.7h.2c1.3.4 2.5.8 3.9.9.4 0 .8.1 1.1.5l.6.6c.7.7 1.6 1.2 2.4 1.8.3.2.7.5 1.1.5.8 0 1.1-.1 1-.8-.1-.6 0-1.2 0-1.8 0-.5-.1-.6-.6-.8-.1 0-.3-.1-.4-.1.5-.1.9.1 1.4.1 1.7 0 3.3-.1 5-.1 1.8 0 3.6-.3 5.4.4 0-.4.1-.5.5-.4 1 .2 2.1.3 3.1.5.4.1.7.1 1.1 0 .8-.1 1.2-.5 1.2-1.3 0-.4-.2-.9-.3-1.3 0-.2-.2-.2-.4-.3-.5-.2-1-.4-1.5-.4 1.2-.4 2.5-.8 3.8-.4l3.6 1.2c1 .3 1.9.6 3 .5.5 0 .8-.2 1-.5 0 0 0-.1.1-.1.1-.2.1-.3.2-.5v-.1c0-.1.1-.2.1-.3 0-.2.1-.3.1-.5v-.2c.7-1.3.4-2.6.1-3.9zM3.1 39.9c-.5 0-.5-.8 0-.8s.5.8 0 .8zm33.7-2.6c-.1-.2-.1-.4-.1-.5-.1-.3-.1-.6-.2-.9v-.1-.1l-.1-.1c-.1-.1-.3-.2-.6-.2-.4-.1-.8 0-1.1.1-.5.1-1.1.3-1.6.5H33c-.1 0-.1.1-.2.1-.1.1-.2.1-.4.2-.4.2-.8.3-1.2.5-.3.1-.5.2-.8.2h-.1c-.2.1-.4.1-.6.2-.1 0-.2.1-.2.1h-.1c-.9.2-1.7.2-2.6.1-.4-.1-.8-.1-1.3-.2.5-.1 1-.2 1.4-.3.4-.1.7-.3 1-.6.1-.1.1-.2 0-.4-.2-.3-.3-.6-.5-.9-.3-.4-.7-.7-1-1.1-.4-.4-.9-.8-1.4-1-.8-.3-1.5-.2-2.1.4-.9.7-1.9 1-2.8 1.7-.1.1-.3.1-.3 0-.1-.5-.4-.3-.7-.2-.2.1-.4.1-.5-.1 0-.1-.1-.1-.1-.2 0 0-.1-.1-.1-.2v-.1-.1-.1c-.2 0-.3-.1-.4-.3v-.6c0-.1 0-.3-.1-.2h-.2c-.3.1-.6.1-.9-.1-.1-.1-.1-.2-.1-.3l.3-.6c-.2 0-.3.1-.4.2-.4.3-.9.2-1-.4 0-.1 0-.3-.1-.3s-.2.1-.3.2c-.6.7-1.2 1.4-1.5 2.3 0 .1-.1.2-.2.3-.1-.1-.2-.2-.2-.4-.1.2-.2.2-.3.3-.1.1-.2.2-.4.3-.1.1-.2.2-.2.3-.1.1-.2.1-.4.2-.7.1-1.3.2-2 .3-1.7.4-3.3 1.1-4.7 2-1.1.8-2.3 1.4-3.6 1.7-.3.1-.7.3-1 .5-.1.1-.2.2-.3.2-.4.4.2 1.1.5 1.4l.1.1c.2.2.5.3.7.5.3.2.7.3 1 .5 0 0 .1 0 .1.1.1 0 .1.1.2.1s.1 0 .2.1c.1 0 .2 0 .3.1.8.1 1.5.3 2.3.5H6c1.1.3 2.2.7 3.3.8.4 0 .7.1.9.4.1.2.4.4.5.5.6.6 1.4 1 2.1 1.5.3.2.6.4.9.4.7 0 .9-.1.8-.7-.1-.5 0-1 0-1.5 0-.4-.1-.6-.5-.7-.1 0-.2-.1-.3-.1.4-.1.8.1 1.2.1 1.4 0 2.8-.1 4.2-.1 1.5 0 3.1-.3 4.6.4 0-.4 0-.4.4-.4.9.1 1.8.3 2.7.4.3.1.6.1.9 0 .7-.1 1-.4 1-1.1 0-.4-.1-.7-.2-1.1 0-.1-.2-.2-.3-.2-.4-.1-.8-.4-1.3-.4 1.1-.4 2.1-.7 3.2-.3 1 .3 2.1.7 3.1 1 .8.3 1.6.5 2.5.5.4 0 .7-.2.9-.4 0 0 0-.1.1-.1 0-.1.1-.3.2-.4 0-.1 0-.2.1-.3 0-.1.1-.3.1-.4v-.2c.2-1.1 0-2.2-.3-3.3zM35.7 8.4c-.5 0-.5-.8 0-.8s.6.8 0 .8zm33.8-2.6c-.1-.2-.1-.4-.1-.5-.1-.3-.1-.6-.2-.9v-.1-.1l-.1-.1c-.1-.1-.3-.2-.6-.2-.4-.1-.8 0-1.1.1-.5.1-1.1.3-1.6.5h-.1c-.1 0-.1.1-.2.1-.1.1-.2.1-.4.2-.4.2-.8.3-1.2.5-.3.1-.5.2-.8.2H63c-.2.1-.4.1-.6.2-.1 0-.2.1-.2.1h-.1c-.9.2-1.7.2-2.6.1-.4-.1-.8-.1-1.3-.2.5-.1 1-.2 1.4-.3.4-.1.7-.3 1-.6.1-.1.1-.2 0-.4-.3-.4-.4-.7-.6-1-.3-.4-.7-.7-1-1.1-.4-.4-.9-.8-1.4-1-.8-.3-1.5-.2-2.1.4-.9.7-1.9 1-2.8 1.7-.1.1-.3.1-.3 0-.1-.5-.4-.3-.7-.2-.2.1-.4.1-.5-.1 0-.1-.1-.1-.1-.2 0 0-.1-.1-.1-.2v-.1-.1-.1c-.2 0-.3-.1-.4-.3-.1-.2-.1-.4-.1-.6 0-.1 0-.3-.1-.2h-.2c-.3.1-.6.1-.9-.1-.1-.1-.1-.2-.1-.3l.3-.6c-.2 0-.3.1-.4.2-.4.3-.9.2-1-.4 0-.1 0-.3-.1-.3s-.2.1-.3.2c-.6.7-1.2 1.4-1.5 2.3 0 .1-.1.2-.2.3-.1-.1-.2-.2-.2-.4-.1.1-.1.2-.2.2-.1.1-.2.2-.4.3 0 .3-.1.4-.2.5-.1.1-.2.1-.4.2-.7.1-1.3.2-2 .3-1.6.3-3.2 1-4.6 2-1.1.8-2.3 1.4-3.6 1.7-.4.1-.8.2-1.1.4-.1.2-.2.2-.3.3-.4.4.2 1.1.5 1.4l.1.1c.2.2.5.3.7.5.3.2.7.3 1 .5 0 0 .1 0 .1.1.1 0 .1.1.2.1s.1 0 .2.1c.1 0 .2 0 .3.1.7.2 1.5.4 2.2.6h.2c1.1.3 2.2.7 3.3.8.4 0 .7.1.9.4.1.2.4.4.5.5.6.6 1.4 1 2.1 1.5.3.2.6.4.9.4.7 0 .9-.1.8-.7-.1-.5 0-1 0-1.5 0-.4-.1-.6-.5-.7-.1 0-.2-.1-.3-.1.4-.1.8.1 1.2.1 1.4 0 2.8-.1 4.2-.1 1.5 0 3.1-.3 4.6.4 0-.4 0-.4.4-.4.9.1 1.8.3 2.7.4.3.1.6.1.9 0 .7-.1 1-.4 1-1.1 0-.4-.1-.7-.2-1.1 0-.1-.2-.2-.3-.2-.4-.1-.8-.4-1.3-.4 1.1-.4 2.1-.7 3.2-.3 1 .3 2.1.7 3.1 1 .8.3 1.6.5 2.5.5.4 0 .7-.2.9-.4 0 0 0-.1.1-.1.1-.1.1-.3.2-.4 0-.1 0-.2.1-.3 0-.1.1-.3.1-.4v-.2c.3-1.2.1-2.3-.1-3.4z"/></symbol><symbol viewBox="0 0 142.5 85.7" id="shape-scallop"><title>scallop</title><path d="M86 64c-.4-4.6-.7-9.3-1.1-13.9-2.2 1.9-4.3 3.8-6.4 5.7 2.5 2.7 4.9 5.5 7.5 8.2zm15.2 17c2.1-1.9 4.2-3.8 6.4-5.7-4.6-.9-9.2-1.7-13.8-2.5 2.5 2.7 5 5.5 7.4 8.2zM141.7 41.8c.8 3.3 1 6.8.4 10.2l-.1.2c-11.8 4.1-38.2 12.1-50.3 16 11.6-2.8 37.9-9.5 49.5-12.3-1.1 3.5-2.8 6.9-4.8 10-10 .9-34.7 2.1-44.6 3 9.3.2 33.3-.2 42.6-.1-1.9 2.8-4.2 5.6-7.3 7.2-1.5.8-3.3 1.2-4.9.9-10.6-2-21.2-3.9-31.8-5.8-1.7-.3-2.9-1.8-3-3.5-.7-10.5-1.4-21.1-2.3-31.6-.3-2.2.8-4.4 2.2-6.2 1.9-2.4 4.6-4.2 7.2-5.8-1 9.5-4.1 32.8-5 42.3 2-10.1 6.1-33.9 8.1-44 3.3-1.7 6.9-3 10.5-3.7-4 11.3-13.9 36.7-18 47.9.7-1.6 7.1-16.1 7.6-17.1 4.8-10.3 9.4-20.8 14.2-31.2 3.5-.1 7.1.4 10.2 1.8-6.3 9.7-12.9 19.2-19.2 28.9-1.1 1.7-9 13-12.2 17.9 3.3-4.5 12.1-15.7 13.4-17.3 7.2-9.4 14-18.8 21.2-28.1 2.9 1.7 5.1 3.2 7.3 5.6-9.8 9.4-18 18.3-27.8 27.6-.1.2-13.7 12.6-13.7 12.6s22.5-18.3 27.3-22.4c5.8-4.8 11.3-9.8 17.1-14.6 2.2 2.5 3.7 5.2 5.1 8.3-.7.5-1.4 1-2.1 1.4-10.6 6.5-21.3 12.6-31.9 19.1-.6.3-13.9 8-15 8.7"/><path d="M101.2 81c-2.5-2.7-4.9-5.5-7.4-8.3 4.6.8 9.2 1.7 13.8 2.5-2.1 2-4.2 3.9-6.4 5.8zM86 64c-2.5-2.7-5-5.5-7.5-8.2 2.2-1.9 4.2-3.8 6.4-5.7.3 4.6.7 9.2 1.1 13.9z"/><g><path d="M43.5 14c2.1-2.2 4.2-4.3 6.3-6.5-1.8-.2-3.7-.4-5.5-.7-.2 2.5-.5 4.8-.8 7.2zm-1.7 14.7c1.8.2 3.6.4 5.5.6-1.5-2.6-3.1-5.2-4.6-7.7-.3 2.3-.6 4.7-.9 7.1zM78 31.4c-1.2 1.8-2.8 3.4-4.7 4.6h-.2c-7-4-22.1-13.3-29.2-17.4C50.2 23 64.7 32.8 71 37.2c-2.2 1-4.5 1.6-6.9 1.9-4.7-4.4-15.8-15.8-20.5-20.3 3.9 4.6 14.3 16 18.2 20.5-2.2.3-4.5.4-6.6-.5-1-.4-2-1.1-2.5-2-3.5-6-7.2-11.9-10.7-17.8-.6-1-.4-2.2.5-2.9 4.8-4.8 9.6-9.7 14.3-14.6.9-1.1 2.5-1.5 3.9-1.6 2-.1 4 .4 5.8 1C61.5 4.6 49 13 44 16.6c5.7-3.3 19-11.5 24.7-14.8 2.2.9 4.4 2 6.2 3.5-7.2 2.9-23.6 8.9-30.8 11.8 1.1-.3 10.8-3.4 11.5-3.6 7-2.1 14.1-4.3 21.1-6.4 1.6 1.7 2.8 3.6 3.5 5.7-7.4 1.1-14.7 1.9-22.1 3-1.3.2-10.1 1.2-13.8 1.8 3.5-.3 12.8-.9 14-.9 7.6-.5 15-1.3 22.6-1.8.4 2.1.6 3.8.4 5.9-8.7-.7-16.5-.9-25.2-1.6-.2 0-11.9-1.2-11.9-1.2s18.4 3 22.4 3.6c4.8.8 9.5 1.3 14.3 2-.3 2.1-.9 4-1.8 6-.5-.1-1.1-.3-1.6-.4-7.6-2.3-15.2-4.9-22.8-7.2-.4-.1-9.8-3.3-10.6-3.5"/><path d="M41.8 28.7c.3-2.4.5-4.7.8-7.1 1.6 2.6 3.1 5.1 4.6 7.7-1.7-.2-3.6-.4-5.4-.6zM43.5 14c.2-2.4.5-4.7.8-7.1 1.8.2 3.7.4 5.5.7-2.1 2.1-4.2 4.3-6.3 6.4z"/></g><g><path d="M47 82.8c-2.4-.2-4.7-.5-7.1-.8.7 1.3 1.5 2.5 2.3 3.7 1.6-1 3.2-1.9 4.8-2.9zm10-6.1c-.8-1.2-1.5-2.5-2.3-3.7-.9 2.2-1.7 4.4-2.6 6.6 1.7-.9 3.3-1.9 4.9-2.9zM41.1 52.9c1.7-.1 3.5.1 5.1.7l.1.1c.9 6.3 2.5 20.2 3.3 26.6-.3-6-1.2-19.8-1.5-25.9 1.7.9 3.2 2 4.5 3.3-.5 5.1-2.2 17.5-2.7 22.6 1-4.6 3-16.6 3.9-21.3 1.2 1.2 2.4 2.6 2.9 4.3.2.8.3 1.8 0 2.5-2 5.1-3.9 10.2-5.9 15.3-.3.8-1.2 1.3-2 1.1-5.3-.6-10.7-1.3-16-1.8-1.1-.1-2.1-.8-2.9-1.7-1-1.2-1.7-2.7-2.2-4.1 4.7 1.4 16 5.1 20.6 6.4-4.9-1.9-16.4-6.2-21.2-8.1-.5-1.8-.9-3.7-.9-5.6 5.3 3.1 17 10.4 22.3 13.4-.7-.5-7.4-5-7.9-5.4-4.7-3.3-9.5-6.6-14.3-10 .3-1.8.9-3.5 1.8-4.9 4.3 4.1 8.4 8.2 12.7 12.3.7.7 5.7 5.7 7.8 7.7-1.9-2.1-6.7-7.5-7.4-8.3-4-4.5-8.1-8.7-12.1-13.2 1.1-1.3 2.1-2.2 3.5-3.1 3.8 5.7 7.4 10.7 11.2 16.4.1.1 5 8 5 8S42 67.5 40.4 64.8c-1.9-3.3-3.9-6.5-5.7-9.9 1.5-.8 2.9-1.4 4.6-1.8.2.4.3.8.5 1.2 2.3 5.9 4.3 11.8 6.6 17.7.1.3 2.7 7.7 3 8.3"/><path d="M57 76.7c-1.6 1-3.2 2-4.8 2.9.8-2.2 1.7-4.4 2.6-6.6.7 1.2 1.4 2.5 2.2 3.7zM47 82.8l-4.8 3c-.7-1.2-1.5-2.5-2.3-3.7 2.4.2 4.8.4 7.1.7z"/></g><g><path d="M2.9 34c0-1.9-.1-3.8-.1-5.7-1 .7-1.9 1.5-2.8 2.2 1 1.2 1.9 2.4 2.9 3.5zm5.8 7.4c.9-.7 1.8-1.5 2.7-2.2-1.9-.5-3.7-.9-5.6-1.4 1 1.2 2 2.4 2.9 3.6zM26.2 26.3c.2 1.4.3 2.8-.1 4.2l-.1.1C21.1 32 10.1 34.7 5 36c4.8-.9 15.8-3 20.6-3.9-.5 1.4-1.3 2.7-2.2 4-4.1.1-14.3 0-18.4.2 3.8.3 13.6.7 17.5 1-.8 1.1-1.9 2.2-3.2 2.8-.6.3-1.4.4-2 .2-4.3-1.1-8.6-2.1-12.9-3.1-.7-.2-1.2-.8-1.1-1.5 0-4.3-.1-8.7-.2-13-.1-.9.4-1.8 1-2.5.8-1 2-1.6 3.1-2.2-.5 3.7-2.4 13.1-3 17 1.1-4.1 3.3-13.7 4.4-17.8 1.4-.6 2.9-1.1 4.4-1.3-1.9 4.5-6.6 14.7-8.5 19.2.3-.6 3.3-6.4 3.5-6.8 2.2-4.1 4.4-8.3 6.5-12.4 1.4 0 2.9.3 4.1 1-2.8 3.8-5.7 7.5-8.6 11.4-.5.7-4 5.1-5.4 7.1 1.4-1.8 5.3-6.2 5.9-6.8 3.2-3.7 6.2-7.4 9.4-11 1.1.8 2 1.4 2.9 2.5-4.2 3.6-7.8 7.1-12 10.7-.1.1-5.9 4.8-5.9 4.8s9.6-7 11.7-8.5c2.5-1.8 4.9-3.8 7.3-5.6.8 1.1 1.4 2.2 1.9 3.5-.3.2-.6.4-.9.5-4.5 2.4-9 4.7-13.5 7.1-.2.1-5.9 3-6.4 3.2"/><path d="M8.7 41.4c-1-1.2-1.9-2.4-2.8-3.6 1.9.4 3.7.9 5.6 1.4-.9.7-1.9 1.5-2.8 2.2zM2.9 34c-1-1.2-1.9-2.4-2.9-3.5.9-.7 1.8-1.5 2.8-2.2 0 1.9 0 3.8.1 5.7z"/></g></symbol><symbol viewBox="0 0 142.5 85.7" id="shape-shrimp"><title>shrimp</title><path d="M86 64c-.4-4.6-.7-9.3-1.1-13.9-2.2 1.9-4.3 3.8-6.4 5.7 2.5 2.7 4.9 5.5 7.5 8.2zm15.2 17c2.1-1.9 4.2-3.8 6.4-5.7-4.6-.9-9.2-1.7-13.8-2.5 2.5 2.7 5 5.5 7.4 8.2zM141.7 41.8c.8 3.3 1 6.8.4 10.2l-.1.2c-11.8 4.1-38.2 12.1-50.3 16 11.6-2.8 37.9-9.5 49.5-12.3-1.1 3.5-2.8 6.9-4.8 10-10 .9-34.7 2.1-44.6 3 9.3.2 33.3-.2 42.6-.1-1.9 2.8-4.2 5.6-7.3 7.2-1.5.8-3.3 1.2-4.9.9-10.6-2-21.2-3.9-31.8-5.8-1.7-.3-2.9-1.8-3-3.5-.7-10.5-1.4-21.1-2.3-31.6-.3-2.2.8-4.4 2.2-6.2 1.9-2.4 4.6-4.2 7.2-5.8-1 9.5-4.1 32.8-5 42.3 2-10.1 6.1-33.9 8.1-44 3.3-1.7 6.9-3 10.5-3.7-4 11.3-13.9 36.7-18 47.9.7-1.6 7.1-16.1 7.6-17.1 4.8-10.3 9.4-20.8 14.2-31.2 3.5-.1 7.1.4 10.2 1.8-6.3 9.7-12.9 19.2-19.2 28.9-1.1 1.7-9 13-12.2 17.9 3.3-4.5 12.1-15.7 13.4-17.3 7.2-9.4 14-18.8 21.2-28.1 2.9 1.7 5.1 3.2 7.3 5.6-9.8 9.4-18 18.3-27.8 27.6-.1.2-13.7 12.6-13.7 12.6s22.5-18.3 27.3-22.4c5.8-4.8 11.3-9.8 17.1-14.6 2.2 2.5 3.7 5.2 5.1 8.3-.7.5-1.4 1-2.1 1.4-10.6 6.5-21.3 12.6-31.9 19.1-.6.3-13.9 8-15 8.7"/><path d="M101.2 81c-2.5-2.7-4.9-5.5-7.4-8.3 4.6.8 9.2 1.7 13.8 2.5-2.1 2-4.2 3.9-6.4 5.8zM86 64c-2.5-2.7-5-5.5-7.5-8.2 2.2-1.9 4.2-3.8 6.4-5.7.3 4.6.7 9.2 1.1 13.9z"/><g><path d="M43.5 14c2.1-2.2 4.2-4.3 6.3-6.5-1.8-.2-3.7-.4-5.5-.7-.2 2.5-.5 4.8-.8 7.2zm-1.7 14.7c1.8.2 3.6.4 5.5.6-1.5-2.6-3.1-5.2-4.6-7.7-.3 2.3-.6 4.7-.9 7.1zM78 31.4c-1.2 1.8-2.8 3.4-4.7 4.6h-.2c-7-4-22.1-13.3-29.2-17.4C50.2 23 64.7 32.8 71 37.2c-2.2 1-4.5 1.6-6.9 1.9-4.7-4.4-15.8-15.8-20.5-20.3 3.9 4.6 14.3 16 18.2 20.5-2.2.3-4.5.4-6.6-.5-1-.4-2-1.1-2.5-2-3.5-6-7.2-11.9-10.7-17.8-.6-1-.4-2.2.5-2.9 4.8-4.8 9.6-9.7 14.3-14.6.9-1.1 2.5-1.5 3.9-1.6 2-.1 4 .4 5.8 1C61.5 4.6 49 13 44 16.6c5.7-3.3 19-11.5 24.7-14.8 2.2.9 4.4 2 6.2 3.5-7.2 2.9-23.6 8.9-30.8 11.8 1.1-.3 10.8-3.4 11.5-3.6 7-2.1 14.1-4.3 21.1-6.4 1.6 1.7 2.8 3.6 3.5 5.7-7.4 1.1-14.7 1.9-22.1 3-1.3.2-10.1 1.2-13.8 1.8 3.5-.3 12.8-.9 14-.9 7.6-.5 15-1.3 22.6-1.8.4 2.1.6 3.8.4 5.9-8.7-.7-16.5-.9-25.2-1.6-.2 0-11.9-1.2-11.9-1.2s18.4 3 22.4 3.6c4.8.8 9.5 1.3 14.3 2-.3 2.1-.9 4-1.8 6-.5-.1-1.1-.3-1.6-.4-7.6-2.3-15.2-4.9-22.8-7.2-.4-.1-9.8-3.3-10.6-3.5"/><path d="M41.8 28.7c.3-2.4.5-4.7.8-7.1 1.6 2.6 3.1 5.1 4.6 7.7-1.7-.2-3.6-.4-5.4-.6zM43.5 14c.2-2.4.5-4.7.8-7.1 1.8.2 3.7.4 5.5.7-2.1 2.1-4.2 4.3-6.3 6.4z"/></g><g><path d="M47 82.8c-2.4-.2-4.7-.5-7.1-.8.7 1.3 1.5 2.5 2.3 3.7 1.6-1 3.2-1.9 4.8-2.9zm10-6.1c-.8-1.2-1.5-2.5-2.3-3.7-.9 2.2-1.7 4.4-2.6 6.6 1.7-.9 3.3-1.9 4.9-2.9zM41.1 52.9c1.7-.1 3.5.1 5.1.7l.1.1c.9 6.3 2.5 20.2 3.3 26.6-.3-6-1.2-19.8-1.5-25.9 1.7.9 3.2 2 4.5 3.3-.5 5.1-2.2 17.5-2.7 22.6 1-4.6 3-16.6 3.9-21.3 1.2 1.2 2.4 2.6 2.9 4.3.2.8.3 1.8 0 2.5-2 5.1-3.9 10.2-5.9 15.3-.3.8-1.2 1.3-2 1.1-5.3-.6-10.7-1.3-16-1.8-1.1-.1-2.1-.8-2.9-1.7-1-1.2-1.7-2.7-2.2-4.1 4.7 1.4 16 5.1 20.6 6.4-4.9-1.9-16.4-6.2-21.2-8.1-.5-1.8-.9-3.7-.9-5.6 5.3 3.1 17 10.4 22.3 13.4-.7-.5-7.4-5-7.9-5.4-4.7-3.3-9.5-6.6-14.3-10 .3-1.8.9-3.5 1.8-4.9 4.3 4.1 8.4 8.2 12.7 12.3.7.7 5.7 5.7 7.8 7.7-1.9-2.1-6.7-7.5-7.4-8.3-4-4.5-8.1-8.7-12.1-13.2 1.1-1.3 2.1-2.2 3.5-3.1 3.8 5.7 7.4 10.7 11.2 16.4.1.1 5 8 5 8S42 67.5 40.4 64.8c-1.9-3.3-3.9-6.5-5.7-9.9 1.5-.8 2.9-1.4 4.6-1.8.2.4.3.8.5 1.2 2.3 5.9 4.3 11.8 6.6 17.7.1.3 2.7 7.7 3 8.3"/><path d="M57 76.7c-1.6 1-3.2 2-4.8 2.9.8-2.2 1.7-4.4 2.6-6.6.7 1.2 1.4 2.5 2.2 3.7zM47 82.8l-4.8 3c-.7-1.2-1.5-2.5-2.3-3.7 2.4.2 4.8.4 7.1.7z"/></g><g><path d="M2.9 34c0-1.9-.1-3.8-.1-5.7-1 .7-1.9 1.5-2.8 2.2 1 1.2 1.9 2.4 2.9 3.5zm5.8 7.4c.9-.7 1.8-1.5 2.7-2.2-1.9-.5-3.7-.9-5.6-1.4 1 1.2 2 2.4 2.9 3.6zM26.2 26.3c.2 1.4.3 2.8-.1 4.2l-.1.1C21.1 32 10.1 34.7 5 36c4.8-.9 15.8-3 20.6-3.9-.5 1.4-1.3 2.7-2.2 4-4.1.1-14.3 0-18.4.2 3.8.3 13.6.7 17.5 1-.8 1.1-1.9 2.2-3.2 2.8-.6.3-1.4.4-2 .2-4.3-1.1-8.6-2.1-12.9-3.1-.7-.2-1.2-.8-1.1-1.5 0-4.3-.1-8.7-.2-13-.1-.9.4-1.8 1-2.5.8-1 2-1.6 3.1-2.2-.5 3.7-2.4 13.1-3 17 1.1-4.1 3.3-13.7 4.4-17.8 1.4-.6 2.9-1.1 4.4-1.3-1.9 4.5-6.6 14.7-8.5 19.2.3-.6 3.3-6.4 3.5-6.8 2.2-4.1 4.4-8.3 6.5-12.4 1.4 0 2.9.3 4.1 1-2.8 3.8-5.7 7.5-8.6 11.4-.5.7-4 5.1-5.4 7.1 1.4-1.8 5.3-6.2 5.9-6.8 3.2-3.7 6.2-7.4 9.4-11 1.1.8 2 1.4 2.9 2.5-4.2 3.6-7.8 7.1-12 10.7-.1.1-5.9 4.8-5.9 4.8s9.6-7 11.7-8.5c2.5-1.8 4.9-3.8 7.3-5.6.8 1.1 1.4 2.2 1.9 3.5-.3.2-.6.4-.9.5-4.5 2.4-9 4.7-13.5 7.1-.2.1-5.9 3-6.4 3.2"/><path d="M8.7 41.4c-1-1.2-1.9-2.4-2.8-3.6 1.9.4 3.7.9 5.6 1.4-.9.7-1.9 1.5-2.8 2.2zM2.9 34c-1-1.2-1.9-2.4-2.9-3.5.9-.7 1.8-1.5 2.8-2.2 0 1.9 0 3.8.1 5.7z"/></g></symbol><symbol viewBox="0 0 68.3 32.2" id="shape-tuna"><title>tuna</title><path d="M5.5 14.4c0-.5.4-.9.9-.9s.9.4.9.9-.3.9-.9.9c-.5 0-.9-.4-.9-.9zM.1 17.9c.6.6 5.8 3.9 5.8 3.9 4.4 2.5 12.1 3.9 12.1 3.9 1.2 4.9 3.4 6.3 3.4 6.3.6-.8 1-3.3 1-3.3 1 .6 2.4.8 2.4.8l-2.1-3.4c7.1 1 14.4-.8 14.4-.8 2.2-.5 4 1.2 4 1.2 4.7 2.6 6.2 2.1 6.2 2.1-2.3-.6-4.7-3.4-4.7-3.4-.9-1.1 1.2-2.3 1.2-2.3 1.8-1 6.2-3.6 6.2-3.6 3.7-2.4 8-3 8-3 1.3-.2 2.7 2 2.7 2 4.1 6 7.7 7 7.7 7-1-1.2-4.3-7.4-4.3-7.4-.8-1.8-.1-3.8-.1-3.8 1.2-3.3 4.5-7.8 4.5-7.8-4.1 1.2-8.6 7.3-8.6 7.3-.6.9-1.8.9-1.8.9-2.1 0-7.8-2.3-7.8-2.3-2-.9-9.1-4-9.1-4-2-.6-1.2-2.3-1.2-2.3 1.8-2.8 4.3-4.1 4.3-4.1-3.3.1-7.4 4-7.4 4-1.2 1.4-2.9.3-2.9.3l-.7-1-1-.1-.4-.4h-.6l-.5-.3H30l-.5-.4-.7.1-.6-.1-1-.1-.4-.3-.8.1-.6-.6h-.7l-.4-.6h-.7l-.4-.6-.8-.4V.6h-.6V0H21c-2.9 3-4 6.7-4 6.7-6.3.9-12 4.7-12 4.7-.8.5-4.3 3.3-4.3 3.3-1 .5 0 1 0 1 .8.2 2.8 1.6 2.8 1.6-.5.2-3 0-3 0-.8-.1-.4.6-.4.6z"/></symbol><symbol viewBox="0 0 32 32" id="shape-twitter"><title>twitter</title><path d="M32 6.076c-1.177.522-2.443.875-3.77 1.034 1.354-.813 2.395-2.1 2.886-3.632-1.27.752-2.674 1.3-4.17 1.593C25.75 3.796 24.044 3 22.157 3c-3.627 0-6.566 2.94-6.566 6.565 0 .515.058 1.016.17 1.496-5.456-.275-10.294-2.89-13.532-6.86-.565.97-.89 2.096-.89 3.3 0 2.278 1.16 4.287 2.922 5.465-1.076-.034-2.088-.33-2.974-.82v.082c0 3.18 2.262 5.834 5.265 6.437-.55.15-1.13.23-1.73.23-.422 0-.833-.04-1.234-.118.835 2.608 3.26 4.506 6.133 4.56-2.248 1.76-5.08 2.81-8.155 2.81-.53 0-1.052-.032-1.566-.093 2.904 1.863 6.355 2.95 10.063 2.95 12.076 0 18.68-10.004 18.68-18.68 0-.285-.007-.568-.02-.85C30.006 8.55 31.12 7.394 32 6.077z"/></symbol><symbol viewBox="0 0 392.7 52.3" id="shape-water"><title>water</title><path fill="#2480A9" d="M373.5 19.9c-5.3 4-12 6.4-19.2 6.4-10.6 0-19.9-5.1-25.7-13.1-5.8 7.9-15.1 13.1-25.7 13.1-8.7 0-16.5-3.5-22.2-9.1-5.7 5.6-13.6 9.1-22.2 9.1-5.8 0-11.2-1.6-15.9-4.3-4.7 2.7-10.1 4.3-15.9 4.3-9 0-17.1-3.7-22.9-9.7-5.8 6-13.9 9.7-22.9 9.7-9.2 0-17.5-3.9-23.3-10.2-5.8 6.3-14.1 10.2-23.3 10.2-7.2 0-13.8-2.4-19.2-6.4-5.3 4-12 6.4-19.2 6.4 0 0-8.1-.8-11.7-2.2.3-1.2.4-2.3.1-2.8-.3-.7-1.6-1.4-2.9-1.7l.3-.9c8.8-9.6-6.6-5-6.6-5s10.5-3.8 9.4-9c-1.2-5.5-9.3-5.9-14-2.8-.5.3-2.9 1.5-5 2.7-2.4-.5-5 0-7.3 1.5-4.5 3-5.8 9.1-2.7 13.6-.5 1.8-6.6 6.5-9.4 6.6-.6-1.9-1.6-4.3-2.6-3.6-.4.3-.7 2-.9 3.6-7.9-.5-15-3.8-20.3-9C17.6 21.8 11.7 24.9 5 26c-1.6.3-3.3.4-5 .4v26h392.7v-26c-7.2 0-13.9-2.4-19.2-6.5zM74.4 8.2c-.8.5-1.8.3-2.3-.5-.5-.8-.3-1.8.5-2.3.8-.5 1.8-.3 2.3.5s.2 1.8-.5 2.3z"/></symbol><symbol viewBox="0 0 28 28" id="shape-wordpress"><title>wordpress</title><path d="M1.984 14q0-2.547 1.047-4.89L8.766 24.81q-3.063-1.484-4.922-4.39t-1.86-6.423zm20.125-.61q0 .298-.04.603t-.156.773-.18.688-.273.922-.272.906l-1.188 4-4.344-12.906q.72-.047 1.375-.125.298-.03.407-.288t-.04-.484-.444-.21l-3.203.155q-1.172-.016-3.156-.156-.187-.016-.32.078t-.18.234-.023.288.142.258.305.125l1.25.126 1.875 5.125-2.625 7.876-4.375-13q.72-.047 1.375-.125.297-.03.406-.288t-.04-.484-.444-.21l-3.204.155q-.11 0-.36-.008t-.405-.008q1.642-2.5 4.29-3.96t5.742-1.462q2.297 0 4.383.828t3.727 2.328h-.156q-.86 0-1.437.634t-.58 1.492q0 .187.032.375t.063.337.125.36.14.327.188.352.195.328.227.375.22.358q.983 1.672.983 3.313zm-7.907 1.657l3.703 10.11q.016.093.078.17-1.97.69-3.984.69-1.75 0-3.39-.5zM24.53 8.234q1.485 2.72 1.485 5.766 0 3.266-1.625 6.023t-4.36 4.352l3.673-10.594q.922-2.64.922-4.31 0-.657-.094-1.235zM14 0q2.844 0 5.437 1.11t4.47 2.983 2.983 4.47T28 13.998t-1.11 5.436-2.984 4.47-4.47 2.983T14 27.997t-5.437-1.11-4.47-2.983-2.983-4.47T0 14 1.11 8.56t2.984-4.47 4.47-2.983T14 0zm0 27.36q2.703 0 5.18-1.063t4.266-2.852 2.852-4.266T27.36 14t-1.062-5.18-2.852-4.267T19.18 1.7 14 .64 8.82 1.7 4.554 4.554 1.702 8.82.64 14t1.062 5.18 2.852 4.265 4.266 2.852T14 27.36z"/></symbol><symbol viewBox="0 0 16 28" id="shape-workflow"><title>workflow</title><path d="M4.5 23q0-.625-.438-1.062T3 21.5t-1.062.438T1.5 23t.438 1.062T3 24.5t1.062-.438T4.5 23zm0-18q0-.625-.438-1.062T3 3.5t-1.062.438T1.5 5t.438 1.062T3 6.5t1.062-.438T4.5 5zm10 2q0-.625-.438-1.062T13 5.5t-1.062.438T11.5 7t.438 1.062T13 8.5t1.062-.438T14.5 7zM16 7q0 .812-.406 1.508T14.5 9.594q-.03 4.484-3.53 6.47-1.063.593-3.173 1.265-2 .624-2.648 1.108T4.5 20v.407q.69.39 1.095 1.086T6 23q0 1.25-.874 2.126T3 26t-2.124-.874T0 23q0-.81.407-1.507T1.5 20.407V7.595Q.814 7.205.408 6.51T0 5q0-1.25.876-2.124T3 2t2.126.876T6 5q0 .813-.405 1.51T4.5 7.594v7.766q.845-.405 2.407-.89.86-.266 1.367-.46t1.102-.485.922-.617.633-.797.44-1.085.132-1.43q-.688-.39-1.094-1.086T10.002 7q0-1.25.875-2.124T13.002 4t2.125.876T16.002 7z"/></symbol></svg>