<?xml version="1.0" encoding="utf-8"?>
<!-- Generator: Adobe Illustrator 18.0.0, SVG Export Plug-In . SVG Version: 6.00 Build 0)  -->
<!DOCTYPE svg PUBLIC "-//W3C//DTD SVG 1.1//EN" "http://www.w3.org/Graphics/SVG/1.1/DTD/svg11.dtd">
<svg version="1.1" id="Layer_1" xmlns="http://www.w3.org/2000/svg" xmlns:xlink="http://www.w3.org/1999/xlink" x="0px" y="0px"
	 viewBox="0 318 900 428" enable-background="new 0 318 900 428" xml:space="preserve">
<path fill="#2480A9" d="M722.9,550.4c-2.1,2.1-5,3.8-7.5,5c-7.5,3.3-15.5,3.3-24.7-0.4c-10.4-4.2-17.1-10.9-20.1-19.2
	c-2.1-6.3-2.1-13.4-0.8-19.6c1.3,5,4.2,9.6,8.8,13.4l4.6-5.8c-10.4-7.5-6.7-25.9-6.7-25.9l5-23.8L669.4,495c-0.4,0.8-13,23-5.8,43.5
	c3.8,10.4,11.7,18.4,24.2,23.4c10.9,4.6,21.3,4.6,30.5,0.4c4.2-2.1,7.9-4.6,10.9-7.9"/>
<g>
	<path fill="#247FA9" d="M30.1,564.8H17.5V546h13v-27.2h23V546h21.7v18.8H53.5v36.8c0,15.5,12.1,18,18.8,18c2.5,0,4.2-0.4,4.2-0.4
		v20.5c0,0-2.9,0.4-7.1,0.4c-13.4,0-39.3-3.8-39.3-35.9C30.1,604.1,30.1,564.8,30.1,564.8z"/>
	<path fill="#247FA9" d="M144.2,579.8h3.3v-1.3c0-12.5-7.9-16.7-18.4-16.7c-13.8,0-25.9,9.2-25.9,9.2L94,553.9
		c0,0,14.6-11.7,37.2-11.7c25.1,0,39.3,13.8,39.3,37.6v59.3h-21.7v-7.9c0-3.8,0.4-6.7,0.4-6.7h-0.4c0,0-7.1,16.7-28.8,16.7
		c-17.1,0-32.2-10.4-32.2-29.7C88.2,581.9,128.7,579.8,144.2,579.8z M126.2,623.3c12.5,0,21.3-13.4,21.3-25.1v-2.1h-4.2
		c-12.1,0-31.8,1.7-31.8,15C112,617.5,116.6,623.3,126.2,623.3z"/>
	<path fill="#247FA9" d="M240.3,542.2c24.7,0,36.4,14.2,36.4,14.2l-10.4,16.3c0,0-10-10.4-24.7-10.4c-17.5,0-28.8,13.4-28.8,29.2
		c0,15.9,11.7,29.7,29.7,29.7c15.9,0,28-12.1,28-12.1l9.2,16.7c0,0-13.8,15.5-39.3,15.5c-31.3,0-51.4-22.1-51.4-49.7
		C188.4,564.8,208.5,542.2,240.3,542.2z"/>
	<path fill="#247FA9" d="M297.1,507.1h23.8v70.6h11.7l23-33.4h26.3l-30.1,42.6v0.4l33.8,52.2h-27.2l-25.1-41.4h-12.1v41.4h-23.8
		V507.1H297.1z"/>
	<path fill="#247FA9" d="M397.8,507.1h23.4v99c0,10.4,3.3,13,9.6,13c1.7,0,3.3,0,3.3,0v20.5c0,0-3.3,0.4-7.5,0.4
		c-13,0-29.2-3.3-29.2-30.5V507.1H397.8z"/>
	<path fill="#247FA9" d="M493.5,542.2c27.2,0,42.2,20.1,42.2,45.1c0,2.9-0.4,9.2-0.4,9.2h-65.6c1.7,16.7,14.2,25.1,28.4,25.1
		c15.5,0,27.2-10.4,27.2-10.4l9.2,17.1c0,0-14.6,13.8-38,13.8c-31.3,0-51-22.6-51-49.7C445.4,562.7,465,542.2,493.5,542.2z
		 M511.8,580.3c-0.4-13-8.4-19.6-18.8-19.6c-12.1,0-20.5,7.5-22.6,19.6H511.8z"/>
	<path fill="#3E3739" d="M555.3,507.1h23.8V548c0,4.6-0.4,7.9-0.4,7.9h0.4c0,0,8.4-13.8,28.4-13.8c25.5,0,42.2,20.5,42.2,49.7
		c0,30.1-18.4,49.7-43.5,49.7c-19.6,0-28.4-14.2-28.4-14.2h-0.4c0,0,0.4,2.9,0.4,6.7v5.4h-22.1V507.1H555.3z M601.7,621.6
		c13,0,23.8-10.4,23.8-29.2c0-18-9.6-29.7-23.8-29.7c-12.1,0-23.8,8.8-23.8,30.1C577.9,607.4,585.8,621.6,601.7,621.6z"/>
	<path fill="#3E3739" d="M714.1,529.4c29.2,0,52.2,20.5,52.2,49.7c0,29.2-23.4,49.7-52.2,49.7c-29.2,0-52.2-20.5-52.2-49.7
		C661.8,550.3,685.2,529.4,714.1,529.4z M714.1,608.8c15.5,0,28-12.1,28-29.7c0-17.5-13-29.7-28-29.7c-15.5,0-28.4,12.1-28.4,29.7
		C685.7,596.7,698.6,608.8,714.1,608.8z"/>
	<path fill="#3E3739" d="M819.4,607c0,0-1.3,2.9-2.5,5l-16.7,27.6h-26.3l31.3-48.1l-30.5-46.8h26.7l14.6,25.9
		c1.7,2.5,3.3,5.8,3.3,5.8h0.4c0,0,1.7-3.3,3.3-5.8l14.6-25.9h26.7L834,591.5l31.3,48.1H839L822.3,612
		C821,609.9,819.8,607,819.4,607L819.4,607z"/>
</g>
<path fill="#2480A9" d="M874.3,304.2l-5.4,0.8l-85,119.6c-0.4,0-0.4-0.4-0.8-0.4c-5.8-2.5-12.5,0.4-14.6,6.3
	c-1.7,4.6,0,9.6,2.9,12.5l-33.8,84.8v0.4c0,0-4.6,13.8-14.6,22.6l6.7,4.2c10-9.6,14.2-22.6,15-24.2l33.8-84.4
	c4.2,0,9.2-2.5,10.9-7.1c1.7-4.2,0.8-8.8-2.1-11.7L874.3,304.2z M778.8,440.3c-3.3,0-5.8-2.5-5.8-5.8s2.5-5.8,5.8-5.8
	s5.8,2.5,5.8,5.8C784.2,437.8,781.7,440.3,778.8,440.3z"/>
<g>
	<path fill="#3E3739" d="M776.2,650.2h5.9c2.9,0,4.9,1.6,4.9,4.3c0,1.7-0.8,3-2.1,3.6l0,0c1.8,0.5,2.8,2.2,2.8,4.1
		c0,3.2-2.5,4.8-5.4,4.8h-6.1L776.2,650.2L776.2,650.2z M782.1,657.4c1.5,0,2.5-1.1,2.5-2.6s-0.9-2.5-2.5-2.5h-3.5v5.1H782.1z
		 M782.4,665.1c1.8,0,2.9-1.1,2.9-2.9c0-1.7-1.1-2.9-2.9-2.9h-3.8v5.8L782.4,665.1L782.4,665.1z"/>
	<path fill="#3E3739" d="M794.8,660l-5.7-9.8h2.7l3.1,5.6c0.5,0.9,1,2.1,1,2.1l0,0c0,0,0.5-1.2,1-2.1l3.1-5.6h2.7L797,660v7.2h-2.4
		V660H794.8z"/>
	<path fill="#3E3739" d="M811.4,650.2h2.4v14.9h7.6v2.1h-9.9L811.4,650.2L811.4,650.2z"/>
	<path fill="#3E3739" d="M832.7,662.3h-6.4l-1.7,4.9h-2.4l6.1-16.9h2.5l6.1,16.9h-2.5L832.7,662.3z M829.5,652.6
		c0,0-0.4,1.5-0.7,2.4l-1.9,5.4h5.1l-1.9-5.4C830,654.1,829.6,652.6,829.5,652.6L829.5,652.6z"/>
	<path fill="#3E3739" d="M839.4,650.2h5.2c1.8,0,2.5,0.1,3.2,0.4c1.7,0.6,2.9,2.3,2.9,4.6c0,2.2-1.2,4-3,4.6l0,0
		c0,0,0.2,0.2,0.5,0.8l3.6,6.6h-2.7l-3.6-6.7h-3.6v6.7h-2.4v-17H839.4z M845.2,658.4c1.8,0,3-1.2,3-3.1c0-1.2-0.5-2.1-1.3-2.6
		c-0.5-0.2-1-0.4-2.3-0.4h-2.7v6.1H845.2z"/>
	<path fill="#3E3739" d="M863.1,662.3h-6.4l-1.7,4.9h-2.4l6.1-16.9h2.5l6.1,16.9h-2.5L863.1,662.3z M859.9,652.6
		c0,0-0.4,1.5-0.7,2.4l-1.9,5.4h5.1l-1.9-5.4C860.4,654.1,860,652.6,859.9,652.6L859.9,652.6z"/>
</g>
</svg>
