<svg xmlns="http://www.w3.org/2000/svg" width="57.3" height="65.3" viewBox="0 0 57.3 65.3"><path d="M45.4 2.4C45.4 1.1 44.3 0 43 0c-1.3 0-2.4 1.1-2.4 2.4v9.5c0 1.3 1.1 2.4 2.4 2.4 1.3 0 2.4-1.1 2.4-2.4V2.4z"/><path d="M51.8 58.6c0 .6-.5 1.2-1.2 1.2H6.7c-.6 0-1.2-.5-1.2-1.2V23.4h46.2l.1 35.2zM50.6 7.8h-3.3v4c0 2.4-2 4.4-4.4 4.4-2.4 0-4.4-2-4.4-4.4v-4H18.7v4c0 2.4-2 4.4-4.4 4.4-2.4 0-4.4-2-4.4-4.4v-4H6.7C3 7.8 0 10.8 0 14.6v44.1c0 3.7 3 6.7 6.7 6.7h43.9c3.7 0 6.7-3 6.7-6.7V14.6c0-3.8-3-6.8-6.7-6.8z"/><path d="M16.8 2.4c0-1.3-1.1-2.4-2.4-2.4C13.1 0 12 1.1 12 2.4v9.5c0 1.3 1.1 2.4 2.4 2.4 1.3 0 2.4-1.1 2.4-2.4V2.4zM41 27.5h5.1v5.3H41zM33.5 27.5h5.1v5.3h-5.1zM26.1 27.5h5.1v5.3h-5.1zM41 34.9h5.1v5.3H41zM33.5 34.9h5.1v5.3h-5.1zM26.1 34.9h5.1v5.3h-5.1zM18.7 34.9h5.1v5.3h-5.1zM11.3 34.9h5.1v5.3h-5.1zM41 42.2h5.1v5.3H41zM33.5 42.2h5.1v5.3h-5.1zM26.1 42.2h5.1v5.3h-5.1zM18.7 42.2h5.1v5.3h-5.1zM11.3 42.2h5.1v5.3h-5.1zM33.5 49.5h5.1v5.3h-5.1zM26.1 49.5h5.1v5.3h-5.1zM18.7 49.5h5.1v5.3h-5.1zM11.3 49.5h5.1v5.3h-5.1z"/></svg>