<svg xmlns="http://www.w3.org/2000/svg" width="59.7" height="59.7" viewBox="0 0 59.7 59.7"><path d="M29.8 55.2c-14 0-25.3-11.4-25.3-25.3 0-14 11.4-25.3 25.3-25.3S55.1 16 55.1 29.9c.1 13.9-11.3 25.3-25.3 25.3zm0-55.2C13.4 0 0 13.4 0 29.8s13.4 29.8 29.8 29.8c16.5 0 29.8-13.4 29.8-29.8C59.7 13.4 46.3 0 29.8 0z"/><path d="M29.8 33.6h-.2c-1.9-.1-3.4-1.6-3.5-3.5v-.2c0-2.1 1.7-3.7 3.7-3.7 2.1 0 3.7 1.7 3.7 3.7 0 1-.4 1.9-1.1 2.6-.6.7-1.6 1.1-2.6 1.1zM20 39.7l4.1-6.4c.6 1 1.4 1.8 2.3 2.3L20 39.7zm23.8-25.9l-14.7 9.4c-3.1.3-5.6 2.8-6 6l-9.4 14.7c-.4.6-.3 1.4.2 1.9.3.3.7.4 1.1.4.3 0 .6-.1.8-.2l14.7-9.4c1.5-.2 2.9-.8 4-1.9s1.8-2.5 1.9-4L45.8 16c.4-.6.3-1.4-.2-1.9-.4-.6-1.2-.7-1.8-.3zM32.1 8.7c0 3-4.5 3-4.5 0s4.5-3 4.5 0M32.1 50.9c0 3-4.5 3-4.5 0 0-2.9 4.5-2.9 4.5 0M53.2 29.8c0 3-4.5 3-4.5 0 0-2.9 4.5-2.9 4.5 0M10.9 29.8c0 3-4.5 3-4.5 0 .1-2.9 4.5-2.9 4.5 0"/></svg>