<svg xmlns="http://www.w3.org/2000/svg" width="306.5" height="279" viewBox="0 0 306.5 279"><path fill="#2580AA" d="M306.5 0H300L172.6 124.7c-.3-.2-.6-.5-.9-.7-6.5-4.2-15.2-2.3-19.3 4.1-3.3 5.1-2.2 11.9.6 16l-60.3 95.4-.1.4c-.1.2-12.8 23.5-33.1 28.7-9.7 2.5-19.7.5-29.8-6.1-11.6-7.5-18.4-16.8-20-27.6-1.3-8.4.6-16.7 3.4-23.9.6 6.3 2.8 12.7 7.8 18l6.8-6.4c-10.9-11.6-2.4-32.8-2.3-33L36.8 162l-19.3 23c-.9 1-21 25.2-17 51.3 2 13.6 10.2 25.1 24.2 34.1 12.4 8 24.9 10.4 37.1 7.2 23.4-6.1 37.2-30.8 38.7-33.2l60.2-95.3c4.9.9 11.7-.9 15-5.9 3-4.7 2.9-10.4.2-14.8L306.5 0zM168.1 138.3c-1.4 2.2-4.3 2.8-6.4 1.4-2.2-1.4-2.8-4.3-1.4-6.4 1.4-2.2 4.3-2.8 6.4-1.4 2.1 1.4 2.8 4.2 1.4 6.4z"/></svg>