<svg xmlns="http://www.w3.org/2000/svg" width="1052" height="1052" viewBox="0 0 1052 1052"><path d="M0 0v1052h1052V0H0zm554.5 901c-15.5 31.5-45.1 52.2-79.4 62.2-52.7 12.1-103.1 5.2-140.6-17.3-25.1-15.4-44.7-39.1-58-66.4 26.7-16.3 53.3-32.7 80-49 .7.3 2.8 4.1 5.6 9 10.2 17.1 19 29.2 36.3 37.7 17 5.8 54.3 9.5 68.7-20.4 8.8-15.2 6-64.8 6-118.9 0-85 .4-169.4.4-254.4h98.4c0 90.5.5 180.7 0 270.9.2 55.3 5 105.3-17.4 146.6zm408.2-27.8c-34.2 117-224.9 120.8-301.1 43.5-16.1-18.2-26.2-27.7-35.8-48.7 40.5-23.3 40.5-23.3 79.9-46.1 21.4 32.9 41.2 51 76.8 58.4 48.3 5.9 96.9-10.7 86-62-11.2-41.9-98.9-52.1-158.6-96.9-60.6-40.7-74.8-139.6-25-196.1 16.6-20.9 44.9-36.5 74.6-44 10.3-1.3 20.7-2.7 31-4 59.5-1.2 96.7 14.5 124 45 7.6 7.7 13.8 16 25.4 34-31.7 20.2-31.6 20-77 49.4-9.7-20.9-25.8-34-42.8-39.7-26.4-8-59.7.7-66.6 28.6-2.4 8.6-1.9 16.6 1.9 30.8 10.7 24.4 46.6 35 78.8 49.8 92.7 37.6 124 77.9 131.7 125.9 7.4 41.3-1.8 68.1-3.2 72.1z"/></svg>