<svg xmlns="http://www.w3.org/2000/svg" width="16" height="16" viewBox="0 0 16 16"><path d="M5.9 12.7l-.9.8c-.7.7-1.8.7-2.5 0-.3-.3-.5-.8-.5-1.3s.2-.9.5-1.3l3-3c.6-.6 1.8-1.5 2.6-.7.4.4 1 .4 1.4 0s.4-1 0-1.4c-1.4-1.3-3.6-1-5.4.8l-3 3c-.7.7-1.1 1.6-1.1 2.6s.4 1.9 1.1 2.7c.7.7 1.7 1.1 2.7 1.1s1.9-.4 2.7-1.1l.8-.8c.4-.4.4-1 0-1.4-.4-.4-1.1-.4-1.4 0zm9-11.5C13.3-.3 11.2-.4 9.8 1l-1 1c-.4.4-.4 1 0 1.4s1 .4 1.4 0l1-1c.7-.7 1.7-.4 2.3.2.3.3.5.8.5 1.3s-.2.9-.5 1.3l-3.2 3.2c-1.4 1.3-2.1.6-2.4.3-.4-.4-1-.4-1.4 0s-.4 1 0 1.4c.7.7 1.4 1 2.2 1 1 0 2-.5 3-1.5l3.2-3.2c.7-.6 1.1-1.5 1.1-2.5s-.4-2-1.1-2.7z"/></svg>