<svg xmlns="http://www.w3.org/2000/svg" width="32" height="30" viewBox="0 0 32 30"><path d="M16 0c8.8 0 16 7.2 16 16 0 6-3.3 11.3-8.2 14H8.2C3.3 27.3 0 22 0 16 0 7.2 7.2 0 16 0zm9.1 25.1c2.4-2.4 3.8-5.6 3.8-9.1H26v-2h2.7c-.2-1.4-.7-2.8-1.3-4H24V8h2c-.3-.4-.6-.7-.9-1.1-1.4-1.4-3.2-2.5-5.1-3.1V6h-2V3.3c-.7-.1-1.3-.2-2-.2s-1.3.1-2 .2V6h-2V3.8c-1.9.6-3.6 1.7-5.1 3.1-.3.4-.6.7-.9 1.1h2v2H4.7c-.7 1.2-1.1 2.6-1.3 4H6v2H3.2c0 3.4 1.3 6.6 3.8 9.1.3.3.7.6 1 .9h6l1.1-16h1.7L18 26h6c.4-.3.7-.6 1.1-.9z"/></svg>