<svg xmlns="http://www.w3.org/2000/svg" width="290.2" height="151.1" viewBox="0 0 290.2 151.1"><path d="M85.5 54.7h-13l-5 29.8h11.9c8.9-1 16.9-4 17.9-20.9.1-6-4.9-8.9-11.8-8.9z"/><path d="M145.1 0C65 0 0 33.8 0 75.5S65 151 145.1 151s145.1-33.8 145.1-75.5S225.2 0 145.1 0zM81.5 99.4H63.6l-4 20.9H40.7l15.9-80.5h36.8c15.9 1 23.8 8.9 23.8 22.9.1 23.8-18.8 37.7-35.7 36.7zm71.5 0l7-36.8c1-5 1-8-6-8h-14.9l-8.9 44.7h-18.9l15.9-80.5h18.9l-4 20.9H160c15.9 1 21.9 8.9 19.9 18.9l-7 40.7H153zm61.7 0h-17.9l-4 20.9h-18.9l15.9-80.5h36.8c15.9 1 23.9 8.9 23.9 22.9-.1 23.8-19 37.7-35.8 36.7z"/><path d="M218.6 54.7h-12.9l-5 29.8h11.9c8.9-1 16.9-4 17.9-20.9.1-6-4.9-8.9-11.9-8.9z"/></svg>