<svg xmlns="http://www.w3.org/2000/svg" width="412" height="247.7" viewBox="0 0 412 247.7"><path d="M215.2 232.2c-5.2-3.8-5.8-9.6-5.8-9.6l-2-12.5h-62.2l-2 12.5s-.5 5.7-5.7 9.6c-5.2 3.8-9.3 7.1-5.2 7.7 4 .5 41.3 0 44 0 2.8 0 40.1.5 44 0 4.2-.5.1-3.8-5.1-7.7zM70.5 127.6c0-5.8-4.7-10.5-10.5-10.5H10.5c-5.8 0-10.5 4.7-10.5 10.5v109.7c0 5.8 4.7 10.5 10.5 10.5h49.6c5.8 0 10.5-4.7 10.5-10.5l-.1-109.7zm-40.4 1.3h10.5c.7 0 1.3.6 1.3 1.3 0 .7-.6 1.3-1.3 1.3H30.1c-.7 0-1.3-.6-1.3-1.3 0-.8.6-1.3 1.3-1.3zm4.8 112.6c-2.9 0-5.2-2.3-5.2-5.2 0-2.9 2.3-5.2 5.2-5.2 2.9 0 5.2 2.3 5.2 5.2 0 2.9-2.3 5.2-5.2 5.2zM64 226.8H6.5v-87.5H64v87.5zM397.3 57H289.8c-8.1 0-14.7 6.6-14.7 14.7v153.9c0 8.1 6.6 14.7 14.7 14.7h107.5c8.1 0 14.7-6.6 14.7-14.7V71.7c0-8.1-6.6-14.7-14.7-14.7zm-74.8 175c-4 0-7.3-3.3-7.3-7.3s3.3-7.3 7.3-7.3 7.3 3.3 7.3 7.3c.1 4-3.2 7.3-7.3 7.3zm21.1 0c-4 0-7.3-3.3-7.3-7.3s3.3-7.3 7.3-7.3c4.1 0 7.3 3.3 7.3 7.3s-3.3 7.3-7.3 7.3zm21.1 0c-4.1 0-7.3-3.3-7.3-7.3s3.3-7.3 7.3-7.3 7.3 3.3 7.3 7.3-3.3 7.3-7.3 7.3zm38.1-21.1H284.4v-141h118.5v141h-.1zM308.5 44.6h18V12c0-6.6-5.4-12-12-12H38.3c-6.6 0-12 5.4-12 12v92.7h18V18h264.3v26.6h-.1zM82.9 162.2v36h179.9v-36H82.9zm93.5 26.2c-4.5 0-8.2-3.7-8.2-8.2 0-4.5 3.7-8.2 8.2-8.2 4.5 0 8.2 3.7 8.2 8.2.1 4.5-3.6 8.2-8.2 8.2z"/></svg>