<svg xmlns="http://www.w3.org/2000/svg" width="67.5" height="67.5" viewBox="0 0 67.5 67.5"><path d="M49.5 4.5h-6v-.7h6v.7zm15 0h-6v-.7h6v.7zm-7.5 0h-6v-.7h6v.7zm-15 0h-6v-.7h6v.7zM22.6 47.4v-1.8l1.6.9-1.6.9zm.6-3.2c-1.3 0-2.2 1-2.2 2.2s1 2.2 2.2 2.2 2.2-1 2.2-2.2-.9-2.2-2.2-2.2zM66 6.8H1.5V1.5H66v5.3zm0 12H1.5V7.5H66v11.3zm0 18.7H1.5v-18H66v18zM49.5 50.6v.8h-5.2v-.8h5.2zm1.5.4l-.8.8v-1.5l.8.7zm6-4.1v.8H44.2v-.8H57zm-12.8-3v-1.5h15v1.5h-15zm14.3 1.5v.8H44.2v-.8h14.3zm-47.3 7.8V39.8h24v13.5h-24zM66 66h-6.8v-8h-12v8h-1v-8h-12v8h-1v-8h-12v8h-1v-8h-12v8H1.5V55.5H66V66zM0 0v67.5h67.5V0H0zm10.5 3H3v2.2h7.5V3zm52 59l-.2.2 1 1-1 1 .2.2 1.3-1.3-1.3-1.1zM5 64.5l.2-.2-1-1 1-1L5 62l-1.3 1.2L5 64.5zm45.2-32.3v1.5l.8-.7-.8-.8zm-.7 1.2h-5.2v-.8h5.2v.8zm7.5-3.8H44.2v-.8H57v.8zm1.5-1.5H44.2v-.8h14.2v.8zm.7-3.7h-15v1.5h15v-1.5zm-27 7.8v1.5l.8-.7-.8-.8zm-.7 1.2h-5.2v-.8h5.2v.8zm7.5-3.8H26.2v-.8H39v.8zm1.5-1.5H26.2v-.8h14.2v.8zm.7-3.7h-15v1.5h15v-1.5zm-27 7.8v1.5l.8-.7-.8-.8zm-.7 1.2H8.2v-.8h5.2v.8zm7.5-3.8H8.2v-.8H21v.8zm1.5-1.5H8.2v-.8h14.2v.8zm.7-3.7h-15v1.5h15v-1.5zM19.5 15H8.2v.8h11.2V15zm5.3-1.5H8.2v-2.2h16.5v2.2z"/></svg>