<svg xmlns="http://www.w3.org/2000/svg" width="69.8" height="52" viewBox="0 0 69.8 52"><path fill-rule="evenodd" clip-rule="evenodd" d="M35.4 46.8c-.4 0-.4-.6 0-.6s.5.6 0 .6zm25.9-2.1c0-.1-.1-.3-.1-.4-.1-.2-.1-.5-.2-.7v-.1-.1s0-.1-.1-.1c-.1-.1-.2-.1-.4-.2-.3-.1-.6 0-.9.1-.4.1-.8.2-1.2.4 0 0-.1 0-.1.1-.1 0-.2.1-.3.1-.3.2-.6.2-.9.4-.2.1-.4.1-.6.2h-.1c-.2.1-.3.1-.5.1h-.2-.1c-.7.1-1.3.1-2 .1-.3 0-.6-.1-1-.1.4-.1.7-.2 1.1-.2.3-.1.6-.2.7-.5.1-.1.1-.2 0-.3-.1-.2-.2-.5-.4-.7-.2-.3-.5-.6-.8-.8-.3-.3-.7-.6-1.1-.8-.6-.2-1.2-.1-1.6.3-.7.5-1.5.8-2.1 1.3-.1.1-.2.1-.3 0-.1-.4-.3-.2-.5-.2-.2.1-.3.1-.4-.1 0 0 0-.1-.1-.1 0 0 0-.1-.1-.1v-.1-.1-.1c-.2 0-.2-.1-.3-.2 0-.2-.1-.3 0-.5 0-.1 0-.2-.1-.1h-.1c-.2.1-.4.1-.7 0-.1 0-.1-.1 0-.2 0-.2.1-.3.2-.5-.2 0-.2.1-.3.2-.3.2-.7.1-.7-.3 0-.1 0-.2-.1-.2s-.2.1-.2.1c-.5.5-.9 1.1-1.2 1.7 0 .1-.1.2-.2.2-.1-.1-.1-.2-.2-.3 0 .1-.1.1-.2.2l-.3.3-.2.2c0 .1-.2.1-.3.1l-1.5.3c-1.3.3-2.5.8-3.6 1.6-.8.6-1.8 1.1-2.8 1.3-.3.1-.6.2-.8.3l-.2.2c-.3.3.2.8.4 1.1l.1.1.6.3c.3.1.5.3.8.4h.1s.1 0 .1.1h.1c.1 0 .1 0 .2.1.6.1 1.1.3 1.7.5h.2c.8.3 1.7.5 2.5.6.3 0 .5.1.7.3l.4.4c.5.5 1.1.8 1.6 1.1.2.2.5.3.7.3.5 0 .7-.1.6-.5v-1.1c0-.3-.1-.4-.4-.5-.1 0-.2 0-.3-.1.3-.1.6 0 .9 0 1.1 0 2.2-.1 3.3-.1 1.2 0 2.4-.2 3.5.3 0-.3 0-.3.3-.3.7.1 1.4.2 2 .3h.7c.5-.1.8-.3.8-.8 0-.3-.1-.6-.2-.8 0-.1-.1-.1-.2-.2-.3-.1-.6-.3-1-.3.8-.3 1.6-.5 2.5-.3.8.3 1.6.5 2.4.8.6.2 1.3.4 1.9.4.3 0 .5-.1.7-.3v-.1c0-.1.1-.2.1-.3v-.2c0-.1 0-.2.1-.3v-.2c.5-.7.4-1.5.2-2.4zM2.2 16.5c-.4 0-.4-.6 0-.6s.4.6 0 .6zm25.8-2c0-.1-.1-.3-.1-.4-.1-.2-.1-.5-.2-.7v-.1-.1s0-.1-.1-.1c-.1-.1-.2-.1-.4-.1-.3-.1-.6 0-.9.1-.4.1-.8.2-1.2.4 0 0-.1 0-.1.1-.1 0-.2.1-.3.1-.3.2-.6.2-.9.4-.2.1-.4.1-.6.2h-.1c-.2.1-.3.1-.5.1h-.2-.1c-.7.1-1.3.1-2 .1-.3 0-.6-.1-1-.1.4-.1.7-.2 1.1-.2.3-.1.6-.2.7-.5.1-.1.1-.2 0-.3-.1-.2-.2-.5-.4-.7-.2-.3-.5-.6-.8-.8-.3-.3-.7-.6-1.1-.8-.6-.2-1.2-.1-1.6.3-.7.5-1.5.8-2.1 1.3-.1.1-.2.1-.3 0-.1-.4-.3-.2-.5-.2-.2.1-.3.1-.4-.1 0 0 0-.1-.1-.1 0 0 0-.1-.1-.1v-.1-.1-.1c-.2 0-.2-.1-.3-.2 0-.2-.1-.3 0-.5 0-.1 0-.2-.1-.1h-.1c-.2.1-.4.1-.7 0-.1 0-.1-.1 0-.2 0-.2.1-.3.2-.5-.2 0-.2.1-.3.2-.3.2-.7.1-.7-.3 0-.1 0-.2-.1-.2s-.2.1-.2.1c-.5.5-.9 1.1-1.2 1.7 0 .1-.1.2-.2.2 0 0 0-.1-.1-.2 0 .1-.1.1-.2.2l-.3.3-.2.2c0 .1-.2.1-.3.1l-1.5.3c-1.3.3-2.5.8-3.6 1.6-.8.6-1.8 1.1-2.8 1.3-.3.1-.6.2-.8.3l-.2.2c-.3.3.2.8.4 1.1l.1.1.6.3c.3.1.5.3.8.4H2s.1 0 .1.1h.1c.1 0 .1 0 .2.1.6.1 1.1.3 1.7.5h.2c.8.3 1.7.5 2.5.6.3 0 .5.1.7.3l.4.4c.5.5 1.1.8 1.6 1.1.2.2.5.3.7.3.5 0 .7-.1.6-.5-.1-.4 0-.8 0-1.1 0-.3-.1-.4-.4-.5-.1 0-.2 0-.3-.1.3-.1.6 0 .9 0 1.1 0 2.2-.1 3.3-.1 1.2 0 2.4-.2 3.5.3 0-.3 0-.3.3-.3.7.1 1.4.2 2 .3h.7c.5-.1.8-.3.8-.8 0-.3-.1-.6-.2-.8 0-.1-.1-.1-.2-.2-.3-.1-.6-.3-1-.3.8-.3 1.6-.5 2.5-.3.8.3 1.6.5 2.4.8.6.2 1.3.4 1.9.4.3 0 .5-.1.7-.3v-.1c0-.1.1-.2.1-.3v-.2c0-.1 0-.2.1-.3v-.2c.5-.9.3-1.8.1-2.6zM26.5 24.9c-.6 0-.6-1 0-1s.6 1 0 1zm39.6-3.1c-.1-.2-.1-.4-.2-.6-.1-.4-.2-.7-.3-1.1 0 0 0-.1-.1-.1 0 0 0-.1-.1-.1 0-.1-.1-.1-.1-.2-.2-.1-.4-.2-.7-.2-.5-.1-.9 0-1.3.1-.6.1-1.2.4-1.9.6h-.1c-.1 0-.1.1-.2.1-.1.1-.3.1-.4.2-.4.2-.9.4-1.4.6-.3.1-.6.2-1 .3h-.1c-.2.1-.5.2-.7.2-.1 0-.2.1-.3.1h-.1c-1 .2-2 .2-3.1.1-.5-.1-1-.1-1.5-.2.6-.2 1.1-.3 1.7-.4.5-.1.9-.3 1.1-.7.1-.1.1-.3.1-.4-.2-.4-.4-.7-.6-1.1-.3-.5-.8-.9-1.2-1.3-.5-.5-1-.9-1.6-1.2-.9-.3-1.8-.2-2.5.4-1 .8-2.3 1.2-3.3 2-.1.1-.3.2-.4 0-.2-.6-.5-.4-.8-.2-.2.1-.4.1-.6-.1 0-.1-.1-.1-.1-.2 0 0-.1-.1-.1-.2v-.1-.1-.1c-.3 0-.4-.1-.4-.3-.1-.2-.1-.5-.1-.7 0-.1 0-.3-.2-.2-.1 0-.1 0-.2.1-.3.1-.7.1-1-.1-.2-.1-.1-.2-.1-.3.1-.3.2-.5.3-.7-.2 0-.4.1-.5.2-.5.4-1 .2-1.1-.5 0-.1 0-.3-.1-.3-.2 0-.3.1-.4.2-.7.8-1.4 1.7-1.8 2.7-.1.1-.1.3-.2.3-.1-.1-.2-.3-.3-.5-.1.1-.1.2-.2.3-.1.1-.3.3-.5.4-.1.1-.2.2-.2.3-.1.2-.3.2-.4.2-.8.1-1.6.2-2.4.4-2 .4-3.8 1.2-5.5 2.4-1.3.9-2.7 1.6-4.2 2-.5.1-.9.2-1.3.5l-.3.3c-.5.5.3 1.3.6 1.7l.1.1c.3.2.6.4.9.5l1.2.6c.1 0 .1 0 .1.1.1 0 .1.1.2.1s.1 0 .2.1c.1 0 .2.1.3.1.9.2 1.7.5 2.6.7h.2c1.3.4 2.5.8 3.9.9.4 0 .8.1 1.1.5l.6.6c.7.7 1.6 1.2 2.4 1.8.3.2.7.5 1.1.5.8 0 1.1-.1 1-.8-.1-.6 0-1.2 0-1.8 0-.5-.1-.6-.6-.8-.1 0-.3-.1-.4-.1.5-.1.9.1 1.4.1 1.7 0 3.3-.1 5-.1 1.8 0 3.6-.3 5.4.4 0-.4.1-.5.5-.4 1 .2 2.1.3 3.1.5.4.1.7.1 1.1 0 .8-.1 1.2-.5 1.2-1.3 0-.4-.2-.9-.3-1.3 0-.2-.2-.2-.4-.3-.5-.2-1-.4-1.5-.4 1.2-.4 2.5-.8 3.8-.4l3.6 1.2c1 .3 1.9.6 3 .5.5 0 .8-.2 1-.5 0 0 0-.1.1-.1.1-.2.1-.3.2-.5v-.1c0-.1.1-.2.1-.3 0-.2.1-.3.1-.5v-.2c.7-1.3.4-2.6.1-3.9zM3.1 39.9c-.5 0-.5-.8 0-.8s.5.8 0 .8zm33.7-2.6c-.1-.2-.1-.4-.1-.5-.1-.3-.1-.6-.2-.9v-.1-.1l-.1-.1c-.1-.1-.3-.2-.6-.2-.4-.1-.8 0-1.1.1-.5.1-1.1.3-1.6.5H33c-.1 0-.1.1-.2.1-.1.1-.2.1-.4.2-.4.2-.8.3-1.2.5-.3.1-.5.2-.8.2h-.1c-.2.1-.4.1-.6.2-.1 0-.2.1-.2.1h-.1c-.9.2-1.7.2-2.6.1-.4-.1-.8-.1-1.3-.2.5-.1 1-.2 1.4-.3.4-.1.7-.3 1-.6.1-.1.1-.2 0-.4-.2-.3-.3-.6-.5-.9-.3-.4-.7-.7-1-1.1-.4-.4-.9-.8-1.4-1-.8-.3-1.5-.2-2.1.4-.9.7-1.9 1-2.8 1.7-.1.1-.3.1-.3 0-.1-.5-.4-.3-.7-.2-.2.1-.4.1-.5-.1 0-.1-.1-.1-.1-.2 0 0-.1-.1-.1-.2v-.1-.1-.1c-.2 0-.3-.1-.4-.3v-.6c0-.1 0-.3-.1-.2h-.2c-.3.1-.6.1-.9-.1-.1-.1-.1-.2-.1-.3l.3-.6c-.2 0-.3.1-.4.2-.4.3-.9.2-1-.4 0-.1 0-.3-.1-.3s-.2.1-.3.2c-.6.7-1.2 1.4-1.5 2.3 0 .1-.1.2-.2.3-.1-.1-.2-.2-.2-.4-.1.2-.2.2-.3.3-.1.1-.2.2-.4.3-.1.1-.2.2-.2.3-.1.1-.2.1-.4.2-.7.1-1.3.2-2 .3-1.7.4-3.3 1.1-4.7 2-1.1.8-2.3 1.4-3.6 1.7-.3.1-.7.3-1 .5-.1.1-.2.2-.3.2-.4.4.2 1.1.5 1.4l.1.1c.2.2.5.3.7.5.3.2.7.3 1 .5 0 0 .1 0 .1.1.1 0 .1.1.2.1s.1 0 .2.1c.1 0 .2 0 .3.1.8.1 1.5.3 2.3.5H6c1.1.3 2.2.7 3.3.8.4 0 .7.1.9.4.1.2.4.4.5.5.6.6 1.4 1 2.1 1.5.3.2.6.4.9.4.7 0 .9-.1.8-.7-.1-.5 0-1 0-1.5 0-.4-.1-.6-.5-.7-.1 0-.2-.1-.3-.1.4-.1.8.1 1.2.1 1.4 0 2.8-.1 4.2-.1 1.5 0 3.1-.3 4.6.4 0-.4 0-.4.4-.4.9.1 1.8.3 2.7.4.3.1.6.1.9 0 .7-.1 1-.4 1-1.1 0-.4-.1-.7-.2-1.1 0-.1-.2-.2-.3-.2-.4-.1-.8-.4-1.3-.4 1.1-.4 2.1-.7 3.2-.3 1 .3 2.1.7 3.1 1 .8.3 1.6.5 2.5.5.4 0 .7-.2.9-.4 0 0 0-.1.1-.1 0-.1.1-.3.2-.4 0-.1 0-.2.1-.3 0-.1.1-.3.1-.4v-.2c.2-1.1 0-2.2-.3-3.3zM35.7 8.4c-.5 0-.5-.8 0-.8s.6.8 0 .8zm33.8-2.6c-.1-.2-.1-.4-.1-.5-.1-.3-.1-.6-.2-.9v-.1-.1l-.1-.1c-.1-.1-.3-.2-.6-.2-.4-.1-.8 0-1.1.1-.5.1-1.1.3-1.6.5h-.1c-.1 0-.1.1-.2.1-.1.1-.2.1-.4.2-.4.2-.8.3-1.2.5-.3.1-.5.2-.8.2H63c-.2.1-.4.1-.6.2-.1 0-.2.1-.2.1h-.1c-.9.2-1.7.2-2.6.1-.4-.1-.8-.1-1.3-.2.5-.1 1-.2 1.4-.3.4-.1.7-.3 1-.6.1-.1.1-.2 0-.4-.3-.4-.4-.7-.6-1-.3-.4-.7-.7-1-1.1-.4-.4-.9-.8-1.4-1-.8-.3-1.5-.2-2.1.4-.9.7-1.9 1-2.8 1.7-.1.1-.3.1-.3 0-.1-.5-.4-.3-.7-.2-.2.1-.4.1-.5-.1 0-.1-.1-.1-.1-.2 0 0-.1-.1-.1-.2v-.1-.1-.1c-.2 0-.3-.1-.4-.3-.1-.2-.1-.4-.1-.6 0-.1 0-.3-.1-.2h-.2c-.3.1-.6.1-.9-.1-.1-.1-.1-.2-.1-.3l.3-.6c-.2 0-.3.1-.4.2-.4.3-.9.2-1-.4 0-.1 0-.3-.1-.3s-.2.1-.3.2c-.6.7-1.2 1.4-1.5 2.3 0 .1-.1.2-.2.3-.1-.1-.2-.2-.2-.4-.1.1-.1.2-.2.2-.1.1-.2.2-.4.3 0 .3-.1.4-.2.5-.1.1-.2.1-.4.2-.7.1-1.3.2-2 .3-1.6.3-3.2 1-4.6 2-1.1.8-2.3 1.4-3.6 1.7-.4.1-.8.2-1.1.4-.1.2-.2.2-.3.3-.4.4.2 1.1.5 1.4l.1.1c.2.2.5.3.7.5.3.2.7.3 1 .5 0 0 .1 0 .1.1.1 0 .1.1.2.1s.1 0 .2.1c.1 0 .2 0 .3.1.7.2 1.5.4 2.2.6h.2c1.1.3 2.2.7 3.3.8.4 0 .7.1.9.4.1.2.4.4.5.5.6.6 1.4 1 2.1 1.5.3.2.6.4.9.4.7 0 .9-.1.8-.7-.1-.5 0-1 0-1.5 0-.4-.1-.6-.5-.7-.1 0-.2-.1-.3-.1.4-.1.8.1 1.2.1 1.4 0 2.8-.1 4.2-.1 1.5 0 3.1-.3 4.6.4 0-.4 0-.4.4-.4.9.1 1.8.3 2.7.4.3.1.6.1.9 0 .7-.1 1-.4 1-1.1 0-.4-.1-.7-.2-1.1 0-.1-.2-.2-.3-.2-.4-.1-.8-.4-1.3-.4 1.1-.4 2.1-.7 3.2-.3 1 .3 2.1.7 3.1 1 .8.3 1.6.5 2.5.5.4 0 .7-.2.9-.4 0 0 0-.1.1-.1.1-.1.1-.3.2-.4 0-.1 0-.2.1-.3 0-.1.1-.3.1-.4v-.2c.3-1.2.1-2.3-.1-3.4z"/></svg>