<svg xmlns="http://www.w3.org/2000/svg" width="142.5" height="85.7" viewBox="0 0 142.5 85.7"><path d="M86 64c-.4-4.6-.7-9.3-1.1-13.9-2.2 1.9-4.3 3.8-6.4 5.7 2.5 2.7 4.9 5.5 7.5 8.2zm15.2 17c2.1-1.9 4.2-3.8 6.4-5.7-4.6-.9-9.2-1.7-13.8-2.5 2.5 2.7 5 5.5 7.4 8.2zM141.7 41.8c.8 3.3 1 6.8.4 10.2l-.1.2c-11.8 4.1-38.2 12.1-50.3 16 11.6-2.8 37.9-9.5 49.5-12.3-1.1 3.5-2.8 6.9-4.8 10-10 .9-34.7 2.1-44.6 3 9.3.2 33.3-.2 42.6-.1-1.9 2.8-4.2 5.6-7.3 7.2-1.5.8-3.3 1.2-4.9.9-10.6-2-21.2-3.9-31.8-5.8-1.7-.3-2.9-1.8-3-3.5-.7-10.5-1.4-21.1-2.3-31.6-.3-2.2.8-4.4 2.2-6.2 1.9-2.4 4.6-4.2 7.2-5.8-1 9.5-4.1 32.8-5 42.3 2-10.1 6.1-33.9 8.1-44 3.3-1.7 6.9-3 10.5-3.7-4 11.3-13.9 36.7-18 47.9.7-1.6 7.1-16.1 7.6-17.1 4.8-10.3 9.4-20.8 14.2-31.2 3.5-.1 7.1.4 10.2 1.8-6.3 9.7-12.9 19.2-19.2 28.9-1.1 1.7-9 13-12.2 17.9 3.3-4.5 12.1-15.7 13.4-17.3 7.2-9.4 14-18.8 21.2-28.1 2.9 1.7 5.1 3.2 7.3 5.6-9.8 9.4-18 18.3-27.8 27.6-.1.2-13.7 12.6-13.7 12.6s22.5-18.3 27.3-22.4c5.8-4.8 11.3-9.8 17.1-14.6 2.2 2.5 3.7 5.2 5.1 8.3-.7.5-1.4 1-2.1 1.4-10.6 6.5-21.3 12.6-31.9 19.1-.6.3-13.9 8-15 8.7"/><path d="M101.2 81c-2.5-2.7-4.9-5.5-7.4-8.3 4.6.8 9.2 1.7 13.8 2.5-2.1 2-4.2 3.9-6.4 5.8zM86 64c-2.5-2.7-5-5.5-7.5-8.2 2.2-1.9 4.2-3.8 6.4-5.7.3 4.6.7 9.2 1.1 13.9z"/><g><path d="M43.5 14c2.1-2.2 4.2-4.3 6.3-6.5-1.8-.2-3.7-.4-5.5-.7-.2 2.5-.5 4.8-.8 7.2zm-1.7 14.7c1.8.2 3.6.4 5.5.6-1.5-2.6-3.1-5.2-4.6-7.7-.3 2.3-.6 4.7-.9 7.1zM78 31.4c-1.2 1.8-2.8 3.4-4.7 4.6h-.2c-7-4-22.1-13.3-29.2-17.4C50.2 23 64.7 32.8 71 37.2c-2.2 1-4.5 1.6-6.9 1.9-4.7-4.4-15.8-15.8-20.5-20.3 3.9 4.6 14.3 16 18.2 20.5-2.2.3-4.5.4-6.6-.5-1-.4-2-1.1-2.5-2-3.5-6-7.2-11.9-10.7-17.8-.6-1-.4-2.2.5-2.9 4.8-4.8 9.6-9.7 14.3-14.6.9-1.1 2.5-1.5 3.9-1.6 2-.1 4 .4 5.8 1C61.5 4.6 49 13 44 16.6c5.7-3.3 19-11.5 24.7-14.8 2.2.9 4.4 2 6.2 3.5-7.2 2.9-23.6 8.9-30.8 11.8 1.1-.3 10.8-3.4 11.5-3.6 7-2.1 14.1-4.3 21.1-6.4 1.6 1.7 2.8 3.6 3.5 5.7-7.4 1.1-14.7 1.9-22.1 3-1.3.2-10.1 1.2-13.8 1.8 3.5-.3 12.8-.9 14-.9 7.6-.5 15-1.3 22.6-1.8.4 2.1.6 3.8.4 5.9-8.7-.7-16.5-.9-25.2-1.6-.2 0-11.9-1.2-11.9-1.2s18.4 3 22.4 3.6c4.8.8 9.5 1.3 14.3 2-.3 2.1-.9 4-1.8 6-.5-.1-1.1-.3-1.6-.4-7.6-2.3-15.2-4.9-22.8-7.2-.4-.1-9.8-3.3-10.6-3.5"/><path d="M41.8 28.7c.3-2.4.5-4.7.8-7.1 1.6 2.6 3.1 5.1 4.6 7.7-1.7-.2-3.6-.4-5.4-.6zM43.5 14c.2-2.4.5-4.7.8-7.1 1.8.2 3.7.4 5.5.7-2.1 2.1-4.2 4.3-6.3 6.4z"/></g><g><path d="M47 82.8c-2.4-.2-4.7-.5-7.1-.8.7 1.3 1.5 2.5 2.3 3.7 1.6-1 3.2-1.9 4.8-2.9zm10-6.1c-.8-1.2-1.5-2.5-2.3-3.7-.9 2.2-1.7 4.4-2.6 6.6 1.7-.9 3.3-1.9 4.9-2.9zM41.1 52.9c1.7-.1 3.5.1 5.1.7l.1.1c.9 6.3 2.5 20.2 3.3 26.6-.3-6-1.2-19.8-1.5-25.9 1.7.9 3.2 2 4.5 3.3-.5 5.1-2.2 17.5-2.7 22.6 1-4.6 3-16.6 3.9-21.3 1.2 1.2 2.4 2.6 2.9 4.3.2.8.3 1.8 0 2.5-2 5.1-3.9 10.2-5.9 15.3-.3.8-1.2 1.3-2 1.1-5.3-.6-10.7-1.3-16-1.8-1.1-.1-2.1-.8-2.9-1.7-1-1.2-1.7-2.7-2.2-4.1 4.7 1.4 16 5.1 20.6 6.4-4.9-1.9-16.4-6.2-21.2-8.1-.5-1.8-.9-3.7-.9-5.6 5.3 3.1 17 10.4 22.3 13.4-.7-.5-7.4-5-7.9-5.4-4.7-3.3-9.5-6.6-14.3-10 .3-1.8.9-3.5 1.8-4.9 4.3 4.1 8.4 8.2 12.7 12.3.7.7 5.7 5.7 7.8 7.7-1.9-2.1-6.7-7.5-7.4-8.3-4-4.5-8.1-8.7-12.1-13.2 1.1-1.3 2.1-2.2 3.5-3.1 3.8 5.7 7.4 10.7 11.2 16.4.1.1 5 8 5 8S42 67.5 40.4 64.8c-1.9-3.3-3.9-6.5-5.7-9.9 1.5-.8 2.9-1.4 4.6-1.8.2.4.3.8.5 1.2 2.3 5.9 4.3 11.8 6.6 17.7.1.3 2.7 7.7 3 8.3"/><path d="M57 76.7c-1.6 1-3.2 2-4.8 2.9.8-2.2 1.7-4.4 2.6-6.6.7 1.2 1.4 2.5 2.2 3.7zM47 82.8l-4.8 3c-.7-1.2-1.5-2.5-2.3-3.7 2.4.2 4.8.4 7.1.7z"/></g><g><path d="M2.9 34c0-1.9-.1-3.8-.1-5.7-1 .7-1.9 1.5-2.8 2.2 1 1.2 1.9 2.4 2.9 3.5zm5.8 7.4c.9-.7 1.8-1.5 2.7-2.2-1.9-.5-3.7-.9-5.6-1.4 1 1.2 2 2.4 2.9 3.6zM26.2 26.3c.2 1.4.3 2.8-.1 4.2l-.1.1C21.1 32 10.1 34.7 5 36c4.8-.9 15.8-3 20.6-3.9-.5 1.4-1.3 2.7-2.2 4-4.1.1-14.3 0-18.4.2 3.8.3 13.6.7 17.5 1-.8 1.1-1.9 2.2-3.2 2.8-.6.3-1.4.4-2 .2-4.3-1.1-8.6-2.1-12.9-3.1-.7-.2-1.2-.8-1.1-1.5 0-4.3-.1-8.7-.2-13-.1-.9.4-1.8 1-2.5.8-1 2-1.6 3.1-2.2-.5 3.7-2.4 13.1-3 17 1.1-4.1 3.3-13.7 4.4-17.8 1.4-.6 2.9-1.1 4.4-1.3-1.9 4.5-6.6 14.7-8.5 19.2.3-.6 3.3-6.4 3.5-6.8 2.2-4.1 4.4-8.3 6.5-12.4 1.4 0 2.9.3 4.1 1-2.8 3.8-5.7 7.5-8.6 11.4-.5.7-4 5.1-5.4 7.1 1.4-1.8 5.3-6.2 5.9-6.8 3.2-3.7 6.2-7.4 9.4-11 1.1.8 2 1.4 2.9 2.5-4.2 3.6-7.8 7.1-12 10.7-.1.1-5.9 4.8-5.9 4.8s9.6-7 11.7-8.5c2.5-1.8 4.9-3.8 7.3-5.6.8 1.1 1.4 2.2 1.9 3.5-.3.2-.6.4-.9.5-4.5 2.4-9 4.7-13.5 7.1-.2.1-5.9 3-6.4 3.2"/><path d="M8.7 41.4c-1-1.2-1.9-2.4-2.8-3.6 1.9.4 3.7.9 5.6 1.4-.9.7-1.9 1.5-2.8 2.2zM2.9 34c-1-1.2-1.9-2.4-2.9-3.5.9-.7 1.8-1.5 2.8-2.2 0 1.9 0 3.8.1 5.7z"/></g></svg>