<svg xmlns="http://www.w3.org/2000/svg" width="67.5" height="53" viewBox="0 0 67.5 53"><path d="M33.6 33.9c-.4 1.7-1.9 3-3.7 3-.3 0-.5 0-.8-.1-1-.2-1.8-.8-2.4-1.6-.6-.8-.7-1.8-.5-2.8.4-1.7 1.9-3 3.7-3 .3 0 .5 0 .8.1 2 .4 3.3 2.4 2.9 4.4zM47.9 8.2l-7.5-1.9c-.6-.1-1.1.2-1.2.8l-1.9 7.5c-.1.5.2 1.1.8 1.2h.2c.5 0 .9-.3 1-.8l1.3-5.1.6 1c1.9 3.1 2.4 6.7 1.5 10.3-.9 3.5-3.1 6.5-6.2 8.3-.5.3-1 .6-1.5.8-.8-1.4-2.2-2.5-3.9-2.9-.4-.1-.8-.1-1.2-.1-2.7 0-5.1 1.9-5.7 4.6-.3 1.5 0 3.1.8 4.4.8 1.3 2.2 2.2 3.7 2.5.4.1.8.1 1.2.1 2.7 0 5.1-1.9 5.7-4.6.1-.7.2-1.4.1-2.1.7-.3 1.3-.6 2-1 3.6-2.2 6.1-5.6 7.1-9.6 1-4.1.4-8.2-1.8-11.8l-.6-1 5.1 1.3c.6.1 1.1-.2 1.2-.8.1-.4-.3-1-.8-1.1zM54.7 31.5c.4.4.4 1.1 0 1.5-.2.2-.5.3-.7.3-.3 0-.5-.1-.7-.3l-2.5-2.5-2.4 2.5c-.2.2-.5.3-.7.3-.3 0-.5-.1-.7-.3-.4-.4-.4-1.1 0-1.5l2.5-2.5-2.5-2.5c-.4-.4-.4-1.1 0-1.5.4-.4 1.1-.4 1.5 0l2.5 2.5 2.5-2.5c.4-.4 1.1-.4 1.5 0 .4.4.4 1.1 0 1.5L52.5 29l2.2 2.5z"/><path d="M33.3 16.3c.4.4.4 1.1 0 1.5-.2.2-.5.3-.7.3-.3 0-.5-.1-.7-.3l-2.5-2.5-2.4 2.5c-.2.2-.5.3-.7.3-.3 0-.5-.1-.7-.3-.4-.4-.4-1.1 0-1.5l2.5-2.5-2.5-2.5c-.4-.4-.4-1.1 0-1.5.4-.4 1.1-.4 1.5 0l2.5 2.5 2.5-2.5c.4-.4 1.1-.4 1.5 0 .4.4.4 1.1 0 1.5l-2.5 2.5 2.2 2.5zM21.5 26.4c.4.4.4 1.1 0 1.5-.2.2-.5.3-.7.3-.3 0-.5-.1-.7-.3l-2.5-2.5-2.5 2.5c-.2.2-.5.3-.7.3-.3 0-.5-.1-.7-.3-.4-.4-.4-1.1 0-1.5l2.5-2.5-2.5-2.5c-.4-.4-.4-1.1 0-1.5.4-.4 1.1-.4 1.5 0l2.5 2.5 2.5-2.5c.4-.4 1.1-.4 1.5 0 .4.4.4 1.1 0 1.5L19.1 24l2.4 2.4z"/><path d="M65.4 42.6H2.1V2.1h63.4l-.1 40.5zM66.5 0H1C.5 0 0 .5 0 1v42.6c0 .6.5 1 1 1h31.7v6.3H19c-.6 0-1 .5-1 1 0 .6.5 1 1 1h29.4c.6 0 1-.5 1-1 0-.6-.5-1-1-1H34.8v-6.3h31.7c.6 0 1-.5 1-1V1c0-.5-.5-1-1-1z"/></svg>