<svg xmlns="http://www.w3.org/2000/svg" width="68.3" height="32.2" viewBox="0 0 68.3 32.2"><path d="M5.5 14.4c0-.5.4-.9.9-.9s.9.4.9.9-.3.9-.9.9c-.5 0-.9-.4-.9-.9zM.1 17.9c.6.6 5.8 3.9 5.8 3.9 4.4 2.5 12.1 3.9 12.1 3.9 1.2 4.9 3.4 6.3 3.4 6.3.6-.8 1-3.3 1-3.3 1 .6 2.4.8 2.4.8l-2.1-3.4c7.1 1 14.4-.8 14.4-.8 2.2-.5 4 1.2 4 1.2 4.7 2.6 6.2 2.1 6.2 2.1-2.3-.6-4.7-3.4-4.7-3.4-.9-1.1 1.2-2.3 1.2-2.3 1.8-1 6.2-3.6 6.2-3.6 3.7-2.4 8-3 8-3 1.3-.2 2.7 2 2.7 2 4.1 6 7.7 7 7.7 7-1-1.2-4.3-7.4-4.3-7.4-.8-1.8-.1-3.8-.1-3.8 1.2-3.3 4.5-7.8 4.5-7.8-4.1 1.2-8.6 7.3-8.6 7.3-.6.9-1.8.9-1.8.9-2.1 0-7.8-2.3-7.8-2.3-2-.9-9.1-4-9.1-4-2-.6-1.2-2.3-1.2-2.3 1.8-2.8 4.3-4.1 4.3-4.1-3.3.1-7.4 4-7.4 4-1.2 1.4-2.9.3-2.9.3l-.7-1-1-.1-.4-.4h-.6l-.5-.3H30l-.5-.4-.7.1-.6-.1-1-.1-.4-.3-.8.1-.6-.6h-.7l-.4-.6h-.7l-.4-.6-.8-.4V.6h-.6V0H21c-2.9 3-4 6.7-4 6.7-6.3.9-12 4.7-12 4.7-.8.5-4.3 3.3-4.3 3.3-1 .5 0 1 0 1 .8.2 2.8 1.6 2.8 1.6-.5.2-3 0-3 0-.8-.1-.4.6-.4.6z"/></svg>