<svg xmlns="http://www.w3.org/2000/svg" width="75" height="66.2" viewBox="0 0 75 66.2"><path d="M2.5 63.8V2.5h23.1l6.2 8.8 5.9 8.2c.2.3.6.5 1 .5h33.8v43.8h-70zm70-52.6v6.2H39.4l-4.5-6.2h37.6zM33.2 8.8L27.3.6l-.4-.6H0v66.2h75V8.8H33.2z"/><path d="M47.5 55h-20V40h20v15zM45 32.5c0-4.1-3.4-7.5-7.5-7.5S30 28.4 30 32.5c0 .7.6 1.2 1.2 1.2s1.2-.6 1.2-1.2c0-2.8 2.2-5 5-5s5 2.2 5 5v5H25v20h25v-20h-5v-5z"/><path d="M37.5 48.8c-1.4 0-2.5-1.1-2.5-2.5s1.1-2.5 2.5-2.5 2.5 1.1 2.5 2.5-1.1 2.5-2.5 2.5zm0-7.6c-2.8 0-5 2.2-5 5 0 2.3 1.6 4.3 3.8 4.8v1.4c0 .7.6 1.2 1.2 1.2s1.2-.6 1.2-1.2V51c2.1-.6 3.8-2.5 3.8-4.8 0-2.7-2.2-5-5-5z"/></svg>