<svg xmlns="http://www.w3.org/2000/svg" width="392.7" height="52.3" viewBox="0 0 392.7 52.3"><path fill="#2480A9" d="M373.5 19.9c-5.3 4-12 6.4-19.2 6.4-10.6 0-19.9-5.1-25.7-13.1-5.8 7.9-15.1 13.1-25.7 13.1-8.7 0-16.5-3.5-22.2-9.1-5.7 5.6-13.6 9.1-22.2 9.1-5.8 0-11.2-1.6-15.9-4.3-4.7 2.7-10.1 4.3-15.9 4.3-9 0-17.1-3.7-22.9-9.7-5.8 6-13.9 9.7-22.9 9.7-9.2 0-17.5-3.9-23.3-10.2-5.8 6.3-14.1 10.2-23.3 10.2-7.2 0-13.8-2.4-19.2-6.4-5.3 4-12 6.4-19.2 6.4 0 0-8.1-.8-11.7-2.2.3-1.2.4-2.3.1-2.8-.3-.7-1.6-1.4-2.9-1.7l.3-.9c8.8-9.6-6.6-5-6.6-5s10.5-3.8 9.4-9c-1.2-5.5-9.3-5.9-14-2.8-.5.3-2.9 1.5-5 2.7-2.4-.5-5 0-7.3 1.5-4.5 3-5.8 9.1-2.7 13.6-.5 1.8-6.6 6.5-9.4 6.6-.6-1.9-1.6-4.3-2.6-3.6-.4.3-.7 2-.9 3.6-7.9-.5-15-3.8-20.3-9C17.6 21.8 11.7 24.9 5 26c-1.6.3-3.3.4-5 .4v26h392.7v-26c-7.2 0-13.9-2.4-19.2-6.5zM74.4 8.2c-.8.5-1.8.3-2.3-.5-.5-.8-.3-1.8.5-2.3.8-.5 1.8-.3 2.3.5s.2 1.8-.5 2.3z"/></svg>