<?xml version="1.0" standalone="no"?>
<!DOCTYPE svg PUBLIC "-//W3C//DTD SVG 20010904//EN"
 "http://www.w3.org/TR/2001/REC-SVG-20010904/DTD/svg10.dtd">
<svg version="1.0" xmlns="http://www.w3.org/2000/svg"
 width="260.000000pt" height="260.000000pt" viewBox="0 0 260.000000 260.000000"
 preserveAspectRatio="xMidYMid meet">
<metadata>
Created by potrace 1.11, written by Peter Selinger 2001-2013
</metadata>
<g transform="translate(0.000000,260.000000) scale(0.100000,-0.100000)"
fill="#000000" stroke="none">
<path d="M1939 2112 c-318 -449 -348 -487 -372 -484 -48 6 -112 -41 -122 -90
-4 -17 -2 -49 5 -73 12 -43 11 -45 -130 -402 -78 -197 -153 -379 -166 -405
-30 -60 -85 -115 -138 -139 -127 -58 -317 37 -342 172 l-7 34 25 -23 c13 -12
27 -22 30 -22 4 0 21 18 38 41 l33 40 -25 27 c-28 30 -48 81 -48 123 0 16 18
112 40 215 22 103 39 189 37 190 -3 3 -167 -284 -196 -343 -54 -109 -65 -272
-23 -365 30 -69 101 -139 179 -179 64 -32 74 -34 168 -34 116 0 156 15 241 89
69 61 102 128 270 549 130 328 140 349 170 362 17 7 41 25 53 41 20 25 22 37
17 85 l-5 56 331 469 c182 258 344 488 360 512 l29 42 -53 0 -53 -1 -346 -487z
m-361 -605 c2 -12 -3 -17 -17 -17 -12 0 -21 6 -21 13 0 31 32 34 38 4z"/>
</g>
</svg>
