<!-- Generator: Adobe Illustrator 18.0.0, SVG Export Plug-In  -->
<svg version="1.1"
	 xmlns="http://www.w3.org/2000/svg" xmlns:xlink="http://www.w3.org/1999/xlink" xmlns:a="http://ns.adobe.com/AdobeSVGViewerExtensions/3.0/"
	 x="0px" y="0px" width="57.3px" height="65.3px" viewBox="0 0 57.3 65.3" enable-background="new 0 0 57.3 65.3"
	 xml:space="preserve">
<defs>
</defs>
<path d="M45.4,2.4C45.4,1.1,44.3,0,43,0c-1.3,0-2.4,1.1-2.4,2.4v9.5c0,1.3,1.1,2.4,2.4,2.4c1.3,0,2.4-1.1,2.4-2.4V2.4z"/>
<path d="M51.8,58.6c0,0.6-0.5,1.2-1.2,1.2H6.7c-0.6,0-1.2-0.5-1.2-1.2V23.4h46.2L51.8,58.6L51.8,58.6z M50.6,7.8h-3.3v4
	c0,2.4-2,4.4-4.4,4.4c-2.4,0-4.4-2-4.4-4.4v-4H18.7v4c0,2.4-2,4.4-4.4,4.4c-2.4,0-4.4-2-4.4-4.4v-4H6.7C3,7.8,0,10.8,0,14.6v44.1
	c0,3.7,3,6.7,6.7,6.7h43.9c3.7,0,6.7-3,6.7-6.7V14.6C57.3,10.8,54.3,7.8,50.6,7.8z"/>
<path d="M16.8,2.4c0-1.3-1.1-2.4-2.4-2.4c-1.3,0-2.4,1.1-2.4,2.4v9.5c0,1.3,1.1,2.4,2.4,2.4c1.3,0,2.4-1.1,2.4-2.4V2.4z"/>
<rect x="41" y="27.5" width="5.1" height="5.3"/>
<rect x="33.5" y="27.5" width="5.1" height="5.3"/>
<rect x="26.1" y="27.5" width="5.1" height="5.3"/>
<rect x="41" y="34.9" width="5.1" height="5.3"/>
<rect x="33.5" y="34.9" width="5.1" height="5.3"/>
<rect x="26.1" y="34.9" width="5.1" height="5.3"/>
<rect x="18.7" y="34.9" width="5.1" height="5.3"/>
<rect x="11.3" y="34.9" width="5.1" height="5.3"/>
<rect x="41" y="42.2" width="5.1" height="5.3"/>
<rect x="33.5" y="42.2" width="5.1" height="5.3"/>
<rect x="26.1" y="42.2" width="5.1" height="5.3"/>
<rect x="18.7" y="42.2" width="5.1" height="5.3"/>
<rect x="11.3" y="42.2" width="5.1" height="5.3"/>
<rect x="33.5" y="49.5" width="5.1" height="5.3"/>
<rect x="26.1" y="49.5" width="5.1" height="5.3"/>
<rect x="18.7" y="49.5" width="5.1" height="5.3"/>
<rect x="11.3" y="49.5" width="5.1" height="5.3"/>
</svg>
 