<!-- Generator: Adobe Illustrator 18.0.0, SVG Export Plug-In  -->
<svg version="1.1"
	 xmlns="http://www.w3.org/2000/svg" xmlns:xlink="http://www.w3.org/1999/xlink" xmlns:a="http://ns.adobe.com/AdobeSVGViewerExtensions/3.0/"
	 x="0px" y="0px" width="56.2px" height="75px" viewBox="0 0 56.2 75" enable-background="new 0 0 56.2 75" xml:space="preserve">
<defs>
</defs>
<path fill-rule="evenodd" clip-rule="evenodd" d="M27.9,32.6l4.6,0.8l-4.1,23.1l-4.6-0.8L27.9,32.6z M37.5,34.6l-3.3,3.3l6.6,6.6
	l-6.6,6.6l3.3,3.3l9.9-9.9L37.5,34.6z M18.8,34.6l3.3,3.3l-6.6,6.6l6.6,6.6l-3.3,3.3l-9.9-9.9L18.8,34.6z M4.7,70.3h46.9V18.8H39.8
	c-2.3,0-2.3-2.3-2.3-2.3V4.7H4.7V70.3z M0,2.3C0,0,2.3,0,2.3,0h37.5l16.4,16.4v56.2c0,2.3-2.4,2.3-2.4,2.3H2.4C0,75,0,72.7,0,72.7
	V2.3z"/>
</svg>
