<!-- Generator: Adobe Illustrator 19.1.0, SVG Export Plug-In  -->
<svg version="1.1"
   xmlns="http://www.w3.org/2000/svg" xmlns:xlink="http://www.w3.org/1999/xlink" xmlns:a="http://ns.adobe.com/AdobeSVGViewerExtensions/3.0/"
   x="0px" y="0px" width="59.7px" height="59.7px" viewBox="0 0 59.7 59.7" enable-background="new 0 0 59.7 59.7"
   xml:space="preserve">
<defs>
</defs>
<path d="M29.8,55.2c-14,0-25.3-11.4-25.3-25.3c0-14,11.4-25.3,25.3-25.3s25.3,11.4,25.3,25.3
  C55.2,43.8,43.8,55.2,29.8,55.2z M29.8,0C13.4,0,0,13.4,0,29.8s13.4,29.8,29.8,29.8c16.5,0,29.8-13.4,29.8-29.8
  C59.7,13.4,46.3,0,29.8,0z"/>
<path d="M29.8,33.6c-0.1,0-0.1,0-0.2,0c-1.9-0.1-3.4-1.6-3.5-3.5c0-0.1,0-0.1,0-0.2c0-2.1,1.7-3.7,3.7-3.7
  c2.1,0,3.7,1.7,3.7,3.7c0,1-0.4,1.9-1.1,2.6C31.8,33.2,30.8,33.6,29.8,33.6z M20,39.7l4.1-6.4c0.6,1,1.4,1.8,2.3,2.3L20,39.7z
   M43.8,13.8l-14.7,9.4c-3.1,0.3-5.6,2.8-6,6l-9.4,14.7c-0.4,0.6-0.3,1.4,0.2,1.9c0.3,0.3,0.7,0.4,1.1,0.4c0.3,0,0.6-0.1,0.8-0.2
  l14.7-9.4c1.5-0.2,2.9-0.8,4-1.9s1.8-2.5,1.9-4l9.4-14.7c0.4-0.6,0.3-1.4-0.2-1.9C45.2,13.5,44.4,13.4,43.8,13.8z"/>
<path d="M32.1,8.7c0,3-4.5,3-4.5,0C27.6,5.7,32.1,5.7,32.1,8.7"/>
<path d="M32.1,50.9c0,3-4.5,3-4.5,0C27.6,48,32.1,48,32.1,50.9"/>
<path d="M53.2,29.8c0,3-4.5,3-4.5,0C48.7,26.9,53.2,26.9,53.2,29.8"/>
<path d="M10.9,29.8c0,3-4.5,3-4.5,0C6.5,26.9,10.9,26.9,10.9,29.8"/>
</svg>
