<!-- Generator: Adobe Illustrator 18.0.0, SVG Export Plug-In  -->
<svg version="1.1"
	 xmlns="http://www.w3.org/2000/svg" xmlns:xlink="http://www.w3.org/1999/xlink" xmlns:a="http://ns.adobe.com/AdobeSVGViewerExtensions/3.0/"
	 x="0px" y="0px" width="32px" height="32px" viewBox="0 0 32 32" enable-background="new 0 0 32 32" xml:space="preserve">
<defs>
</defs>
<path d="M8,6L4,2H2v2l4,4L8,6z M10,0h2v4h-2V0z M18,10h4v2h-4V10z M20,4V2h-2l-4,4l2,2L20,4z M0,10h4v2H0V10z M10,18h2v4h-2V18z
	 M2,18v2h2l4-4l-2-2L2,18z M31.6,27.6L11.7,7.7c-0.6-0.6-1.5-0.6-2.1,0L7.7,9.6c-0.6,0.6-0.6,1.5,0,2.1l19.9,19.9
	c0.6,0.6,1.5,0.6,2.1,0l1.9-1.9C32.1,29.1,32.1,28.1,31.6,27.6z M15,17l-6-6l2-2l6,6L15,17z"/>
</svg>
