<!-- Generator: Adobe Illustrator 18.0.0, SVG Export Plug-In  -->
<svg version="1.1"
	 xmlns="http://www.w3.org/2000/svg" xmlns:xlink="http://www.w3.org/1999/xlink" xmlns:a="http://ns.adobe.com/AdobeSVGViewerExtensions/3.0/"
	 x="0px" y="0px" width="17.2px" height="20px" viewBox="0 0 17.2 20" enable-background="new 0 0 17.2 20" xml:space="preserve">
<defs>
</defs>
<path d="M8.6,0C3.9,0,0,3.8,0,8.5S3.8,17,8.6,17v3c3.4-1.7,8.6-5.3,8.6-11.5C17.2,3.8,13.4,0,8.6,0z M7.6,9.7c0,1.3-1,2.4-2.3,2.5
	c-0.1,0-0.2-0.1-0.2-0.2v-0.9c0-0.1,0.1-0.2,0.2-0.2c0.5-0.1,0.9-0.5,1-1h-2c-0.4,0-0.7-0.3-0.7-0.7V6.7C3.6,6.3,3.9,6,4.3,6h2.5
	c0.4,0,0.7,0.3,0.7,0.7C7.6,6.7,7.6,9.7,7.6,9.7z M13.6,9.7c0,1.3-1,2.4-2.3,2.5c-0.1,0-0.2-0.1-0.2-0.2v-0.9c0-0.1,0.1-0.2,0.2-0.2
	c0.5-0.1,0.9-0.5,1-1h-2c-0.4,0-0.7-0.3-0.7-0.7V6.7C9.6,6.3,9.9,6,10.3,6h2.5c0.4,0,0.7,0.3,0.7,0.7C13.6,6.7,13.6,9.7,13.6,9.7z"
	/>
</svg>
