<!-- Generator: Adobe Illustrator 18.0.0, SVG Export Plug-In  -->
<svg version="1.1"
	 xmlns="http://www.w3.org/2000/svg" xmlns:xlink="http://www.w3.org/1999/xlink" xmlns:a="http://ns.adobe.com/AdobeSVGViewerExtensions/3.0/"
	 x="0px" y="0px" width="306.5px" height="279px" viewBox="0 0 306.5 279" enable-background="new 0 0 306.5 279"
	 xml:space="preserve">
<defs>
</defs>
<path fill="#2580AA" d="M306.5,0L300,0L172.6,124.7c-0.3-0.2-0.6-0.5-0.9-0.7c-6.5-4.2-15.2-2.3-19.3,4.1c-3.3,5.1-2.2,11.9,0.6,16
	l-60.3,95.4l-0.1,0.4c-0.1,0.2-12.8,23.5-33.1,28.7c-9.7,2.5-19.7,0.5-29.8-6.1c-11.6-7.5-18.4-16.8-20-27.6
	c-1.3-8.4,0.6-16.7,3.4-23.9c0.6,6.3,2.8,12.7,7.8,18l6.8-6.4c-10.9-11.6-2.4-32.8-2.3-33l11.4-27.6L17.5,185
	c-0.9,1-21,25.2-17,51.3c2,13.6,10.2,25.1,24.2,34.1c12.4,8,24.9,10.4,37.1,7.2c23.4-6.1,37.2-30.8,38.7-33.2l60.2-95.3
	c4.9,0.9,11.7-0.9,15-5.9c3-4.7,2.9-10.4,0.2-14.8L306.5,0z M168.1,138.3c-1.4,2.2-4.3,2.8-6.4,1.4c-2.2-1.4-2.8-4.3-1.4-6.4
	c1.4-2.2,4.3-2.8,6.4-1.4C168.8,133.3,169.5,136.1,168.1,138.3z"/>
</svg>