<!-- Generator: Adobe Illustrator 18.0.0, SVG Export Plug-In  -->
<svg version="1.1"
	 xmlns="http://www.w3.org/2000/svg" xmlns:xlink="http://www.w3.org/1999/xlink" xmlns:a="http://ns.adobe.com/AdobeSVGViewerExtensions/3.0/"
	 x="0px" y="0px" width="1052px" height="1052px" viewBox="0 0 1052 1052" enable-background="new 0 0 1052 1052"
	 xml:space="preserve">
<defs>
</defs>
<path d="M0,0v1052h1052V0H0z M554.5,901c-15.5,31.5-45.1,52.2-79.4,62.2c-52.7,12.1-103.1,5.2-140.6-17.3
	c-25.1-15.4-44.7-39.1-58-66.4c26.7-16.3,53.3-32.7,80-49c0.7,0.3,2.8,4.1,5.6,9c10.2,17.1,19,29.2,36.3,37.7
	c17,5.8,54.3,9.5,68.7-20.4c8.8-15.2,6-64.8,6-118.9c0-85,0.4-169.4,0.4-254.4h98.4c0,90.5,0.5,180.7,0,270.9
	C572.1,809.7,576.9,859.7,554.5,901z M962.7,873.2c-34.2,117-224.9,120.8-301.1,43.5c-16.1-18.2-26.2-27.7-35.8-48.7
	c40.5-23.3,40.5-23.3,79.9-46.1c21.4,32.9,41.2,51,76.8,58.4c48.3,5.9,96.9-10.7,86-62c-11.2-41.9-98.9-52.1-158.6-96.9
	c-60.6-40.7-74.8-139.6-25-196.1c16.6-20.9,44.9-36.5,74.6-44c10.3-1.3,20.7-2.7,31-4c59.5-1.2,96.7,14.5,124,45
	c7.6,7.7,13.8,16,25.4,34c-31.7,20.2-31.6,20-77,49.4c-9.7-20.9-25.8-34-42.8-39.7c-26.4-8-59.7,0.7-66.6,28.6
	c-2.4,8.6-1.9,16.6,1.9,30.8c10.7,24.4,46.6,35,78.8,49.8c92.7,37.6,124,77.9,131.7,125.9C973.3,842.4,964.1,869.2,962.7,873.2z"/>
</svg>
