<!-- Generator: Adobe Illustrator 18.0.0, SVG Export Plug-In  -->
<svg version="1.1"
	 xmlns="http://www.w3.org/2000/svg" xmlns:xlink="http://www.w3.org/1999/xlink" xmlns:a="http://ns.adobe.com/AdobeSVGViewerExtensions/3.0/"
	 x="0px" y="0px" width="16px" height="16px" viewBox="0 0 16 16" enable-background="new 0 0 16 16" xml:space="preserve">
<defs>
</defs>
<path d="M5.9,12.7L5,13.5c-0.7,0.7-1.8,0.7-2.5,0C2.2,13.2,2,12.7,2,12.2s0.2-0.9,0.5-1.3l3-3c0.6-0.6,1.8-1.5,2.6-0.7
	c0.4,0.4,1,0.4,1.4,0s0.4-1,0-1.4C8.1,4.5,5.9,4.8,4.1,6.6l-3,3C0.4,10.3,0,11.2,0,12.2s0.4,1.9,1.1,2.7C1.8,15.6,2.8,16,3.8,16
	s1.9-0.4,2.7-1.1l0.8-0.8c0.4-0.4,0.4-1,0-1.4C6.9,12.3,6.2,12.3,5.9,12.7z M14.9,1.2C13.3-0.3,11.2-0.4,9.8,1l-1,1
	c-0.4,0.4-0.4,1,0,1.4s1,0.4,1.4,0l1-1c0.7-0.7,1.7-0.4,2.3,0.2C13.8,2.9,14,3.4,14,3.9c0,0.5-0.2,0.9-0.5,1.3l-3.2,3.2
	C8.9,9.7,8.2,9,7.9,8.7c-0.4-0.4-1-0.4-1.4,0s-0.4,1,0,1.4c0.7,0.7,1.4,1,2.2,1c1,0,2-0.5,3-1.5l3.2-3.2C15.6,5.8,16,4.9,16,3.9
	S15.6,1.9,14.9,1.2z"/>
</svg>
