<!-- Generator: Adobe Illustrator 18.0.0, SVG Export Plug-In  -->
<svg version="1.1"
	 xmlns="http://www.w3.org/2000/svg" xmlns:xlink="http://www.w3.org/1999/xlink" xmlns:a="http://ns.adobe.com/AdobeSVGViewerExtensions/3.0/"
	 x="0px" y="0px" width="32px" height="30px" viewBox="0 0 32 30" enable-background="new 0 0 32 30" xml:space="preserve">
<defs>
</defs>
<path d="M16,0c8.8,0,16,7.2,16,16c0,6-3.3,11.3-8.2,14H8.2C3.3,27.3,0,22,0,16C0,7.2,7.2,0,16,0L16,0z M25.1,25.1
	c2.4-2.4,3.8-5.6,3.8-9.1H26v-2h2.7c-0.2-1.4-0.7-2.8-1.3-4H24V8h2c-0.3-0.4-0.6-0.7-0.9-1.1c-1.4-1.4-3.2-2.5-5.1-3.1V6h-2V3.3
	c-0.7-0.1-1.3-0.2-2-0.2c-0.7,0-1.3,0.1-2,0.2V6h-2V3.8c-1.9,0.6-3.6,1.7-5.1,3.1C6.6,7.3,6.3,7.6,6,8h2v2H4.7
	c-0.7,1.2-1.1,2.6-1.3,4H6v2H3.2c0,3.4,1.3,6.6,3.8,9.1c0.3,0.3,0.7,0.6,1,0.9h6l1.1-16h1.7L18,26h6C24.4,25.7,24.7,25.4,25.1,25.1z
	"/>
</svg>
