<!-- Generator: Adobe Illustrator 18.0.0, SVG Export Plug-In  -->
<svg version="1.1"
	 xmlns="http://www.w3.org/2000/svg" xmlns:xlink="http://www.w3.org/1999/xlink" xmlns:a="http://ns.adobe.com/AdobeSVGViewerExtensions/3.0/"
	 x="0px" y="0px" width="290.2px" height="151.1px" viewBox="0 0 290.2 151.1" enable-background="new 0 0 290.2 151.1"
	 xml:space="preserve">
<defs>
</defs>
<g>
	<path d="M85.5,54.7H72.5l-5,29.8h11.9c8.9-1,16.9-4,17.9-20.9C97.4,57.6,92.4,54.7,85.5,54.7z"/>
	<path d="M145.1,0C65,0,0,33.8,0,75.5s65,75.5,145.1,75.5s145.1-33.8,145.1-75.5S225.2,0,145.1,0z M81.5,99.4H63.6l-4,20.9H40.7
		l15.9-80.5h36.8c15.9,1,23.8,8.9,23.8,22.9C117.3,86.5,98.4,100.4,81.5,99.4z M153,99.4l7-36.8c1-5,1-8-6-8h-14.9l-8.9,44.7h-18.9
		l15.9-80.5h18.9l-4,20.9H160c15.9,1,21.9,8.9,19.9,18.9l-7,40.7H153z M214.7,99.4h-17.9l-4,20.9h-18.9l15.9-80.5h36.8
		c15.9,1,23.9,8.9,23.9,22.9C250.4,86.5,231.5,100.4,214.7,99.4z"/>
	<path d="M218.6,54.7h-12.9l-5,29.8h11.9c8.9-1,16.9-4,17.9-20.9C230.6,57.6,225.6,54.7,218.6,54.7z"/>
</g>
</svg>
