<!-- Generator: Adobe Illustrator 18.0.0, SVG Export Plug-In  -->
<svg version="1.1"
	 xmlns="http://www.w3.org/2000/svg" xmlns:xlink="http://www.w3.org/1999/xlink" xmlns:a="http://ns.adobe.com/AdobeSVGViewerExtensions/3.0/"
	 x="0px" y="0px" width="412px" height="247.7px" viewBox="0 0 412 247.7" enable-background="new 0 0 412 247.7"
	 xml:space="preserve">
<defs>
</defs>
<g>
	<path d="M215.2,232.2c-5.2-3.8-5.8-9.6-5.8-9.6l-2-12.5h-62.2l-2,12.5c0,0-0.5,5.7-5.7,9.6c-5.2,3.8-9.3,7.1-5.2,7.7
		c4,0.5,41.3,0,44,0c2.8,0,40.1,0.5,44,0C224.5,239.4,220.4,236.1,215.2,232.2z"/>
	<path d="M70.5,127.6c0-5.8-4.7-10.5-10.5-10.5H10.5c-5.8,0-10.5,4.7-10.5,10.5v109.7c0,5.8,4.7,10.5,10.5,10.5h49.6
		c5.8,0,10.5-4.7,10.5-10.5L70.5,127.6L70.5,127.6z M30.1,128.9h10.5c0.7,0,1.3,0.6,1.3,1.3c0,0.7-0.6,1.3-1.3,1.3H30.1
		c-0.7,0-1.3-0.6-1.3-1.3C28.8,129.4,29.4,128.9,30.1,128.9z M34.9,241.5c-2.9,0-5.2-2.3-5.2-5.2c0-2.9,2.3-5.2,5.2-5.2
		c2.9,0,5.2,2.3,5.2,5.2C40.1,239.2,37.8,241.5,34.9,241.5z M64,226.8H6.5v-87.5H64L64,226.8L64,226.8z"/>
	<path d="M397.3,57H289.8c-8.1,0-14.7,6.6-14.7,14.7v153.9c0,8.1,6.6,14.7,14.7,14.7h107.5c8.1,0,14.7-6.6,14.7-14.7V71.7
		C412,63.6,405.4,57,397.3,57z M322.5,232c-4,0-7.3-3.3-7.3-7.3c0-4,3.3-7.3,7.3-7.3c4,0,7.3,3.3,7.3,7.3
		C329.9,228.7,326.6,232,322.5,232z M343.6,232c-4,0-7.3-3.3-7.3-7.3c0-4,3.3-7.3,7.3-7.3c4.1,0,7.3,3.3,7.3,7.3
		C350.9,228.7,347.6,232,343.6,232z M364.7,232c-4.1,0-7.3-3.3-7.3-7.3c0-4,3.3-7.3,7.3-7.3c4,0,7.3,3.3,7.3,7.3
		C372,228.7,368.7,232,364.7,232z M402.8,210.9H284.4v-141h118.5V210.9L402.8,210.9z"/>
	<path d="M308.5,44.6h18V12c0-6.6-5.4-12-12-12H38.3c-6.6,0-12,5.4-12,12v92.7h18V18h264.3V44.6L308.5,44.6z"/>
	<path d="M82.9,162.2v36h179.9v-36H82.9z M176.4,188.4c-4.5,0-8.2-3.7-8.2-8.2c0-4.5,3.7-8.2,8.2-8.2c4.5,0,8.2,3.7,8.2,8.2
		C184.7,184.7,181,188.4,176.4,188.4z"/>
</g>
</svg>
