<!-- Generator: Adobe Illustrator 19.1.0, SVG Export Plug-In  -->
<svg version="1.1"
   xmlns="http://www.w3.org/2000/svg" xmlns:xlink="http://www.w3.org/1999/xlink" xmlns:a="http://ns.adobe.com/AdobeSVGViewerExtensions/3.0/"
   x="0px" y="0px" width="67.5px" height="67.5px" viewBox="0 0 67.5 67.5" enable-background="new 0 0 67.5 67.5"
   xml:space="preserve">
<defs>
</defs>
<path d="M49.5,4.5h-6V3.8h6V4.5z M64.5,4.5h-6V3.8h6V4.5z M57,4.5h-6V3.8h6V4.5z M42,4.5h-6V3.8h6V4.5z M22.6,47.4
  v-1.8l1.6,0.9L22.6,47.4z M23.2,44.2c-1.3,0-2.2,1-2.2,2.2s1,2.2,2.2,2.2s2.2-1,2.2-2.2S24.5,44.2,23.2,44.2z M66,6.8H1.5V1.5H66
  V6.8z M66,18.8H1.5V7.5H66V18.8z M66,37.5H1.5v-18H66V37.5z M49.5,50.6v0.8h-5.2v-0.8H49.5z M51,51l-0.8,0.8v-1.5L51,51z M57,46.9
  v0.8H44.2v-0.8H57z M44.2,43.9v-1.5h15v1.5H44.2z M58.5,45.4v0.8H44.2v-0.8H58.5z M11.2,53.2V39.8h24v13.5H11.2z M66,66h-6.8v-8h-12
  v8h-1v-8h-12v8h-1v-8h-12v8h-1v-8h-12v8H1.5V55.5H66V66z M0,0v67.5h67.5V0H0z M10.5,3H3v2.2h7.5V3z M62.5,62l-0.2,0.2l1,1l-1,1
  l0.2,0.2l1.3-1.3L62.5,62z M5,64.5l0.2-0.2l-1-1l1-1L5,62l-1.3,1.2L5,64.5z M50.2,32.2v1.5L51,33L50.2,32.2z M49.5,33.4h-5.2v-0.8
  h5.2V33.4z M57,29.6H44.2v-0.8H57V29.6z M58.5,28.1H44.2v-0.8h14.2V28.1z M59.2,24.4h-15v1.5h15V24.4z M32.2,32.2v1.5L33,33
  L32.2,32.2z M31.5,33.4h-5.2v-0.8h5.2V33.4z M39,29.6H26.2v-0.8H39V29.6z M40.5,28.1H26.2v-0.8h14.2V28.1z M41.2,24.4h-15v1.5h15
  V24.4z M14.2,32.2v1.5L15,33L14.2,32.2z M13.5,33.4H8.2v-0.8h5.2V33.4z M21,29.6H8.2v-0.8H21V29.6z M22.5,28.1H8.2v-0.8h14.2V28.1z
   M23.2,24.4h-15v1.5h15V24.4z M19.5,15H8.2v0.8h11.2V15z M24.8,13.5H8.2v-2.2h16.5V13.5z"/>
</svg>
