<!-- Generator: Adobe Illustrator 18.0.0, SVG Export Plug-In  -->
<svg version="1.1"
	 xmlns="http://www.w3.org/2000/svg" xmlns:xlink="http://www.w3.org/1999/xlink" xmlns:a="http://ns.adobe.com/AdobeSVGViewerExtensions/3.0/"
	 x="0px" y="0px" width="69.8px" height="52px" viewBox="0 0 69.8 52" enable-background="new 0 0 69.8 52" xml:space="preserve">
<defs>
</defs>
<path fill-rule="evenodd" clip-rule="evenodd" d="M35.4,46.8c-0.4,0-0.4-0.6,0-0.6S35.9,46.8,35.4,46.8z M61.3,44.7
	c0-0.1-0.1-0.3-0.1-0.4c-0.1-0.2-0.1-0.5-0.2-0.7c0,0,0,0,0,0c0,0,0,0,0-0.1c0,0,0,0,0,0c0,0,0,0,0-0.1c0,0,0-0.1-0.1-0.1
	c-0.1-0.1-0.2-0.1-0.4-0.2c-0.3-0.1-0.6,0-0.9,0.1c-0.4,0.1-0.8,0.2-1.2,0.4c0,0,0,0,0,0c0,0-0.1,0-0.1,0.1c-0.1,0-0.2,0.1-0.3,0.1
	c-0.3,0.2-0.6,0.2-0.9,0.4c-0.2,0.1-0.4,0.1-0.6,0.2c0,0,0,0,0,0c0,0,0,0-0.1,0c-0.2,0.1-0.3,0.1-0.5,0.1c-0.1,0-0.1,0-0.2,0
	c0,0,0,0-0.1,0c-0.7,0.1-1.3,0.1-2,0.1c-0.3,0-0.6-0.1-1-0.1c0.4-0.1,0.7-0.2,1.1-0.2c0.3-0.1,0.6-0.2,0.7-0.5
	c0.1-0.1,0.1-0.2,0-0.3c-0.1-0.2-0.2-0.5-0.4-0.7c-0.2-0.3-0.5-0.6-0.8-0.8c-0.3-0.3-0.7-0.6-1.1-0.8c-0.6-0.2-1.2-0.1-1.6,0.3
	c-0.7,0.5-1.5,0.8-2.1,1.3c-0.1,0.1-0.2,0.1-0.3,0c-0.1-0.4-0.3-0.2-0.5-0.2c-0.2,0.1-0.3,0.1-0.4-0.1c0,0,0-0.1-0.1-0.1
	c0,0,0-0.1-0.1-0.1c0,0,0,0,0,0c0,0,0,0,0-0.1c0,0,0,0,0-0.1c0,0,0,0,0,0c0,0,0,0,0-0.1c-0.2,0-0.2-0.1-0.3-0.2c0-0.2-0.1-0.3,0-0.5
	c0-0.1,0-0.2-0.1-0.1c0,0-0.1,0-0.1,0c-0.2,0.1-0.4,0.1-0.7,0c-0.1,0-0.1-0.1,0-0.2c0,0,0,0,0,0c0-0.2,0.1-0.3,0.2-0.5
	c-0.2,0-0.2,0.1-0.3,0.2c-0.3,0.2-0.7,0.1-0.7-0.3c0-0.1,0-0.2-0.1-0.2c-0.1,0-0.2,0.1-0.2,0.1c-0.5,0.5-0.9,1.1-1.2,1.7
	c0,0.1-0.1,0.2-0.2,0.2c-0.1-0.1-0.1-0.2-0.2-0.3c0,0,0,0,0,0c0,0.1-0.1,0.1-0.2,0.2c-0.1,0.1-0.2,0.2-0.3,0.3
	c-0.1,0.1-0.1,0.1-0.2,0.2c0,0.1-0.2,0.1-0.3,0.1c-0.5,0.1-1,0.2-1.5,0.3c-1.3,0.3-2.5,0.8-3.6,1.6c-0.8,0.6-1.8,1.1-2.8,1.3
	c-0.3,0.1-0.6,0.2-0.8,0.3c-0.1,0.1-0.1,0.1-0.2,0.2c0,0,0,0,0,0c-0.3,0.3,0.2,0.8,0.4,1.1c0,0,0.1,0.1,0.1,0.1c0,0,0,0,0,0
	c0.2,0.1,0.4,0.2,0.6,0.3c0.3,0.1,0.5,0.3,0.8,0.4c0,0,0.1,0,0.1,0c0,0,0,0,0,0c0,0,0.1,0,0.1,0.1c0,0,0.1,0,0.1,0
	c0.1,0,0.1,0,0.2,0.1c0.6,0.1,1.1,0.3,1.7,0.5c0,0,0,0,0,0c0,0,0.1,0,0.1,0c0,0,0.1,0,0.1,0c0.8,0.3,1.7,0.5,2.5,0.6
	c0.3,0,0.5,0.1,0.7,0.3c0.1,0.1,0.3,0.3,0.4,0.4c0.5,0.5,1.1,0.8,1.6,1.1c0.2,0.2,0.5,0.3,0.7,0.3c0.5,0,0.7-0.1,0.6-0.5
	c0-0.4,0-0.8,0-1.1c0-0.3-0.1-0.4-0.4-0.5c-0.1,0-0.2,0-0.3-0.1c0.3-0.1,0.6,0,0.9,0c1.1,0,2.2-0.1,3.3-0.1c1.2,0,2.4-0.2,3.5,0.3
	c0-0.3,0-0.3,0.3-0.3c0.7,0.1,1.4,0.2,2,0.3c0.2,0,0.5,0,0.7,0c0.5-0.1,0.8-0.3,0.8-0.8c0-0.3-0.1-0.6-0.2-0.8
	c0-0.1-0.1-0.1-0.2-0.2c-0.3-0.1-0.6-0.3-1-0.3c0.8-0.3,1.6-0.5,2.5-0.3c0.8,0.3,1.6,0.5,2.4,0.8c0.6,0.2,1.3,0.4,1.9,0.4
	c0.3,0,0.5-0.1,0.7-0.3c0,0,0,0,0-0.1c0-0.1,0.1-0.2,0.1-0.3c0,0,0,0,0,0c0,0,0,0,0,0v0c0,0,0,0,0,0v0c0-0.1,0-0.1,0-0.2
	c0-0.1,0-0.2,0.1-0.3c0-0.1,0-0.1,0-0.2C61.6,46.4,61.5,45.6,61.3,44.7z"/>
<path fill-rule="evenodd" clip-rule="evenodd" d="M2.2,16.5c-0.4,0-0.4-0.6,0-0.6C2.6,15.9,2.6,16.5,2.2,16.5z M28,14.5
	c0-0.1-0.1-0.3-0.1-0.4c-0.1-0.2-0.1-0.5-0.2-0.7c0,0,0,0,0,0c0,0,0,0,0-0.1c0,0,0,0,0,0c0,0,0,0,0-0.1c0,0,0-0.1-0.1-0.1
	C27.5,13,27.4,13,27.2,13c-0.3-0.1-0.6,0-0.9,0.1c-0.4,0.1-0.8,0.2-1.2,0.4c0,0,0,0,0,0c0,0-0.1,0-0.1,0.1c-0.1,0-0.2,0.1-0.3,0.1
	c-0.3,0.2-0.6,0.2-0.9,0.4c-0.2,0.1-0.4,0.1-0.6,0.2c0,0,0,0,0,0c0,0,0,0-0.1,0c-0.2,0.1-0.3,0.1-0.5,0.1c-0.1,0-0.1,0-0.2,0
	c0,0,0,0-0.1,0c-0.7,0.1-1.3,0.1-2,0.1c-0.3,0-0.6-0.1-1-0.1c0.4-0.1,0.7-0.2,1.1-0.2c0.3-0.1,0.6-0.2,0.7-0.5
	c0.1-0.1,0.1-0.2,0-0.3c-0.1-0.2-0.2-0.5-0.4-0.7c-0.2-0.3-0.5-0.6-0.8-0.8c-0.3-0.3-0.7-0.6-1.1-0.8c-0.6-0.2-1.2-0.1-1.6,0.3
	c-0.7,0.5-1.5,0.8-2.1,1.3c-0.1,0.1-0.2,0.1-0.3,0c-0.1-0.4-0.3-0.2-0.5-0.2c-0.2,0.1-0.3,0.1-0.4-0.1c0,0,0-0.1-0.1-0.1
	c0,0,0-0.1-0.1-0.1c0,0,0,0,0,0c0,0,0,0,0-0.1c0,0,0,0,0-0.1c0,0,0,0,0,0c0,0,0,0,0-0.1c-0.2,0-0.2-0.1-0.3-0.2c0-0.2-0.1-0.3,0-0.5
	c0-0.1,0-0.2-0.1-0.1c0,0-0.1,0-0.1,0c-0.2,0.1-0.4,0.1-0.7,0c-0.1,0-0.1-0.1,0-0.2c0,0,0,0,0,0c0-0.2,0.1-0.3,0.2-0.5
	c-0.2,0-0.2,0.1-0.3,0.2c-0.3,0.2-0.7,0.1-0.7-0.3c0-0.1,0-0.2-0.1-0.2c-0.1,0-0.2,0.1-0.2,0.1c-0.5,0.5-0.9,1.1-1.2,1.7
	c0,0.1-0.1,0.2-0.2,0.2C10,12.1,10,12,9.9,11.9c0,0,0,0,0,0c0,0.1-0.1,0.1-0.2,0.2c-0.1,0.1-0.2,0.2-0.3,0.3
	c-0.1,0.1-0.1,0.1-0.2,0.2c0,0.1-0.2,0.1-0.3,0.1c-0.5,0.1-1,0.2-1.5,0.3c-1.3,0.3-2.5,0.8-3.6,1.6c-0.8,0.6-1.8,1.1-2.8,1.3
	c-0.3,0.1-0.6,0.2-0.8,0.3c-0.1,0.1-0.1,0.1-0.2,0.2c0,0,0,0,0,0c-0.3,0.3,0.2,0.8,0.4,1.1c0,0,0.1,0.1,0.1,0.1c0,0,0,0,0,0
	c0.2,0.1,0.4,0.2,0.6,0.3c0.3,0.1,0.5,0.3,0.8,0.4c0,0,0.1,0,0.1,0c0,0,0,0,0,0c0,0,0.1,0,0.1,0.1c0,0,0.1,0,0.1,0
	c0.1,0,0.1,0,0.2,0.1c0.6,0.1,1.1,0.3,1.7,0.5c0,0,0,0,0,0c0,0,0.1,0,0.1,0c0,0,0.1,0,0.1,0c0.8,0.3,1.7,0.5,2.5,0.6
	c0.3,0,0.5,0.1,0.7,0.3c0.1,0.1,0.3,0.3,0.4,0.4c0.5,0.5,1.1,0.8,1.6,1.1c0.2,0.2,0.5,0.3,0.7,0.3c0.5,0,0.7-0.1,0.6-0.5
	c-0.1-0.4,0-0.8,0-1.1c0-0.3-0.1-0.4-0.4-0.5c-0.1,0-0.2,0-0.3-0.1c0.3-0.1,0.6,0,0.9,0c1.1,0,2.2-0.1,3.3-0.1
	c1.2,0,2.4-0.2,3.5,0.3c0-0.3,0-0.3,0.3-0.3c0.7,0.1,1.4,0.2,2,0.3c0.2,0,0.5,0,0.7,0c0.5-0.1,0.8-0.3,0.8-0.8
	c0-0.3-0.1-0.6-0.2-0.8c0-0.1-0.1-0.1-0.2-0.2c-0.3-0.1-0.6-0.3-1-0.3c0.8-0.3,1.6-0.5,2.5-0.3c0.8,0.3,1.6,0.5,2.4,0.8
	c0.6,0.2,1.3,0.4,1.9,0.4c0.3,0,0.5-0.1,0.7-0.3c0,0,0,0,0-0.1c0-0.1,0.1-0.2,0.1-0.3c0,0,0,0,0,0c0,0,0,0,0,0v0c0,0,0,0,0,0v0
	c0-0.1,0-0.1,0-0.2c0-0.1,0-0.2,0.1-0.3c0-0.1,0-0.1,0-0.2C28.4,16.2,28.2,15.3,28,14.5z"/>
<path fill-rule="evenodd" clip-rule="evenodd" d="M26.5,24.9c-0.6,0-0.6-1,0-1C27.1,23.9,27.1,24.9,26.5,24.9z M66.1,21.8
	c-0.1-0.2-0.1-0.4-0.2-0.6c-0.1-0.4-0.2-0.7-0.3-1.1c0,0,0,0,0,0c0,0,0-0.1-0.1-0.1c0,0,0,0,0,0c0,0,0-0.1-0.1-0.1
	c0-0.1-0.1-0.1-0.1-0.2c-0.2-0.1-0.4-0.2-0.7-0.2c-0.5-0.1-0.9,0-1.3,0.1c-0.6,0.1-1.2,0.4-1.9,0.6c0,0,0,0-0.1,0
	c-0.1,0-0.1,0.1-0.2,0.1c-0.1,0.1-0.3,0.1-0.4,0.2c-0.4,0.2-0.9,0.4-1.4,0.6c-0.3,0.1-0.6,0.2-1,0.3c0,0,0,0,0,0c0,0-0.1,0-0.1,0
	c-0.2,0.1-0.5,0.2-0.7,0.2c-0.1,0-0.2,0.1-0.3,0.1c0,0-0.1,0-0.1,0c-1,0.2-2,0.2-3.1,0.1c-0.5-0.1-1-0.1-1.5-0.2
	c0.6-0.2,1.1-0.3,1.7-0.4c0.5-0.1,0.9-0.3,1.1-0.7c0.1-0.1,0.1-0.3,0.1-0.4c-0.2-0.4-0.4-0.7-0.6-1.1c-0.3-0.5-0.8-0.9-1.2-1.3
	c-0.5-0.5-1-0.9-1.6-1.2c-0.9-0.3-1.8-0.2-2.5,0.4c-1,0.8-2.3,1.2-3.3,2c-0.1,0.1-0.3,0.2-0.4,0c-0.2-0.6-0.5-0.4-0.8-0.2
	c-0.2,0.1-0.4,0.1-0.6-0.1c0-0.1-0.1-0.1-0.1-0.2c0,0-0.1-0.1-0.1-0.2c0,0,0,0,0,0c0,0,0-0.1,0-0.1c0,0,0-0.1,0-0.1c0,0,0,0,0,0
	c0,0,0-0.1,0-0.1c-0.3,0-0.4-0.1-0.4-0.3c-0.1-0.2-0.1-0.5-0.1-0.7c0-0.1,0-0.3-0.2-0.2c-0.1,0-0.1,0-0.2,0.1
	c-0.3,0.1-0.7,0.1-1-0.1c-0.2-0.1-0.1-0.2-0.1-0.3c0,0,0,0,0,0c0.1-0.3,0.2-0.5,0.3-0.7c-0.2,0-0.4,0.1-0.5,0.2
	c-0.5,0.4-1,0.2-1.1-0.5c0-0.1,0-0.3-0.1-0.3c-0.2,0-0.3,0.1-0.4,0.2c-0.7,0.8-1.4,1.7-1.8,2.7c-0.1,0.1-0.1,0.3-0.2,0.3
	c-0.1-0.1-0.2-0.3-0.3-0.5c0,0,0,0,0,0c-0.1,0.1-0.1,0.2-0.2,0.3c-0.1,0.1-0.3,0.3-0.5,0.4c-0.1,0.1-0.2,0.2-0.2,0.3
	c-0.1,0.2-0.3,0.2-0.4,0.2c-0.8,0.1-1.6,0.2-2.4,0.4c-2,0.4-3.8,1.2-5.5,2.4c-1.3,0.9-2.7,1.6-4.2,2c-0.5,0.1-0.9,0.2-1.3,0.5
	c-0.1,0.1-0.2,0.2-0.3,0.3c0,0,0,0,0,0c-0.5,0.5,0.3,1.3,0.6,1.7c0,0,0.1,0.1,0.1,0.1c0,0,0,0,0,0c0.3,0.2,0.6,0.4,0.9,0.5
	c0.4,0.2,0.8,0.4,1.2,0.6c0.1,0,0.1,0,0.1,0.1c0,0,0,0,0,0c0.1,0,0.1,0.1,0.2,0.1c0.1,0,0.1,0,0.2,0.1c0.1,0,0.2,0.1,0.3,0.1
	c0.9,0.2,1.7,0.5,2.6,0.7c0,0,0,0,0,0c0,0,0.1,0,0.1,0c0,0,0.1,0,0.1,0c1.3,0.4,2.5,0.8,3.9,0.9c0.4,0,0.8,0.1,1.1,0.5
	c0.2,0.2,0.4,0.4,0.6,0.6c0.7,0.7,1.6,1.2,2.4,1.8c0.3,0.2,0.7,0.5,1.1,0.5c0.8,0,1.1-0.1,1-0.8c-0.1-0.6,0-1.2,0-1.8
	c0-0.5-0.1-0.6-0.6-0.8c-0.1,0-0.3-0.1-0.4-0.1c0.5-0.1,0.9,0.1,1.4,0.1c1.7,0,3.3-0.1,5-0.1c1.8,0,3.6-0.3,5.4,0.4
	c0-0.4,0.1-0.5,0.5-0.4c1,0.2,2.1,0.3,3.1,0.5c0.4,0.1,0.7,0.1,1.1,0c0.8-0.1,1.2-0.5,1.2-1.3c0-0.4-0.2-0.9-0.3-1.3
	c0-0.2-0.2-0.2-0.4-0.3c-0.5-0.2-1-0.4-1.5-0.4c1.2-0.4,2.5-0.8,3.8-0.4c1.2,0.4,2.4,0.8,3.6,1.2c1,0.3,1.9,0.6,3,0.5
	c0.5,0,0.8-0.2,1-0.5c0,0,0-0.1,0.1-0.1c0.1-0.2,0.1-0.3,0.2-0.5c0,0,0,0,0-0.1c0,0,0,0,0,0c0,0,0,0,0,0c0,0,0,0,0,0c0,0,0,0,0,0
	c0-0.1,0.1-0.2,0.1-0.3c0-0.2,0.1-0.3,0.1-0.5c0-0.1,0-0.2,0-0.2C66.7,24.4,66.4,23.1,66.1,21.8z"/>
<path fill-rule="evenodd" clip-rule="evenodd" d="M3.1,39.9c-0.5,0-0.5-0.8,0-0.8S3.6,39.9,3.1,39.9z M36.8,37.3
	c-0.1-0.2-0.1-0.4-0.1-0.5c-0.1-0.3-0.1-0.6-0.2-0.9c0,0,0,0,0,0c0,0,0-0.1,0-0.1c0,0,0,0,0,0c0,0,0-0.1,0-0.1c0,0-0.1-0.1-0.1-0.1
	c-0.1-0.1-0.3-0.2-0.6-0.2c-0.4-0.1-0.8,0-1.1,0.1c-0.5,0.1-1.1,0.3-1.6,0.5c0,0,0,0-0.1,0c-0.1,0-0.1,0.1-0.2,0.1
	c-0.1,0.1-0.2,0.1-0.4,0.2c-0.4,0.2-0.8,0.3-1.2,0.5c-0.3,0.1-0.5,0.2-0.8,0.2c0,0,0,0,0,0c0,0-0.1,0-0.1,0
	c-0.2,0.1-0.4,0.1-0.6,0.2c-0.1,0-0.2,0.1-0.2,0.1c0,0-0.1,0-0.1,0c-0.9,0.2-1.7,0.2-2.6,0.1c-0.4-0.1-0.8-0.1-1.3-0.2
	c0.5-0.1,1-0.2,1.4-0.3c0.4-0.1,0.7-0.3,1-0.6c0.1-0.1,0.1-0.2,0-0.4c-0.2-0.3-0.3-0.6-0.5-0.9c-0.3-0.4-0.7-0.7-1-1.1
	c-0.4-0.4-0.9-0.8-1.4-1c-0.8-0.3-1.5-0.2-2.1,0.4c-0.9,0.7-1.9,1-2.8,1.7c-0.1,0.1-0.3,0.1-0.3,0c-0.1-0.5-0.4-0.3-0.7-0.2
	c-0.2,0.1-0.4,0.1-0.5-0.1c0-0.1-0.1-0.1-0.1-0.2c0,0-0.1-0.1-0.1-0.2c0,0,0,0,0,0c0,0,0,0,0-0.1c0,0,0-0.1,0-0.1c0,0,0,0,0,0
	c0,0,0,0,0-0.1c-0.2,0-0.3-0.1-0.4-0.3C18,33.5,18,33.3,18,33.1c0-0.1,0-0.3-0.1-0.2c-0.1,0-0.1,0-0.2,0c-0.3,0.1-0.6,0.1-0.9-0.1
	c-0.1-0.1-0.1-0.2-0.1-0.3c0,0,0,0,0,0c0.1-0.2,0.2-0.4,0.3-0.6c-0.2,0-0.3,0.1-0.4,0.2c-0.4,0.3-0.9,0.2-1-0.4c0-0.1,0-0.3-0.1-0.3
	c-0.1,0-0.2,0.1-0.3,0.2c-0.6,0.7-1.2,1.4-1.5,2.3c0,0.1-0.1,0.2-0.2,0.3c-0.1-0.1-0.2-0.2-0.2-0.4c0,0,0,0,0,0
	C13.2,34,13.1,34,13,34.1c-0.1,0.1-0.2,0.2-0.4,0.3c-0.1,0.1-0.2,0.2-0.2,0.3c-0.1,0.1-0.2,0.1-0.4,0.2c-0.7,0.1-1.3,0.2-2,0.3
	c-1.7,0.4-3.3,1.1-4.7,2c-1.1,0.8-2.3,1.4-3.6,1.7C1.4,39,1,39.2,0.7,39.4c-0.1,0.1-0.2,0.2-0.3,0.2c0,0,0,0,0,0
	c-0.4,0.4,0.2,1.1,0.5,1.4c0,0,0.1,0.1,0.1,0.1c0,0,0,0,0,0c0.2,0.2,0.5,0.3,0.7,0.5c0.3,0.2,0.7,0.3,1,0.5c0,0,0.1,0,0.1,0.1
	c0,0,0,0,0,0c0.1,0,0.1,0.1,0.2,0.1c0.1,0,0.1,0,0.2,0.1c0.1,0,0.2,0,0.3,0.1C4.3,42.6,5,42.8,5.8,43c0,0,0,0,0,0c0,0,0.1,0,0.1,0
	c0,0,0.1,0,0.1,0c1.1,0.3,2.2,0.7,3.3,0.8c0.4,0,0.7,0.1,0.9,0.4c0.1,0.2,0.4,0.4,0.5,0.5c0.6,0.6,1.4,1,2.1,1.5
	c0.3,0.2,0.6,0.4,0.9,0.4c0.7,0,0.9-0.1,0.8-0.7c-0.1-0.5,0-1,0-1.5c0-0.4-0.1-0.6-0.5-0.7c-0.1,0-0.2-0.1-0.3-0.1
	c0.4-0.1,0.8,0.1,1.2,0.1c1.4,0,2.8-0.1,4.2-0.1c1.5,0,3.1-0.3,4.6,0.4c0-0.4,0-0.4,0.4-0.4c0.9,0.1,1.8,0.3,2.7,0.4
	c0.3,0.1,0.6,0.1,0.9,0c0.7-0.1,1-0.4,1-1.1c0-0.4-0.1-0.7-0.2-1.1c0-0.1-0.2-0.2-0.3-0.2c-0.4-0.1-0.8-0.4-1.3-0.4
	c1.1-0.4,2.1-0.7,3.2-0.3c1,0.3,2.1,0.7,3.1,1c0.8,0.3,1.6,0.5,2.5,0.5c0.4,0,0.7-0.2,0.9-0.4c0,0,0-0.1,0.1-0.1
	c0-0.1,0.1-0.3,0.2-0.4c0,0,0,0,0,0c0,0,0,0,0,0v0c0,0,0,0,0,0l0,0c0-0.1,0-0.2,0.1-0.3c0-0.1,0.1-0.3,0.1-0.4v0c0-0.1,0-0.1,0-0.2
	C37.3,39.5,37.1,38.4,36.8,37.3z"/>
<path fill-rule="evenodd" clip-rule="evenodd" d="M35.7,8.4c-0.5,0-0.5-0.8,0-0.8S36.3,8.4,35.7,8.4z M69.5,5.8
	c-0.1-0.2-0.1-0.4-0.1-0.5c-0.1-0.3-0.1-0.6-0.2-0.9c0,0,0,0,0,0c0,0,0-0.1,0-0.1c0,0,0,0,0,0c0,0,0-0.1,0-0.1c0,0-0.1-0.1-0.1-0.1
	c-0.1-0.1-0.3-0.2-0.6-0.2c-0.4-0.1-0.8,0-1.1,0.1c-0.5,0.1-1.1,0.3-1.6,0.5c0,0,0,0-0.1,0c-0.1,0-0.1,0.1-0.2,0.1
	c-0.1,0.1-0.2,0.1-0.4,0.2c-0.4,0.2-0.8,0.3-1.2,0.5c-0.3,0.1-0.5,0.2-0.8,0.2c0,0,0,0,0,0c0,0-0.1,0-0.1,0
	c-0.2,0.1-0.4,0.1-0.6,0.2c-0.1,0-0.2,0.1-0.2,0.1c0,0-0.1,0-0.1,0c-0.9,0.2-1.7,0.2-2.6,0.1c-0.4-0.1-0.8-0.1-1.3-0.2
	c0.5-0.1,1-0.2,1.4-0.3c0.4-0.1,0.7-0.3,1-0.6c0.1-0.1,0.1-0.2,0-0.4C60.3,4,60.2,3.7,60,3.4c-0.3-0.4-0.7-0.7-1-1.1
	c-0.4-0.4-0.9-0.8-1.4-1c-0.8-0.3-1.5-0.2-2.1,0.4c-0.9,0.7-1.9,1-2.8,1.7c-0.1,0.1-0.3,0.1-0.3,0c-0.1-0.5-0.4-0.3-0.7-0.2
	c-0.2,0.1-0.4,0.1-0.5-0.1c0-0.1-0.1-0.1-0.1-0.2c0,0-0.1-0.1-0.1-0.2c0,0,0,0,0,0c0,0,0,0,0-0.1c0,0,0-0.1,0-0.1c0,0,0,0,0,0
	c0,0,0,0,0-0.1c-0.2,0-0.3-0.1-0.4-0.3c-0.1-0.2-0.1-0.4-0.1-0.6c0-0.1,0-0.3-0.1-0.2c-0.1,0-0.1,0-0.2,0c-0.3,0.1-0.6,0.1-0.9-0.1
	c-0.1-0.1-0.1-0.2-0.1-0.3c0,0,0,0,0,0c0.1-0.2,0.2-0.4,0.3-0.6c-0.2,0-0.3,0.1-0.4,0.2c-0.4,0.3-0.9,0.2-1-0.4c0-0.1,0-0.3-0.1-0.3
	c-0.1,0-0.2,0.1-0.3,0.2c-0.6,0.7-1.2,1.4-1.5,2.3c0,0.1-0.1,0.2-0.2,0.3c-0.1-0.1-0.2-0.2-0.2-0.4c0,0,0,0,0,0
	c-0.1,0.1-0.1,0.2-0.2,0.2c-0.1,0.1-0.2,0.2-0.4,0.3C45.2,3,45.1,3.1,45,3.2c-0.1,0.1-0.2,0.1-0.4,0.2c-0.7,0.1-1.3,0.2-2,0.3
	C41,4,39.4,4.7,38,5.7c-1.1,0.8-2.3,1.4-3.6,1.7c-0.4,0.1-0.8,0.2-1.1,0.4C33.2,8,33.1,8,33,8.1c0,0,0,0,0,0
	c-0.4,0.4,0.2,1.1,0.5,1.4c0,0,0.1,0.1,0.1,0.1c0,0,0,0,0,0c0.2,0.2,0.5,0.3,0.7,0.5c0.3,0.2,0.7,0.3,1,0.5c0,0,0.1,0,0.1,0.1
	c0,0,0,0,0,0c0.1,0,0.1,0.1,0.2,0.1c0.1,0,0.1,0,0.2,0.1c0.1,0,0.2,0,0.3,0.1c0.7,0.2,1.5,0.4,2.2,0.6c0,0,0,0,0,0c0,0,0.1,0,0.1,0
	c0,0,0.1,0,0.1,0c1.1,0.3,2.2,0.7,3.3,0.8c0.4,0,0.7,0.1,0.9,0.4c0.1,0.2,0.4,0.4,0.5,0.5c0.6,0.6,1.4,1,2.1,1.5
	c0.3,0.2,0.6,0.4,0.9,0.4c0.7,0,0.9-0.1,0.8-0.7c-0.1-0.5,0-1,0-1.5c0-0.4-0.1-0.6-0.5-0.7c-0.1,0-0.2-0.1-0.3-0.1
	c0.4-0.1,0.8,0.1,1.2,0.1c1.4,0,2.8-0.1,4.2-0.1c1.5,0,3.1-0.3,4.6,0.4c0-0.4,0-0.4,0.4-0.4c0.9,0.1,1.8,0.3,2.7,0.4
	c0.3,0.1,0.6,0.1,0.9,0c0.7-0.1,1-0.4,1-1.1c0-0.4-0.1-0.7-0.2-1.1c0-0.1-0.2-0.2-0.3-0.2c-0.4-0.1-0.8-0.4-1.3-0.4
	c1.1-0.4,2.1-0.7,3.2-0.3c1,0.3,2.1,0.7,3.1,1c0.8,0.3,1.6,0.5,2.5,0.5c0.4,0,0.7-0.2,0.9-0.4c0,0,0-0.1,0.1-0.1
	c0.1-0.1,0.1-0.3,0.2-0.4c0,0,0,0,0,0c0,0,0,0,0,0v0c0,0,0,0,0,0l0,0c0-0.1,0-0.2,0.1-0.3c0-0.1,0.1-0.3,0.1-0.4v0
	c0-0.1,0-0.1,0-0.2C69.9,8,69.7,6.9,69.5,5.8z"/>
</svg>
