<!-- Generator: Adobe Illustrator 18.0.0, SVG Export Plug-In  -->
<svg version="1.1"
	 xmlns="http://www.w3.org/2000/svg" xmlns:xlink="http://www.w3.org/1999/xlink" xmlns:a="http://ns.adobe.com/AdobeSVGViewerExtensions/3.0/"
	 x="0px" y="0px" width="142.5px" height="85.7px" viewBox="0 0 142.5 85.7" enable-background="new 0 0 142.5 85.7"
	 xml:space="preserve">
<defs>
</defs>
<g>
	<path d="M86,64c-0.4-4.6-0.7-9.3-1.1-13.9c-2.2,1.9-4.3,3.8-6.4,5.7C81,58.5,83.4,61.3,86,64z M101.2,81c2.1-1.9,4.2-3.8,6.4-5.7
		c-4.6-0.9-9.2-1.7-13.8-2.5C96.3,75.5,98.8,78.3,101.2,81z"/>
	<path d="M141.7,41.8c0.8,3.3,1,6.8,0.4,10.2l-0.1,0.2c-11.8,4.1-38.2,12.1-50.3,16c11.6-2.8,37.9-9.5,49.5-12.3
		c-1.1,3.5-2.8,6.9-4.8,10c-10,0.9-34.7,2.1-44.6,3c9.3,0.2,33.3-0.2,42.6-0.1c-1.9,2.8-4.2,5.6-7.3,7.2c-1.5,0.8-3.3,1.2-4.9,0.9
		c-10.6-2-21.2-3.9-31.8-5.8c-1.7-0.3-2.9-1.8-3-3.5c-0.7-10.5-1.4-21.1-2.3-31.6c-0.3-2.2,0.8-4.4,2.2-6.2c1.9-2.4,4.6-4.2,7.2-5.8
		c-1,9.5-4.1,32.8-5,42.3c2-10.1,6.1-33.9,8.1-44c3.3-1.7,6.9-3,10.5-3.7c-4,11.3-13.9,36.7-18,47.9c0.7-1.6,7.1-16.1,7.6-17.1
		c4.8-10.3,9.4-20.8,14.2-31.2c3.5-0.1,7.1,0.4,10.2,1.8c-6.3,9.7-12.9,19.2-19.2,28.9c-1.1,1.7-9,13-12.2,17.9
		c3.3-4.5,12.1-15.7,13.4-17.3c7.2-9.4,14-18.8,21.2-28.1c2.9,1.7,5.1,3.2,7.3,5.6c-9.8,9.4-18,18.3-27.8,27.6
		c-0.1,0.2-13.7,12.6-13.7,12.6s22.5-18.3,27.3-22.4c5.8-4.8,11.3-9.8,17.1-14.6c2.2,2.5,3.7,5.2,5.1,8.3c-0.7,0.5-1.4,1-2.1,1.4
		c-10.6,6.5-21.3,12.6-31.9,19.1c-0.6,0.3-13.9,8-15,8.7"/>
	<path d="M101.2,81c-2.5-2.7-4.9-5.5-7.4-8.3c4.6,0.8,9.2,1.7,13.8,2.5C105.5,77.2,103.4,79.1,101.2,81z"/>
	<path d="M86,64c-2.5-2.7-5-5.5-7.5-8.2c2.2-1.9,4.2-3.8,6.4-5.7C85.2,54.7,85.6,59.3,86,64z"/>
</g>
<g>
	<path d="M43.5,14c2.1-2.2,4.2-4.3,6.3-6.5c-1.8-0.2-3.7-0.4-5.5-0.7C44.1,9.3,43.8,11.6,43.5,14z M41.8,28.7
		c1.8,0.2,3.6,0.4,5.5,0.6c-1.5-2.6-3.1-5.2-4.6-7.7C42.4,23.9,42.1,26.3,41.8,28.7z"/>
	<path d="M78,31.4c-1.2,1.8-2.8,3.4-4.7,4.6l-0.2,0c-7-4-22.1-13.3-29.2-17.4C50.2,23,64.7,32.8,71,37.2c-2.2,1-4.5,1.6-6.9,1.9
		c-4.7-4.4-15.8-15.8-20.5-20.3c3.9,4.6,14.3,16,18.2,20.5c-2.2,0.3-4.5,0.4-6.6-0.5c-1-0.4-2-1.1-2.5-2c-3.5-6-7.2-11.9-10.7-17.8
		c-0.6-1-0.4-2.2,0.5-2.9c4.8-4.8,9.6-9.7,14.3-14.6c0.9-1.1,2.5-1.5,3.9-1.6c2-0.1,4,0.4,5.8,1C61.5,4.6,49,13,44,16.6
		c5.7-3.3,19-11.5,24.7-14.8c2.2,0.9,4.4,2,6.2,3.5c-7.2,2.9-23.6,8.9-30.8,11.8c1.1-0.3,10.8-3.4,11.5-3.6c7-2.1,14.1-4.3,21.1-6.4
		c1.6,1.7,2.8,3.6,3.5,5.7c-7.4,1.1-14.7,1.9-22.1,3c-1.3,0.2-10.1,1.2-13.8,1.8c3.5-0.3,12.8-0.9,14-0.9c7.6-0.5,15-1.3,22.6-1.8
		c0.4,2.1,0.6,3.8,0.4,5.9c-8.7-0.7-16.5-0.9-25.2-1.6c-0.2,0-11.9-1.2-11.9-1.2s18.4,3,22.4,3.6c4.8,0.8,9.5,1.3,14.3,2
		c-0.3,2.1-0.9,4-1.8,6c-0.5-0.1-1.1-0.3-1.6-0.4c-7.6-2.3-15.2-4.9-22.8-7.2c-0.4-0.1-9.8-3.3-10.6-3.5"/>
	<path d="M41.8,28.7c0.3-2.4,0.5-4.7,0.8-7.1c1.6,2.6,3.1,5.1,4.6,7.7C45.5,29.1,43.6,28.9,41.8,28.7z"/>
	<path d="M43.5,14c0.2-2.4,0.5-4.7,0.8-7.1c1.8,0.2,3.7,0.4,5.5,0.7C47.7,9.7,45.6,11.9,43.5,14z"/>
</g>
<g>
	<path d="M47,82.8c-2.4-0.2-4.7-0.5-7.1-0.8c0.7,1.3,1.5,2.5,2.3,3.7C43.8,84.7,45.4,83.8,47,82.8z M57,76.7
		c-0.8-1.2-1.5-2.5-2.3-3.7c-0.9,2.2-1.7,4.4-2.6,6.6C53.8,78.7,55.4,77.7,57,76.7z"/>
	<path d="M41.1,52.9c1.7-0.1,3.5,0.1,5.1,0.7l0.1,0.1c0.9,6.3,2.5,20.2,3.3,26.6c-0.3-6-1.2-19.8-1.5-25.9c1.7,0.9,3.2,2,4.5,3.3
		c-0.5,5.1-2.2,17.5-2.7,22.6c1-4.6,3-16.6,3.9-21.3c1.2,1.2,2.4,2.6,2.9,4.3c0.2,0.8,0.3,1.8,0,2.5c-2,5.1-3.9,10.2-5.9,15.3
		c-0.3,0.8-1.2,1.3-2,1.1c-5.3-0.6-10.7-1.3-16-1.8c-1.1-0.1-2.1-0.8-2.9-1.7c-1-1.2-1.7-2.7-2.2-4.1c4.7,1.4,16,5.1,20.6,6.4
		c-4.9-1.9-16.4-6.2-21.2-8.1c-0.5-1.8-0.9-3.7-0.9-5.6c5.3,3.1,17,10.4,22.3,13.4c-0.7-0.5-7.4-5-7.9-5.4c-4.7-3.3-9.5-6.6-14.3-10
		c0.3-1.8,0.9-3.5,1.8-4.9c4.3,4.1,8.4,8.2,12.7,12.3c0.7,0.7,5.7,5.7,7.8,7.7c-1.9-2.1-6.7-7.5-7.4-8.3c-4-4.5-8.1-8.7-12.1-13.2
		c1.1-1.3,2.1-2.2,3.5-3.1c3.8,5.7,7.4,10.7,11.2,16.4c0.1,0.1,5,8,5,8S42,67.5,40.4,64.8c-1.9-3.3-3.9-6.5-5.7-9.9
		c1.5-0.8,2.9-1.4,4.6-1.8c0.2,0.4,0.3,0.8,0.5,1.2c2.3,5.9,4.3,11.8,6.6,17.7c0.1,0.3,2.7,7.7,3,8.3"/>
	<path d="M57,76.7c-1.6,1-3.2,2-4.8,2.9c0.8-2.2,1.7-4.4,2.6-6.6C55.5,74.2,56.2,75.5,57,76.7z"/>
	<path d="M47,82.8c-1.6,1-3.2,2-4.8,3c-0.7-1.2-1.5-2.5-2.3-3.7C42.3,82.3,44.7,82.5,47,82.8z"/>
</g>
<g>
	<path d="M2.9,34c0-1.9-0.1-3.8-0.1-5.7C1.8,29,0.9,29.8,0,30.5C1,31.7,1.9,32.9,2.9,34z M8.7,41.4c0.9-0.7,1.8-1.5,2.7-2.2
		c-1.9-0.5-3.7-0.9-5.6-1.4C6.8,39,7.8,40.2,8.7,41.4z"/>
	<path d="M26.2,26.3c0.2,1.4,0.3,2.8-0.1,4.2l-0.1,0.1c-4.9,1.4-15.9,4.1-21,5.4c4.8-0.9,15.8-3,20.6-3.9c-0.5,1.4-1.3,2.7-2.2,4
		c-4.1,0.1-14.3,0-18.4,0.2c3.8,0.3,13.6,0.7,17.5,1c-0.8,1.1-1.9,2.2-3.2,2.8c-0.6,0.3-1.4,0.4-2,0.2c-4.3-1.1-8.6-2.1-12.9-3.1
		c-0.7-0.2-1.2-0.8-1.1-1.5c0-4.3-0.1-8.7-0.2-13c-0.1-0.9,0.4-1.8,1-2.5c0.8-1,2-1.6,3.1-2.2C6.7,21.7,4.8,31.1,4.2,35
		c1.1-4.1,3.3-13.7,4.4-17.8c1.4-0.6,2.9-1.1,4.4-1.3c-1.9,4.5-6.6,14.7-8.5,19.2c0.3-0.6,3.3-6.4,3.5-6.8c2.2-4.1,4.4-8.3,6.5-12.4
		c1.4,0,2.9,0.3,4.1,1c-2.8,3.8-5.7,7.5-8.6,11.4c-0.5,0.7-4,5.1-5.4,7.1c1.4-1.8,5.3-6.2,5.9-6.8c3.2-3.7,6.2-7.4,9.4-11
		c1.1,0.8,2,1.4,2.9,2.5c-4.2,3.6-7.8,7.1-12,10.7c-0.1,0.1-5.9,4.8-5.9,4.8s9.6-7,11.7-8.5c2.5-1.8,4.9-3.8,7.3-5.6
		c0.8,1.1,1.4,2.2,1.9,3.5c-0.3,0.2-0.6,0.4-0.9,0.5c-4.5,2.4-9,4.7-13.5,7.1c-0.2,0.1-5.9,3-6.4,3.2"/>
	<path d="M8.7,41.4c-1-1.2-1.9-2.4-2.8-3.6c1.9,0.4,3.7,0.9,5.6,1.4C10.6,39.9,9.6,40.7,8.7,41.4z"/>
	<path d="M2.9,34c-1-1.2-1.9-2.4-2.9-3.5c0.9-0.7,1.8-1.5,2.8-2.2C2.8,30.2,2.8,32.1,2.9,34z"/>
</g>
</svg>
