<!-- Generator: Adobe Illustrator 19.1.0, SVG Export Plug-In  -->
<svg version="1.1"
   xmlns="http://www.w3.org/2000/svg" xmlns:xlink="http://www.w3.org/1999/xlink" xmlns:a="http://ns.adobe.com/AdobeSVGViewerExtensions/3.0/"
   x="0px" y="0px" width="67.5px" height="53px" viewBox="0 0 67.5 53" enable-background="new 0 0 67.5 53" xml:space="preserve">
<defs>
</defs>
<path d="M33.6,33.9c-0.4,1.7-1.9,3-3.7,3c-0.3,0-0.5,0-0.8-0.1c-1-0.2-1.8-0.8-2.4-1.6c-0.6-0.8-0.7-1.8-0.5-2.8
  c0.4-1.7,1.9-3,3.7-3c0.3,0,0.5,0,0.8,0.1C32.7,29.9,34,31.9,33.6,33.9z M47.9,8.2l-7.5-1.9c-0.6-0.1-1.1,0.2-1.2,0.8l-1.9,7.5
  c-0.1,0.5,0.2,1.1,0.8,1.2c0.1,0,0.2,0,0.2,0c0.5,0,0.9-0.3,1-0.8l1.3-5.1l0.6,1c1.9,3.1,2.4,6.7,1.5,10.3c-0.9,3.5-3.1,6.5-6.2,8.3
  c-0.5,0.3-1,0.6-1.5,0.8c-0.8-1.4-2.2-2.5-3.9-2.9c-0.4-0.1-0.8-0.1-1.2-0.1c-2.7,0-5.1,1.9-5.7,4.6c-0.3,1.5,0,3.1,0.8,4.4
  c0.8,1.3,2.2,2.2,3.7,2.5c0.4,0.1,0.8,0.1,1.2,0.1c2.7,0,5.1-1.9,5.7-4.6c0.1-0.7,0.2-1.4,0.1-2.1c0.7-0.3,1.3-0.6,2-1
  c3.6-2.2,6.1-5.6,7.1-9.6c1-4.1,0.4-8.2-1.8-11.8l-0.6-1l5.1,1.3c0.6,0.1,1.1-0.2,1.2-0.8C48.8,8.9,48.4,8.3,47.9,8.2z"/>
<path d="M54.7,31.5c0.4,0.4,0.4,1.1,0,1.5c-0.2,0.2-0.5,0.3-0.7,0.3c-0.3,0-0.5-0.1-0.7-0.3l-2.5-2.5L48.4,33
  c-0.2,0.2-0.5,0.3-0.7,0.3c-0.3,0-0.5-0.1-0.7-0.3c-0.4-0.4-0.4-1.1,0-1.5l2.5-2.5l-2.5-2.5c-0.4-0.4-0.4-1.1,0-1.5
  c0.4-0.4,1.1-0.4,1.5,0l2.5,2.5l2.5-2.5c0.4-0.4,1.1-0.4,1.5,0c0.4,0.4,0.4,1.1,0,1.5l-2.5,2.5L54.7,31.5z"/>
<path d="M33.3,16.3c0.4,0.4,0.4,1.1,0,1.5c-0.2,0.2-0.5,0.3-0.7,0.3c-0.3,0-0.5-0.1-0.7-0.3l-2.5-2.5L27,17.8
  c-0.2,0.2-0.5,0.3-0.7,0.3c-0.3,0-0.5-0.1-0.7-0.3c-0.4-0.4-0.4-1.1,0-1.5l2.5-2.5l-2.5-2.5c-0.4-0.4-0.4-1.1,0-1.5
  c0.4-0.4,1.1-0.4,1.5,0l2.5,2.5l2.5-2.5c0.4-0.4,1.1-0.4,1.5,0c0.4,0.4,0.4,1.1,0,1.5l-2.5,2.5L33.3,16.3z"/>
<path d="M21.5,26.4c0.4,0.4,0.4,1.1,0,1.5c-0.2,0.2-0.5,0.3-0.7,0.3c-0.3,0-0.5-0.1-0.7-0.3l-2.5-2.5l-2.5,2.5
  c-0.2,0.2-0.5,0.3-0.7,0.3c-0.3,0-0.5-0.1-0.7-0.3c-0.4-0.4-0.4-1.1,0-1.5l2.5-2.5l-2.5-2.5c-0.4-0.4-0.4-1.1,0-1.5
  c0.4-0.4,1.1-0.4,1.5,0l2.5,2.5l2.5-2.5c0.4-0.4,1.1-0.4,1.5,0c0.4,0.4,0.4,1.1,0,1.5L19.1,24L21.5,26.4z"/>
<path d="M65.4,42.6H2.1V2.1h63.4L65.4,42.6L65.4,42.6z M66.5,0H1C0.5,0,0,0.5,0,1v42.6c0,0.6,0.5,1,1,1h31.7v6.3H19
  c-0.6,0-1,0.5-1,1c0,0.6,0.5,1,1,1h29.4c0.6,0,1-0.5,1-1c0-0.6-0.5-1-1-1H34.8v-6.3h31.7c0.6,0,1-0.5,1-1V1C67.5,0.5,67,0,66.5,0z"
  />
</svg>
