<!-- Generator: Adobe Illustrator 18.0.0, SVG Export Plug-In  -->
<svg version="1.1"
	 xmlns="http://www.w3.org/2000/svg" xmlns:xlink="http://www.w3.org/1999/xlink" xmlns:a="http://ns.adobe.com/AdobeSVGViewerExtensions/3.0/"
	 x="0px" y="0px" width="68.3px" height="32.2px" viewBox="0 0 68.3 32.2" enable-background="new 0 0 68.3 32.2"
	 xml:space="preserve">
<defs>
</defs>
<path d="M5.5,14.4c0-0.5,0.4-0.9,0.9-0.9c0.5,0,0.9,0.4,0.9,0.9S7,15.3,6.4,15.3C5.9,15.3,5.5,14.9,5.5,14.4z M0.1,17.9
	c0.6,0.6,5.8,3.9,5.8,3.9c4.4,2.5,12.1,3.9,12.1,3.9c1.2,4.9,3.4,6.3,3.4,6.3c0.6-0.8,1-3.3,1-3.3c1,0.6,2.4,0.8,2.4,0.8l-2.1-3.4
	c7.1,1,14.4-0.8,14.4-0.8c2.2-0.5,4,1.2,4,1.2c4.7,2.6,6.2,2.1,6.2,2.1c-2.3-0.6-4.7-3.4-4.7-3.4c-0.9-1.1,1.2-2.3,1.2-2.3
	c1.8-1,6.2-3.6,6.2-3.6c3.7-2.4,8-3,8-3c1.3-0.2,2.7,2,2.7,2c4.1,6,7.7,7,7.7,7c-1-1.2-4.3-7.4-4.3-7.4c-0.8-1.8-0.1-3.8-0.1-3.8
	c1.2-3.3,4.5-7.8,4.5-7.8c-4.1,1.2-8.6,7.3-8.6,7.3c-0.6,0.9-1.8,0.9-1.8,0.9c-2.1,0-7.8-2.3-7.8-2.3c-2-0.9-9.1-4-9.1-4
	c-2-0.6-1.2-2.3-1.2-2.3c1.8-2.8,4.3-4.1,4.3-4.1c-3.3,0.1-7.4,4-7.4,4c-1.2,1.4-2.9,0.3-2.9,0.3l-0.7-1L32.3,5l-0.4-0.4h-0.6
	l-0.5-0.3H30l-0.5-0.4L28.8,4l-0.6-0.1l-1-0.1l-0.4-0.3L26,3.6L25.4,3h-0.7l-0.4-0.6h-0.7l-0.4-0.6l-0.8-0.4V0.6h-0.6V0L21,0
	C18.1,3,17,6.7,17,6.7c-6.3,0.9-12,4.7-12,4.7c-0.8,0.5-4.3,3.3-4.3,3.3c-1,0.5,0,1,0,1c0.8,0.2,2.8,1.6,2.8,1.6c-0.5,0.2-3,0-3,0
	C-0.3,17.2,0.1,17.9,0.1,17.9z"/>
</svg>
