<!-- Generator: Adobe Illustrator 19.1.0, SVG Export Plug-In  -->
<svg version="1.1"
   xmlns="http://www.w3.org/2000/svg" xmlns:xlink="http://www.w3.org/1999/xlink" xmlns:a="http://ns.adobe.com/AdobeSVGViewerExtensions/3.0/"
   x="0px" y="0px" width="75px" height="66.2px" viewBox="0 0 75 66.2" enable-background="new 0 0 75 66.2" xml:space="preserve">
<defs>
</defs>
<path d="M2.5,63.8V2.5h23.1l6.2,8.8h0l5.9,8.2c0.2,0.3,0.6,0.5,1,0.5v0h33.8v43.8H2.5z M72.5,11.2v6.2H39.4l-4.5-6.2
  H72.5z M33.2,8.8l-5.9-8.2L26.9,0H0v66.2h75V8.8H33.2z"/>
<path d="M47.5,55h-20V40h20V55z M45,32.5c0-4.1-3.4-7.5-7.5-7.5S30,28.4,30,32.5c0,0.7,0.6,1.2,1.2,1.2
  s1.2-0.6,1.2-1.2c0-2.8,2.2-5,5-5s5,2.2,5,5v5H25v20h25v-20h-5V32.5z"/>
<path d="M37.5,48.8c-1.4,0-2.5-1.1-2.5-2.5s1.1-2.5,2.5-2.5s2.5,1.1,2.5,2.5S38.9,48.8,37.5,48.8z M37.5,41.2
  c-2.8,0-5,2.2-5,5c0,2.3,1.6,4.3,3.8,4.8v1.4c0,0.7,0.6,1.2,1.2,1.2s1.2-0.6,1.2-1.2v-1.4c2.1-0.6,3.8-2.5,3.8-4.8
  C42.5,43.5,40.3,41.2,37.5,41.2z"/>
</svg>
