<!-- Generator: Adobe Illustrator 18.0.0, SVG Export Plug-In  -->
<svg version="1.1"
	 xmlns="http://www.w3.org/2000/svg" xmlns:xlink="http://www.w3.org/1999/xlink" xmlns:a="http://ns.adobe.com/AdobeSVGViewerExtensions/3.0/"
	 x="0px" y="0px" width="392.7px" height="52.3px" viewBox="0 0 392.7 52.3" enable-background="new 0 0 392.7 52.3"
	 xml:space="preserve">
<defs>
</defs>
<path fill="#2480A9" d="M373.5,19.9c-5.3,4-12,6.4-19.2,6.4c-10.6,0-19.9-5.1-25.7-13.1c-5.8,7.9-15.1,13.1-25.7,13.1
	c-8.7,0-16.5-3.5-22.2-9.1c-5.7,5.6-13.6,9.1-22.2,9.1c-5.8,0-11.2-1.6-15.9-4.3c-4.7,2.7-10.1,4.3-15.9,4.3c-9,0-17.1-3.7-22.9-9.7
	c-5.8,6-13.9,9.7-22.9,9.7c-9.2,0-17.5-3.9-23.3-10.2c-5.8,6.3-14.1,10.2-23.3,10.2c-7.2,0-13.8-2.4-19.2-6.4
	c-5.3,4-12,6.4-19.2,6.4c0,0-8.1-0.8-11.7-2.2c0.3-1.2,0.4-2.3,0.1-2.8c-0.3-0.7-1.6-1.4-2.9-1.7c0.1-0.3,0.2-0.6,0.3-0.9
	c0,0,0,0,0,0c8.8-9.6-6.6-5-6.6-5s10.5-3.8,9.4-9c-1.2-5.5-9.3-5.9-14-2.8c-0.5,0.3-2.9,1.5-5,2.7c-2.4-0.5-5,0-7.3,1.5
	c-4.5,3-5.8,9.1-2.7,13.6c0,0,0,0,0,0c-0.5,1.8-6.6,6.5-9.4,6.6c-0.6-1.9-1.6-4.3-2.6-3.6c-0.4,0.3-0.7,2-0.9,3.6
	c-7.9-0.5-15-3.8-20.3-9C17.6,21.8,11.7,24.9,5,26c-1.6,0.3-3.3,0.4-5,0.4v26h392.7v-26C385.5,26.4,378.8,24,373.5,19.9z M74.4,8.2
	c-0.8,0.5-1.8,0.3-2.3-0.5c-0.5-0.8-0.3-1.8,0.5-2.3c0.8-0.5,1.8-0.3,2.3,0.5S75.1,7.7,74.4,8.2z"/>
</svg>
